<svg id="Layer_1" data-name="Layer 1" xmlns="http://www.w3.org/2000/svg" width="1280" height="800" viewBox="0 0 1280 800"><defs><style>.cls-1{fill:#fff;}</style></defs><title>bg</title><path class="cls-1" d="M666.52,264.16q0.47-1.39.86-2.78t0.68-2.75a23,23,0,0,0,.4-2.56q0.14-1.6.14-2.54a4.67,4.67,0,0,0-.22-1.72,0.69,0.69,0,0,0-.63-0.48,1.65,1.65,0,0,0-1.33.93,10,10,0,0,0-1.05,2.37,29.33,29.33,0,0,0-.8,3.18c-0.23,1.16-.42,2.28-0.58,3.37s-0.28,2.06-.37,2.93-0.16,1.49-.2,1.85c-0.06.75-.13,1.47-0.17,2.16s-0.11,1.33-.13,1.9-0.12,1.07-.12,1.5v1.21a57.38,57.38,0,0,0,2.5-5.93C665.8,266,666.21,265.08,666.52,264.16Z"/><path class="cls-1" d="M657.85,277.81q0-.86,0-1.77t0-1.67q0-.76,0-1.24a1.44,1.44,0,0,0,0-.46A9.64,9.64,0,0,0,655,274.6a12.53,12.53,0,0,0-2,2.6,13.13,13.13,0,0,0-1.2,2.82,9.31,9.31,0,0,0-.41,2.56,4.18,4.18,0,0,0,.1.92,2.14,2.14,0,0,0,.38.82,2,2,0,0,0,.78.6,3.18,3.18,0,0,0,1.31.23,1.77,1.77,0,0,0,.81-0.21,3.66,3.66,0,0,0,.77-0.54,6,6,0,0,0,.7-0.76,8.77,8.77,0,0,0,.61-0.88,15.73,15.73,0,0,0,1.17-2.38,7.73,7.73,0,0,1-.12-1Q657.87,278.67,657.85,277.81Z"/><path class="cls-1" d="M614.82,265.41q0.69-1.17,1.43-2.53t1.34-2.68q0.6-1.32,1-2.46a6.13,6.13,0,0,0,.39-1.88,5.12,5.12,0,0,0,0-.56,2.11,2.11,0,0,0-.15-0.58,1,1,0,0,0-1-.64,1.66,1.66,0,0,0-1.2,1.05,15.57,15.57,0,0,0-1.17,2.69q-0.56,1.64-1.05,3.61t-0.9,3.82l0.69,0.08Z"/><path class="cls-1" d="M729.64,316H726v13h3.64a4.42,4.42,0,0,0,3.27-1.3,5.67,5.67,0,0,0,1.09-3.85v-2.71a5.66,5.66,0,0,0-1.09-3.85A4.41,4.41,0,0,0,729.64,316Z"/><path class="cls-1" d="M694.81,273.84a2.9,2.9,0,0,0-.82-1.05,1.93,1.93,0,0,0-1.21-.39,2.58,2.58,0,0,0-1.79.8,7.48,7.48,0,0,0-1.49,2,13.07,13.07,0,0,0-1.37,5.67,8.55,8.55,0,0,0,.18,1.81,4.65,4.65,0,0,0,.57,1.48,2.87,2.87,0,0,0,2.57,1.39,2.09,2.09,0,0,0,1.51-.79,7.47,7.47,0,0,0,1.28-2,13.7,13.7,0,0,0,.88-2.66,12.49,12.49,0,0,0,.33-2.78,11.18,11.18,0,0,0-.16-2A6,6,0,0,0,694.81,273.84Z"/><path class="cls-1" d="M1280,466V0H0V466H1280ZM591,362H561V350h4.91l-1.28-6H554.49l-1.2,6H558v12H532V350h3.09l12.7-46h27.36l12.7,46H591v12Zm47-40H625v-6h-5v34h6v12H594V350h5V316h-4v6H582V304h56v18Zm60-6h-5v25.52a27.56,27.56,0,0,1-1.56,10.26,16.72,16.72,0,0,1-4.72,6.8,19.37,19.37,0,0,1-7.64,3.8,39.67,39.67,0,0,1-10,1.17,41.35,41.35,0,0,1-10.22-1.17,19.9,19.9,0,0,1-7.8-3.8,17.68,17.68,0,0,1-5.08-6.8,26.14,26.14,0,0,1-2-10.26V316h-4V304h29v12h-3v29.35c0,1.7.09,2.93,0.82,3.68a3.71,3.71,0,0,0,3,1.13A4.21,4.21,0,0,0,673,349c0.73-.75,1-2,1-3.68V316h-3V304h27v12Zm1.55-34.81a14,14,0,0,1-.86,2.66,13,13,0,0,1-1.37,2.4,9.79,9.79,0,0,1-1.86,1.95,8.78,8.78,0,0,1-2.28,1.31,7.2,7.2,0,0,1-2.63.48,6.44,6.44,0,0,1-3.45-.88,7.35,7.35,0,0,1-2.35-2.3c-0.09-.14-0.17-0.29-0.25-0.43l-0.47.35a21.84,21.84,0,0,1-2.64,1.58,20.16,20.16,0,0,1-2.9,1.2,9.06,9.06,0,0,1-2.8.48,5.31,5.31,0,0,1-2-.33,3.33,3.33,0,0,1-1.32-.93,3.56,3.56,0,0,1-.72-1.45c0-.13,0-0.28-0.07-0.41-0.45.31-.89,0.61-1.33,0.88s-0.91.55-1.4,0.81-1,.5-1.44.71a11.31,11.31,0,0,1-1.38.5,4.54,4.54,0,0,1-1.25.19,4.91,4.91,0,0,1-1-.14,5,5,0,0,1-1.37-.56A6.39,6.39,0,0,1,661,288a7.1,7.1,0,0,1-1.29-2.13,22.21,22.21,0,0,1-1.8,1.57,14,14,0,0,1-2,1.29,12,12,0,0,1-2.06.88,6.85,6.85,0,0,1-2.09.33,5,5,0,0,1-2.58-.64,5.59,5.59,0,0,1-1.81-1.71c-0.1-.15-0.17-0.32-0.27-0.48-0.45.27-.92,0.53-1.41,0.79a20.94,20.94,0,0,1-2,.93,15.65,15.65,0,0,1-2,.64,8.13,8.13,0,0,1-1.88.24,3,3,0,0,1-1.49-.34,3.27,3.27,0,0,1-1.06-1,6,6,0,0,1-.76-1.48,15.15,15.15,0,0,1-.54-1.91,19,19,0,0,1-1.74,2,14.37,14.37,0,0,1-1.87,1.57,9.14,9.14,0,0,1-1.92,1,5.21,5.21,0,0,1-1.89.38,4,4,0,0,1-1.42-.25,2.92,2.92,0,0,1-1.18-.85,4.27,4.27,0,0,1-.81-1.57,7.22,7.22,0,0,1-.27-1.62l-2.39,1.36q-1.72,1-3.06,1.6a17.64,17.64,0,0,1-2.38,1A6.47,6.47,0,0,1,615,290a4.8,4.8,0,0,1-3.07-1.05,8,8,0,0,1-2.22-3,18.94,18.94,0,0,1-1.34-4.8,40.81,40.81,0,0,1-.45-6.34q0-1.37.11-2.93t0.32-3.09q-0.69-.09-1.06-0.17l-0.8-.16-1.08-.17-1.89-.23a2,2,0,0,1-.85-0.26,1.23,1.23,0,0,1-.44-0.46,1.41,1.41,0,0,1-.16-0.55c0-.19,0-0.35,0-0.49a0.76,0.76,0,0,1,.45-0.7,3.68,3.68,0,0,1,1.15-.35,10.44,10.44,0,0,1,1.53-.13q0.84,0,1.6,0l1.37,0a4.51,4.51,0,0,0,.84,0,51.71,51.71,0,0,1,1.57-6,34,34,0,0,1,2.13-5.15,14.21,14.21,0,0,1,2.58-3.62,4.18,4.18,0,0,1,2.93-1.36,3.14,3.14,0,0,1,1.8.55,4.83,4.83,0,0,1,1.39,1.47,7.47,7.47,0,0,1,.88,2.14,10.4,10.4,0,0,1,.31,2.55,9.52,9.52,0,0,1-.32,2.37,17.91,17.91,0,0,1-.87,2.54,26.76,26.76,0,0,1-1.29,2.62q-0.74,1.33-1.57,2.63l0.69,0,1.11,0,1.36,0.06,1.42,0.05,1.28,0,1,0a0.71,0.71,0,0,1,.66.43,2.3,2.3,0,0,1,.21,1,1.58,1.58,0,0,1-.46,1.19,1.13,1.13,0,0,1-1,.27H616a8.4,8.4,0,0,1-1.34,2c-0.45.59-.87,1.35-1.25,1.82q-0.09,1.42-.16,2.79,0,0.6,0,1.23l0,1.25q0,0.62,0,1.19t0,1.05a8.1,8.1,0,0,0,.23,2.08,3.71,3.71,0,0,0,.66,1.39,2.49,2.49,0,0,0,1.06.78,3.93,3.93,0,0,0,1.41.24,4.13,4.13,0,0,0,1.2-.23,13.25,13.25,0,0,0,1.58-.63q0.86-.4,1.81-1t1.88-1.2q0.93-.65,1.77-1.37l0.47-.42c0.27-1.72.59-3.65,1-5.82q0-.34.17-0.93t0.34-1.27a12.61,12.61,0,0,1,.54-1.4,6.57,6.57,0,0,1,.76-1.28,3.83,3.83,0,0,1,1-.94,2.59,2.59,0,0,1,1.32-.39,4.58,4.58,0,0,1,1.74.31,0.77,0.77,0,0,1,.53.65q-0.21,1.21-.45,2.7t-0.49,3q-0.25,1.51-.48,2.94l-0.41,2.55q-0.18,1.12-.29,1.81t-0.1.71a3.78,3.78,0,0,0,.08.79,2.51,2.51,0,0,0,.24.68,1.4,1.4,0,0,0,.41.48,1,1,0,0,0,.6.18,2.29,2.29,0,0,0,1-.26,3.62,3.62,0,0,0,1-.76,5.1,5.1,0,0,0,.84-1.21,6.36,6.36,0,0,0,.55-1.64l2.27-11.63a1.45,1.45,0,0,1,.93-0.93,4.32,4.32,0,0,1,1.84-.38,3.59,3.59,0,0,1,1.85.41,1.21,1.21,0,0,1,.69,1.05,14.07,14.07,0,0,1-.14,1.68q-0.14,1.06-.36,2.34t-0.47,2.62l-0.47,2.52q-0.22,1.17-.35,2a9.4,9.4,0,0,0-.14,1.23q0,0.64,0,1.18a4,4,0,0,0,.14.94,1.28,1.28,0,0,0,.35.62,1,1,0,0,0,.7.22,3.83,3.83,0,0,0,1.23-.25,11.6,11.6,0,0,0,1.53-.68c0.4-.21.8-0.44,1.21-0.69,0-.28-0.05-0.55-0.05-0.84a12.1,12.1,0,0,1,.38-3,13.69,13.69,0,0,1,1.1-2.91,14.66,14.66,0,0,1,1.75-2.66,13.38,13.38,0,0,1,5.18-3.84,11.08,11.08,0,0,1,3.27-.8,43,43,0,0,1,.53-5.79,44.41,44.41,0,0,1,1.21-5.45,34.09,34.09,0,0,1,1.78-4.79,20.76,20.76,0,0,1,2.23-3.8,10.63,10.63,0,0,1,2.59-2.51,5.1,5.1,0,0,1,2.84-.9,3,3,0,0,1,1.83.56,4.14,4.14,0,0,1,1.22,1.49,7.5,7.5,0,0,1,.68,2.15,15.3,15.3,0,0,1,.21,2.53q0,0.8-.07,1.65a34.47,34.47,0,0,1-1.1,6.1,57.1,57.1,0,0,1-1.88,5.6q-1.08,2.73-2.34,5.4t-2.45,5.56a7.86,7.86,0,0,0-.23.78q-0.11.46-.22,1t-0.17,1.1a9.14,9.14,0,0,0-.07,1.09,9.24,9.24,0,0,0,.08,1.26,4.54,4.54,0,0,0,.26,1.06,1.87,1.87,0,0,0,.49.74,1.11,1.11,0,0,0,.77.27,3,3,0,0,0,.95-0.17,7.5,7.5,0,0,0,1.09-.47c0.38-.2.77-0.42,1.16-0.68s0.77-.51,1.13-0.77c0.6-.44,1.22-0.93,1.86-1.45,0.17-.91.36-1.82,0.59-2.77q0.48-2,1-4.09t1-3.76a2,2,0,0,1,.64-1,4.08,4.08,0,0,1,1.09-.69,6,6,0,0,1,1.26-.39,6.31,6.31,0,0,1,1.18-.13,1.82,1.82,0,0,1,1.31.35,1.31,1.31,0,0,1,.34,1,6.78,6.78,0,0,1-.23,1.45q-0.23.95-.57,2.15l-0.73,2.59q-0.39,1.39-.73,2.77t-0.57,2.7a13.91,13.91,0,0,0-.23,2.37,4.74,4.74,0,0,0,.23,1.64,0.91,0.91,0,0,0,.94.61,3.78,3.78,0,0,0,1.83-.57,16.2,16.2,0,0,0,2-1.39c0.33-.26.63-0.53,1-0.8A15.58,15.58,0,0,1,683,280a14.31,14.31,0,0,1,.76-4.71,11.34,11.34,0,0,1,2.16-3.8,10,10,0,0,1,3.45-2.54,10.93,10.93,0,0,1,4.58-.93,12.09,12.09,0,0,1,4.08.68,15.47,15.47,0,0,1,3.56,1.81,20.34,20.34,0,0,1,3.09,2.6,39.36,39.36,0,0,1,2.67,3l-0.44,3.23a13.38,13.38,0,0,0-1.67-1.79q-1.05-1-2.23-1.88t-2.32-1.73q-1.15-.81-2-1.36l-0.18.25a12.3,12.3,0,0,1,1,2.81A12.41,12.41,0,0,1,699.55,281.19Zm-23.7-19.63a3.86,3.86,0,0,1,1-2.44,4.11,4.11,0,0,1,1.37-1,5.05,5.05,0,0,1,2.14-.4,6.06,6.06,0,0,1,1.51.18,3.7,3.7,0,0,1,1.24.56,2.67,2.67,0,0,1,.84,1,3.24,3.24,0,0,1,.31,1.47,4.62,4.62,0,0,1-.25,1.51,3.53,3.53,0,0,1-.8,1.31,4.11,4.11,0,0,1-1.39.93,5.11,5.11,0,0,1-2,.35,4.09,4.09,0,0,1-3-1A3.4,3.4,0,0,1,675.85,261.56ZM758,362H734V344.82a12.17,12.17,0,0,0-.25-3.65,3.69,3.69,0,0,0-1.34-2.1,6.47,6.47,0,0,0-2.64-1,28.5,28.5,0,0,0-3.78-.26V350h5v12H700V350h5V316h-5V304h35.28a35.32,35.32,0,0,1,8.31.9,16.36,16.36,0,0,1,6.28,2.9,13,13,0,0,1,4,5.22,20,20,0,0,1,1.4,7.89,17.91,17.91,0,0,1-2,8.65,10.93,10.93,0,0,1-5.79,5.19l0.16,0.75c4.81,0.75,7.38,3.71,7.38,8.87V350h3v12Zm-6.3-73.13h0a11.48,11.48,0,0,1-8,3.56c-2.44,0-5.32-.87-8.49-3.46-8.3-6.79-14-.37-14.28-0.1a0.81,0.81,0,0,1-1.23-1.06c0.07-.08,7-7.91,16.54-0.1,8.34,6.82,14,.38,14.27.1,0.07-.08,7-7.91,16.54-0.1,8.34,6.82,14,.37,14.27.09,0.07-.08,7-7.92,16.53-0.11v0a12.16,12.16,0,0,0,7.3,3,0.73,0.73,0,0,1,.79.73,0.66,0.66,0,0,1-.81.58h0a13.11,13.11,0,0,1-8.29-3.25V289c-8.34-6.81-14-.37-14.27-0.09a11.5,11.5,0,0,1-8,3.56c-2.44,0-5.32-.87-8.49-3.46C757.67,282.18,751.94,288.59,751.7,288.87ZM813,327H796V316h-9v12h6v9h-6v13h9V338h17v24H761V350h5V316h-5V304h52v23Zm-76.81-52.06c8.34,6.82,14,.38,14.27.1,0.07-.08,7-7.9,16.54-0.1,8.34,6.82,14,.38,14.27.11,0.07-.08,7-7.89,16.54-0.09v0a12.33,12.33,0,0,0,7.3,3.14,0.89,0.89,0,0,1,.79.92,1,1,0,0,1-.81,1h0c-2.74,0-5.61-1.44-8.29-3.64v-0.17c-8.34-6.81-14-.37-14.27-0.1a11.51,11.51,0,0,1-8,3.56c-2.44,0-5.32-.87-8.49-3.46-8.3-6.78-14-.37-14.27-0.1a11.49,11.49,0,0,1-8,3.56c-2.44,0-5.32-.87-8.49-3.46-8.3-6.79-14-.37-14.28-0.1a0.81,0.81,0,0,1-1.23-1.06C719.72,275,726.63,267.13,736.19,274.94Zm-48-42.82c2.49,5.44,3.8,5.52,7,5.17s3.26,1.17,3.26,1.17,9.09-3.26,13.75-1.63,6.43,2.56,9.56,2.22a30.59,30.59,0,0,1-11.78.93c-5.25-.7-11.34.39-13.6,2.1s-2.72,3.81-8,4a19.27,19.27,0,0,0-3,2.64c-0.39.37-2.33,0.39-4.12-1.63,0,0-1-.74.25-1.55s4.14-1.75,4.14-2.68,0.23-3,.23-3-11-8.8-13.87-14.16c-3.14-.82-10.43-6.47-9.55-11.81a34.23,34.23,0,0,0,12.43,7.92C682.13,224.36,685.7,226.69,688.19,232.12Zm-52.12-29.69a14.83,14.83,0,0,0,6.54-1c2.84-.92,5.22-1.05,7.68.39s3.42,1.45,6.6,1.7c0,0,1.6-2.71,7.48-3.62s9-.73,11.91-3.42c-0.77,2.07-3,4.36-11.09,5.54-4.57.67-6.2,1.28-6.76,1.68,2.59,0.44,2.91,1.55,2.91,1.55a8,8,0,0,0-4,1.16,6.3,6.3,0,0,1-6-.24c-0.84-.58-2.89-0.51-4.76-0.32,0.45-1.55,3.34-1.67,2.83-2.06-2.25-1-8.74,1.76-13,0a25.49,25.49,0,0,0-4.53-1.29A24,24,0,0,1,636.07,202.43Zm-25.18-9.33a23.32,23.32,0,0,0,5.31,8.52c3.76,3.68,5.27,6.15,5.2,10.23s0.72,4.51,2.76,5.22,1.66,1.68,1.66,1.68,6.54,0.66,8.93,3,3.2,3.46,5.23,4.17a20.77,20.77,0,0,1-7.51-2.89c-3-2-7.09-3.09-9-2.7s-2.79,1.54-6.1.13a13.13,13.13,0,0,0-2.64.74c-0.35.11-1.55-.45-2.05-2.21,0,0-.38-0.74.61-0.88s3.06,0.14,3.33-.43,1-1.75,1-1.75-4.15-8.63-4.37-12.78C611.6,201.74,608.78,196.13,610.89,193.1Zm5.89,39.64c5.49,3,3.91,6.77,7.67,8.22,0.54,0.21,1,.4,1.42.59,1.43-1.56,5.88-6.2,8.93-6.41,3.66-.26,9.84.07,13.25-0.84a67.69,67.69,0,0,0,7.39-2.57s-5.34,5.4-8.55,6.43-8.89-.58-11.42.41c-1.51,1.19-5.58,3.63-7.1,4.52a24,24,0,0,1,1.67,1.77c-2.27-.19-9.21.19-11.47-1.54a13.42,13.42,0,0,0-6.85-2.79c0.38-1,4.72-1.31,4.72-1.31l2.12,1.31c-1.16-2.55-2.51-4.3-7.23-6.52s-6.94-3.76-8.2-6-3.45-6-3.45-6C603.58,226.74,611.28,229.77,616.78,232.74Zm-45,46.3a6.2,6.2,0,0,1,1.17-1.85,4.88,4.88,0,0,1,1.52-1.12,3.71,3.71,0,0,1,1.53-.38,1.88,1.88,0,0,1,1.23.4,1.52,1.52,0,0,1,.49,1.25,4,4,0,0,1-.09.82l-0.19,1q-0.1.52-.19,1.13a9.18,9.18,0,0,0-.09,1.35,5.1,5.1,0,0,0,.73,2.77,6,6,0,0,0,1.95,1.92,9.15,9.15,0,0,0,2.79,1.12,14.43,14.43,0,0,0,3.27.37,16.94,16.94,0,0,0,4-.48,12.86,12.86,0,0,0,3.57-1.42,8.41,8.41,0,0,0,2.56-2.3,5.2,5.2,0,0,0,1-3.13,5,5,0,0,0-.88-2.91,10.24,10.24,0,0,0-2.34-2.37,23.9,23.9,0,0,0-3.31-2l-3.78-1.95q-1.92-1-3.78-2.07a20.3,20.3,0,0,1-3.31-2.39,11,11,0,0,1-2.34-2.92,7.54,7.54,0,0,1-.88-3.68,8.43,8.43,0,0,1,.93-3.79,9.89,9.89,0,0,1,2.79-3.34,14.94,14.94,0,0,1,4.66-2.39,21.07,21.07,0,0,1,6.55-.92,15.6,15.6,0,0,1,4.66.71,13.77,13.77,0,0,1,4.06,2,10.62,10.62,0,0,1,2.87,3.11,7.63,7.63,0,0,1,1.09,4,8.65,8.65,0,0,1-.45,2.68,11.94,11.94,0,0,1-1.43,2.86,7,7,0,0,1-2.1,2.14,4,4,0,0,1-2,.7,1.59,1.59,0,0,1-1.12-.4,1.55,1.55,0,0,1-.44-1.2,4.51,4.51,0,0,1,.27-1.41,9.09,9.09,0,0,1,.94-1.87,9.44,9.44,0,0,0,.92-1.89,5.15,5.15,0,0,0,.3-1.64,3.43,3.43,0,0,0-.63-2,5,5,0,0,0-1.74-1.48,9.37,9.37,0,0,0-2.67-.89,18.23,18.23,0,0,0-3.41-.3,12.22,12.22,0,0,0-3.58.47,8.57,8.57,0,0,0-2.54,1.21,5,5,0,0,0-1.51,1.66,3.8,3.8,0,0,0-.49,1.81,4.43,4.43,0,0,0,.88,2.7,10,10,0,0,0,2.34,2.21,25.59,25.59,0,0,0,3.3,1.94l3.78,1.89q1.94,1,3.78,2.08a18.6,18.6,0,0,1,3.3,2.51,11.49,11.49,0,0,1,2.34,3.16,8.9,8.9,0,0,1,.88,4,10.48,10.48,0,0,1-.66,3.79,10.8,10.8,0,0,1-1.82,3.1,12.9,12.9,0,0,1-2.74,2.43,16.7,16.7,0,0,1-3.41,1.74,21.63,21.63,0,0,1-3.85,1,23.31,23.31,0,0,1-4.05.35,22.16,22.16,0,0,1-5.56-.7,15.6,15.6,0,0,1-4.81-2.11,11,11,0,0,1-3.38-3.53,9.45,9.45,0,0,1-1.27-5A6.58,6.58,0,0,1,571.78,279Zm-99.9-1a12.25,12.25,0,0,0,7.3-3.1h0c9.55-7.81,16.47,0,16.54.1h0c0.27,0.31,6,6.66,14.27-.1,9.55-7.81,16.47,0,16.54.1,0.25,0.29,6,6.68,14.28-.1,9.55-7.81,16.47,0,16.54.1a0.81,0.81,0,0,1-1.23,1.06c-0.25-.29-6-6.68-14.27.1-3.17,2.59-6.06,3.46-8.49,3.46a11.5,11.5,0,0,1-8-3.56c-0.25-.29-6-6.68-14.28.1-3.17,2.59-6.06,3.47-8.5,3.47a11.52,11.52,0,0,1-8-3.54c-0.25-.29-6-6.64-14.27.14v0.08c-2.68,2.2-5.55,3.64-8.29,3.64h0A1,1,0,0,1,471.88,278Zm0,12.77a12.25,12.25,0,0,0,7.3-3.1h0c9.55-7.81,16.47,0,16.54.1h0c0.27,0.31,6,6.66,14.27-.1,9.55-7.81,16.47,0,16.54.1,0.25,0.29,6,6.68,14.28-.1,9.55-7.81,16.47,0,16.54.1a0.81,0.81,0,0,1-1.23,1.06c-0.25-.29-6-6.68-14.27.1-3.17,2.59-6.06,3.46-8.49,3.46a11.49,11.49,0,0,1-8-3.57c-0.25-.29-6-6.69-14.28.09-3.17,2.59-6.06,3.45-8.5,3.45a11.47,11.47,0,0,1-8-3.59c-0.25-.29-6-6.73-14.27,0v-0.1a13.11,13.11,0,0,1-8.29,3.25h0A0.62,0.62,0,1,1,471.88,290.81ZM464,350h4V316h-4V304h27.72L511,334.22V316h-4V304h26v12h-4v46H507.65L486,328.59V350h4v12H464V350Z"/><rect class="cls-1" y="477" width="1280" height="323"/><polygon class="cls-1" points="559.22 321 556.14 336 563.06 336 559.98 321 559.22 321"/></svg>