<?xml version="1.0" encoding="UTF-8" standalone="no"?>
<!-- Created with Inkscape (http://www.inkscape.org/) -->

<svg
   width="60.46936mm"
   height="63.460392mm"
   viewBox="0 0 60.46936 63.460392"
   version="1.1"
   id="svg116707"
   inkscape:version="1.1.2 (0a00cf5339, 2022-02-04, custom)"
   sodipodi:docname="logo_simple_small.svg"
   inkscape:export-filename="/home/bigtiddypiratebf/git/ghassanyounes.github.io/images/logo_text_white.png"
   inkscape:export-xdpi="174.07466"
   inkscape:export-ydpi="174.07466"
   xmlns:inkscape="http://www.inkscape.org/namespaces/inkscape"
   xmlns:sodipodi="http://sodipodi.sourceforge.net/DTD/sodipodi-0.dtd"
   xmlns="http://www.w3.org/2000/svg"
   xmlns:svg="http://www.w3.org/2000/svg">
  <sodipodi:namedview
     id="namedview116709"
     pagecolor="#595959"
     bordercolor="#666666"
     borderopacity="1.0"
     inkscape:pageshadow="2"
     inkscape:pageopacity="0"
     inkscape:pagecheckerboard="true"
     inkscape:document-units="mm"
     showgrid="false"
     inkscape:zoom="0.45254834"
     inkscape:cx="156.88932"
     inkscape:cy="286.15728"
     inkscape:window-width="1920"
     inkscape:window-height="1017"
     inkscape:window-x="1912"
     inkscape:window-y="-8"
     inkscape:window-maximized="1"
     inkscape:current-layer="g25977"
     showguides="true"
     inkscape:guide-bbox="true" />
  <defs
     id="defs116704">
    <rect
       x="204.61539"
       y="400"
       width="861.53845"
       height="995.38464"
       id="rect2190" />
    <rect
       x="45.17881"
       y="46.916458"
       width="1752.217"
       height="621.84619"
       id="rect128211" />
  </defs>
  <g
     id="g25977"
     inkscape:label="small_symbol"
     transform="matrix(0.23147898,0,0,0.23147898,-4.4871659,-1.496135)"
     inkscape:export-filename="C:\Users\ghass\Documents\logo_text_long_transparent_white.png"
     inkscape:export-xdpi="174.07466"
     inkscape:export-ydpi="174.07466"
     style="display:inline;fill:#000000;fill-opacity:1"
     inkscape:groupmode="layer">
    <path
       style="color:#000000;fill:#ffffff;fill-opacity:1;-inkscape-stroke:none"
       d="M 115.35288,24.050495 C 60.098089,39.27265 19.384766,89.979769 19.384766,150 c 0,72.01049 58.604743,130.61523 130.615234,130.61523 72.01049,0 130.61523,-58.60474 130.61523,-130.61523 0,-60.057063 -40.7633,-110.789581 -96.06985,-125.977489 l -0.0691,22.108703 C 228.05261,60.529986 259.38477,101.5156 259.38477,150 259.38477,210.53772 210.53772,259.38477 150,259.38477 89.462284,259.38477 40.615234,210.53772 40.615234,150 c 0,-48.40741 31.232732,-89.339826 74.700936,-103.79999 z"
       id="circle25804"
       sodipodi:nodetypes="csssccssscc"
       inkscape:label="circle"
       inkscape:export-filename="logo_simple_small_transparent_white.png"
       inkscape:export-xdpi="174.07466"
       inkscape:export-ydpi="174.07466" />
    <path
       d="m 155.14779,44.013498 c -6.53526,-3.143194 -12.01827,-6.056765 -16.44899,-8.740714 -4.43075,-2.68396 -7.14881,-4.729604 -8.15419,-6.13696 L 142.75214,6.4633731 169.45539,20.632105 c -3.60567,11.215933 -11.50021,21.903393 -14.3076,23.381393 z"
       style="font-size:400px;line-height:1.25;font-family:Harmattan;-inkscape-font-specification:'Harmattan, Normal';white-space:pre;display:inline;fill:#ffffff;fill-opacity:1;stroke-width:0.212317"
       id="path25969"
       inkscape:label="nuqta"
       inkscape:export-filename="logo_simple_small_transparent_white.png"
       inkscape:export-xdpi="174.07466"
       inkscape:export-ydpi="174.07466" />
    <path
       d="m 201.21501,237.1854 c -3.41972,2.6819 -7.30701,4.19403 -11.23709,5.34925 -3.91101,1.25791 -8.58886,2.3926 -14.03349,3.40404 -15.20391,2.82444 -28.64987,2.24032 -40.33783,-1.75232 -11.66887,-3.88994 -21.14531,-9.99382 -28.42932,-18.31161 -7.264912,-8.21509 -11.85158,-17.45909 -13.759966,-27.73199 -2.194641,-11.81384 -0.451441,-23.88108 5.230707,-36.20168 5.681789,-12.32057 16.071629,-22.75261 31.169589,-31.29614 -6.85527,-3.72141 -12.19451,-8.14955 -16.01782,-13.28438 -3.72057,-5.15388 -6.01023,-10.04227 -6.86899,-14.66508 -1.60306,-8.629251 -0.75892,-16.384681 2.53248,-23.266281 3.29144,-6.881641 8.18545,-12.573157 14.68219,-17.074562 6.47763,-4.604131 13.67151,-7.640919 21.58164,-9.110377 8.11557,-1.507626 16.46242,-1.198411 25.0405,0.927657 8.5781,2.126056 16.29556,6.484324 23.15238,13.074853 -0.94931,3.470845 -2.60457,6.860309 -4.96573,10.168329 -2.25841,3.28897 -5.20589,6.01511 -8.84241,8.17849 -9.85668,-9.008877 -20.38379,-12.473233 -31.58127,-10.393086 -7.29377,1.35495 -12.5167,4.131876 -15.66879,8.330766 -3.04942,4.17981 -4.12566,8.68385 -3.22872,13.51213 1.12595,6.061011 5.64196,11.492271 13.54806,16.293721 7.90606,4.80149 19.78101,6.36822 35.62485,4.70024 1.46945,7.91012 0.21438,15.74188 -3.76529,23.49529 -7.00183,-0.50596 -13.53327,-0.19595 -19.59427,0.92998 -8.73196,1.62213 -16.37858,4.79619 -22.93983,9.52215 -6.56127,4.72591 -11.43625,10.52016 -14.62492,17.3827 -3.08594,6.84346 -3.88464,14.27161 -2.39609,22.28448 1.24045,6.67742 4.3946,12.78675 9.46242,18.32803 5.0869,5.644 12.01847,9.77635 20.79471,12.39695 8.77623,2.6206 19.32808,2.78589 31.65559,0.49582 3.9364,-0.73127 8.09683,-1.82444 10.80171,-3.70197 2.70491,-1.87752 -0.0875,-22.34854 -2.0786,-23.08452 -1.8777,-0.69407 -5.02031,-0.18371 -7.05751,0.28229 -2.03719,0.46593 -4.10883,0.98235 -6.21494,1.54884 -2.67575,0.71972 -5.40713,1.52043 -8.19417,2.40223 -2.78705,0.88181 -5.62973,1.84464 -8.5281,2.88855 -0.33398,-1.79779 -0.48725,-3.69553 -0.45982,-5.69327 0.16932,-3.7969 0.83642,-7.24679 1.79818,-9.96948 0.6981,-1.96289 1.5813,-3.7875 2.64962,-5.47379 2.03912,-0.75077 4.05976,-1.45826 6.06187,-2.12244 2.00209,-0.66417 3.98565,-1.28507 5.9507,-1.86267 1.9555,-0.62896 4.10273,-1.2271 6.44164,-1.79444 2.33892,-0.56737 4.86953,-1.10388 7.59184,-1.6096 8.05811,-1.16092 12.11864,1.69651 13.58797,4.81589 0.65807,1.39701 6.30748,27.98576 7.26052,35.33762 0.49233,3.79796 0.77414,7.61909 0.0575,12.05633 -0.71668,4.43724 -2.71015,7.82923 -5.85168,10.29307 z"
       id="path25971"
       style="font-size:400px;line-height:1.25;font-family:Harmattan;-inkscape-font-specification:'Harmattan, Normal';white-space:pre;display:inline;fill:#ffffff;fill-opacity:1;stroke-width:0.802457"
       sodipodi:nodetypes="scsccssccsscsscccscssccsscscsscssssccccscscsscss"
       inkscape:label="base"
       inkscape:export-filename="logo_simple_small_transparent_white.png"
       inkscape:export-xdpi="174.07466"
       inkscape:export-ydpi="174.07466" />
  </g>
</svg>
