<?xml version="1.0" encoding="UTF-8" standalone="no"?>
<!-- Created with Inkscape (http://www.inkscape.org/) -->

<svg
   width="479.06168mm"
   height="63.460392mm"
   viewBox="0 0 479.06168 63.460392"
   version="1.1"
   id="svg116707"
   inkscape:version="1.1.2 (0a00cf5339, 2022-02-04, custom)"
   sodipodi:docname="logo_header.svg"
   inkscape:export-filename="/home/bigtiddypiratebf/git/ghassanyounes.github.io/images/logo_text_white.png"
   inkscape:export-xdpi="174.07466"
   inkscape:export-ydpi="174.07466"
   xmlns:inkscape="http://www.inkscape.org/namespaces/inkscape"
   xmlns:sodipodi="http://sodipodi.sourceforge.net/DTD/sodipodi-0.dtd"
   xmlns="http://www.w3.org/2000/svg"
   xmlns:svg="http://www.w3.org/2000/svg">
  <sodipodi:namedview
     id="namedview116709"
     pagecolor="#595959"
     bordercolor="#666666"
     borderopacity="1.0"
     inkscape:pageshadow="2"
     inkscape:pageopacity="0"
     inkscape:pagecheckerboard="true"
     inkscape:document-units="mm"
     showgrid="false"
     inkscape:zoom="0.45254834"
     inkscape:cx="1012.0466"
     inkscape:cy="286.15728"
     inkscape:window-width="1920"
     inkscape:window-height="1020"
     inkscape:window-x="0"
     inkscape:window-y="0"
     inkscape:window-maximized="1"
     inkscape:current-layer="g20696"
     showguides="true"
     inkscape:guide-bbox="true" />
  <defs
     id="defs116704">
    <rect
       x="204.61539"
       y="400"
       width="861.53845"
       height="995.38464"
       id="rect2190" />
    <rect
       x="45.17881"
       y="46.916458"
       width="1752.217"
       height="621.84619"
       id="rect128211" />
  </defs>
  <g
     inkscape:groupmode="layer"
     id="layer2"
     inkscape:label="Text"
     transform="translate(89.530837,-118.26981)"
     style="display:inline">
    <g
       id="g22128"
       transform="translate(4.3165188,0.02550334)"
       style="display:inline;fill:#000000;fill-opacity:1;stroke-width:1;stroke-miterlimit:4;stroke-dasharray:none"
       inkscape:export-filename="/home/bigtiddypiratebf/git/ghassanyounes.github.io/images/logo_text_transparent_white.png"
       inkscape:export-xdpi="174.07466"
       inkscape:export-ydpi="174.07466"
       inkscape:label="Names"
       inkscape:groupmode="layer">
      <g
         id="g20672"
         transform="matrix(1.1622084,0,0,1.1915713,-24.899752,-23.415508)"
         style="display:inline;fill:#000000;fill-opacity:1;stroke-width:0.849763;stroke-miterlimit:4;stroke-dasharray:none"
         inkscape:label="English"
         inkscape:groupmode="layer">
        <g
           id="g20613"
           style="fill:#000000;fill-opacity:1;stroke-width:0.849763;stroke-miterlimit:4;stroke-dasharray:none"
           inkscape:export-filename="logo_text_long_transparent_black.png"
           inkscape:export-xdpi="174.07466"
           inkscape:export-ydpi="174.07466">
          <path
             d="m -52.613581,153.92743 q -1.94304,0 -3.458886,-0.88195 -1.515847,-0.89573 -2.384014,-2.6045 -0.868167,-1.72255 -0.868167,-4.20303 0,-2.48048 0.95085,-4.24437 0.964629,-1.7639 2.576939,-2.70097 1.62609,-0.95085 3.596691,-0.95085 1.267799,0 2.411574,0.27561 1.143776,0.26183 2.508038,1.17134 l -0.675241,1.86036 q -1.157556,-0.93707 -2.191088,-1.24024 -1.019751,-0.31695 -2.053283,-0.31695 -2.356453,0 -3.734495,1.59853 -1.378043,1.58475 -1.378043,4.29949 0,2.85255 1.309141,4.5062 1.30914,1.63987 3.514008,1.63987 0.937069,0 1.694992,-0.20671 0.757924,-0.2067 1.694993,-0.7717 v -3.47267 h -3.610472 v -1.69499 h 5.581072 v 6.09095 q -1.584748,1.11621 -2.866328,1.48828 -1.267799,0.3583 -2.618281,0.3583 z"
             id="path20386"
             style="font-size:106.667px;line-height:1.25;font-family:Harmattan;-inkscape-font-specification:'Harmattan, Normal';white-space:pre;fill:#000000;fill-opacity:1;stroke-width:0.849763;stroke-miterlimit:4;stroke-dasharray:none" />
          <path
             d="m -44.138619,153.67938 q 0,0 0,-0.7028 0,-0.71659 0,-1.86036 0,-1.15756 0,-2.50804 0,-1.36426 0,-2.68718 0,-1.32292 0,-2.37023 0,-1.04732 0,-1.54341 0,-1.66743 -0.02756,-2.92145 -0.01378,-1.2678 -0.124023,-1.94304 h 2.067062 q 0,0 0,0.55121 0,0.53744 0,1.40561 0,0.85438 0,1.84657 0,0.97841 0,1.88792 0,0.90951 0,1.52963 0,0.62012 0,0.74414 0.771705,-1.07487 1.805237,-1.62609 1.033531,-0.55121 2.122185,-0.55121 1.653652,0 2.535598,1.08865 0.881949,1.07487 0.881949,3.21084 0,0.50987 0,1.32292 0,0.79926 0,1.68121 0,0.88195 0,1.66743 0,0.78549 0,1.28158 0,0.4961 0,0.4961 h -1.915481 q 0,0 0,-0.66146 0,-0.67524 0,-1.63987 0,-0.97841 0,-1.9017 0,-0.93707 0,-1.47451 0,-1.94304 -0.523655,-2.59072 -0.509876,-0.66146 -1.543407,-0.66146 -0.744143,0 -1.433166,0.44098 -0.67524,0.44097 -1.185116,1.11621 -0.509876,0.67524 -0.744144,1.37804 v 5.99449 z"
             id="path20388"
             style="font-size:106.667px;line-height:1.25;font-family:Harmattan;-inkscape-font-specification:'Harmattan, Normal';white-space:pre;fill:#000000;fill-opacity:1;stroke-width:0.849763;stroke-miterlimit:4;stroke-dasharray:none" />
          <path
             d="m -29.145518,153.92743 q -1.460725,0 -2.411576,-0.86817 -0.950849,-0.86817 -0.950849,-2.01194 0,-0.78549 0.35829,-1.57097 0.372073,-0.78549 1.267802,-1.36426 0.909508,-0.57878 2.508035,-0.73037 0.358291,-0.0413 0.93707,-0.0965 0.578779,-0.0551 1.102434,-0.0965 0.537437,-0.0551 0.744143,-0.0689 v -0.77171 q 0,-0.93707 -0.661461,-1.35048 -0.647679,-0.41341 -1.819015,-0.41341 -0.813046,0 -1.639872,0.33073 -0.813043,0.33073 -1.708772,0.96463 0,-0.34451 0.02756,-1.00597 0.02756,-0.67524 0.0689,-1.00598 0.799267,-0.34451 1.667433,-0.63389 0.881946,-0.30317 2.053283,-0.30317 1.791454,0 2.852547,0.8406 1.074873,0.82683 1.074873,2.05329 v 4.03766 q 0,1.11621 0.206708,2.0395 0.220485,0.90951 0.564997,1.77768 h -1.860357 q -0.09647,-0.24805 -0.24805,-0.67524 -0.151582,-0.4272 -0.261826,-0.92329 -0.92329,0.97841 -1.91548,1.41938 -0.99219,0.4272 -1.956819,0.4272 z m 0.303168,-1.695 q 0.799266,0 1.557189,-0.33073 0.771702,-0.33073 1.694992,-1.57096 v -1.7639 q -0.248049,0.0138 -0.771705,0.0689 -0.509876,0.0413 -1.04731,0.0965 -0.537438,0.0551 -0.868167,0.0965 -1.309143,0.15158 -1.846577,0.7028 -0.523659,0.53744 -0.523659,1.25402 0,0.68902 0.482317,1.07487 0.482315,0.37207 1.32292,0.37207 z"
             id="path20390"
             style="font-size:106.667px;line-height:1.25;font-family:Harmattan;-inkscape-font-specification:'Harmattan, Normal';white-space:pre;fill:#000000;fill-opacity:1;stroke-width:0.849763;stroke-miterlimit:4;stroke-dasharray:none" />
          <path
             d="m -16.798258,153.92743 q -1.254019,0 -2.315112,-0.34452 -1.061093,-0.35829 -1.667431,-0.82682 l 0.523656,-1.86036 q 0.689022,0.6339 1.681213,1.01975 1.005969,0.37207 1.832795,0.37207 0.895728,0 1.474507,-0.42719 0.592558,-0.42719 0.592558,-0.96463 0,-0.57878 -0.564999,-1.03353 -0.551217,-0.45475 -2.287551,-0.88195 -1.874136,-0.45475 -2.466694,-1.21268 -0.578779,-0.7717 -0.578779,-1.73633 0,-0.35829 0.179147,-0.86817 0.192926,-0.52365 0.633899,-1.03353 0.440973,-0.50987 1.212676,-0.85438 0.785484,-0.34451 1.956821,-0.34451 1.129996,0 1.943039,0.2756 0.826826,0.26183 1.364263,0.55122 l -0.358291,1.81902 q -0.523655,-0.31695 -1.30914,-0.64768 -0.785484,-0.34451 -1.750115,-0.34451 -1.129993,0 -1.570969,0.44097 -0.440973,0.44097 -0.440973,0.90951 0,0.35829 0.165365,0.62012 0.179146,0.24805 0.702802,0.46853 0.537437,0.20671 1.61231,0.45476 1.405604,0.31695 2.411574,1.01975 1.005972,0.7028 1.005972,2.13596 0,0.92329 -0.537438,1.68122 -0.523655,0.74414 -1.433163,1.18511 -0.895728,0.4272 -2.011942,0.4272 z"
             id="path20392"
             style="font-size:106.667px;line-height:1.25;font-family:Harmattan;-inkscape-font-specification:'Harmattan, Normal';white-space:pre;fill:#000000;fill-opacity:1;stroke-width:0.849763;stroke-miterlimit:4;stroke-dasharray:none" />
          <path
             d="m -6.8350101,153.92743 q -1.2540191,0 -2.3151121,-0.34452 -1.0610928,-0.35829 -1.6674308,-0.82682 l 0.523656,-1.86036 q 0.6890222,0.6339 1.6812124,1.01975 1.0059722,0.37207 1.8327952,0.37207 0.8957283,0 1.474507,-0.42719 0.5925582,-0.42719 0.5925582,-0.96463 0,-0.57878 -0.5649966,-1.03353 -0.551217,-0.45475 -2.2875504,-0.88195 -1.874139,-0.45475 -2.4666968,-1.21268 -0.578779,-0.7717 -0.578779,-1.73633 0,-0.35829 0.179147,-0.86817 0.192926,-0.52365 0.633899,-1.03353 0.4409731,-0.50987 1.212678,-0.85438 0.7854844,-0.34451 1.9568186,-0.34451 1.1299957,0 1.9430418,0.2756 0.8268256,0.26183 1.3642604,0.55122 l -0.3582908,1.81902 q -0.5236554,-0.31695 -1.3091398,-0.64768 -0.7854844,-0.34451 -1.7501129,-0.34451 -1.1299957,0 -1.5709688,0.44097 -0.4409757,0.44097 -0.4409757,0.90951 0,0.35829 0.1653672,0.62012 0.1791441,0.24805 0.7028021,0.46853 0.5374349,0.20671 1.6123073,0.45476 1.4056043,0.31695 2.4115766,1.01975 1.0059696,0.7028 1.0059696,2.13596 0,0.92329 -0.5374376,1.68122 -0.5236553,0.74414 -1.4331632,1.18511 -0.8957283,0.4272 -2.0119419,0.4272 z"
             id="path20394"
             style="font-size:106.667px;line-height:1.25;font-family:Harmattan;-inkscape-font-specification:'Harmattan, Normal';white-space:pre;fill:#000000;fill-opacity:1;stroke-width:0.849763;stroke-miterlimit:4;stroke-dasharray:none" />
          <path
             d="m 2.3565354,153.92743 q -1.46072486,0 -2.41157385,-0.86817 -0.95085165,-0.86817 -0.95085165,-2.01194 0,-0.78549 0.35829347,-1.57097 0.37207031,-0.78549 1.26779865,-1.36426 0.90950788,-0.57878 2.50803568,-0.73037 0.3582908,-0.0413 0.9370695,-0.0965 0.5787786,-0.0551 1.102434,-0.0965 0.5374376,-0.0551 0.7441433,-0.0689 v -0.77171 q 0,-0.93707 -0.661461,-1.35048 -0.6476788,-0.41341 -1.8190157,-0.41341 -0.813046,0 -1.6398716,0.33073 -0.81304337,0.33073 -1.70877172,0.96463 0,-0.34451 0.02756165,-1.00597 0.027559,-0.67524 0.0689001,-1.00598 0.79926656,-0.34451 1.66743327,-0.63389 0.8819462,-0.30317 2.0532831,-0.30317 1.791454,0 2.8525469,0.8406 1.0748751,0.82683 1.0748751,2.05329 v 4.03766 q 0,1.11621 0.2067057,2.0395 0.2204853,0.90951 0.5649966,1.77768 H 6.73871 q -0.096464,-0.24805 -0.2480468,-0.67524 -0.1515851,-0.4272 -0.261829,-0.92329 -0.9232874,0.97841 -1.9154802,1.41938 -0.9921901,0.4272 -1.9568186,0.4272 z m 0.3031675,-1.695 q 0.7992666,0 1.5571893,-0.33073 0.7717023,-0.33073 1.6949923,-1.57096 v -1.7639 q -0.2480469,0.0138 -0.7717049,0.0689 -0.5098759,0.0413 -1.0473108,0.0965 -0.5374375,0.0551 -0.8681667,0.0965 -1.3091398,0.15158 -1.8465773,0.7028 -0.52365541,0.53744 -0.52365541,1.25402 0,0.68902 0.48231421,1.07487 0.4823143,0.37207 1.3229193,0.37207 z"
             id="path20396"
             style="font-size:106.667px;line-height:1.25;font-family:Harmattan;-inkscape-font-specification:'Harmattan, Normal';white-space:pre;fill:#000000;fill-opacity:1;stroke-width:0.849763;stroke-miterlimit:4;stroke-dasharray:none" />
          <path
             d="m 11.189782,153.67938 q 0,0 0,-0.68902 0,-0.68903 0,-1.72256 0,-1.04731 0,-2.1084 0,-1.07487 0,-1.8328 0,-1.51585 -0.179144,-2.57694 -0.165364,-1.07487 -0.344511,-1.61231 h 1.860357 q 0.124023,0.33073 0.234267,0.99219 0.124023,0.66146 0.179147,1.03353 0.99219,-1.18511 1.998159,-1.70877 1.005973,-0.52365 2.094627,-0.52365 1.639869,0 2.521818,1.08865 0.881946,1.07487 0.881946,3.21084 0,0.50987 0,1.32292 0,0.79926 0,1.68121 0,0.88195 0,1.66743 0,0.78549 0,1.28158 0,0.4961 0,0.4961 h -1.91548 q 0,0 0,-0.66146 0,-0.67524 0,-1.63987 0,-0.97841 0,-1.9017 0,-0.93707 0,-1.47451 0,-1.94304 -0.509876,-2.59072 -0.496093,-0.66146 -1.557186,-0.66146 -0.744144,0 -1.433164,0.44098 -0.675243,0.44097 -1.185119,1.11621 -0.496093,0.67524 -0.730361,1.37804 v 5.99449 z"
             id="path20398"
             style="font-size:106.667px;line-height:1.25;font-family:Harmattan;-inkscape-font-specification:'Harmattan, Normal';white-space:pre;fill:#000000;fill-opacity:1;stroke-width:0.849763;stroke-miterlimit:4;stroke-dasharray:none" />
        </g>
        <g
           id="g20621"
           style="fill:#000000;fill-opacity:1;stroke-width:0.849763;stroke-miterlimit:4;stroke-dasharray:none"
           inkscape:export-filename="logo_text_long_transparent_black.png"
           inkscape:export-xdpi="174.07466"
           inkscape:export-ydpi="174.07466">
          <path
             d="m 33.651883,153.67938 q 0.110244,-0.62012 0.124023,-1.79146 0.02756,-1.17133 0.02756,-2.70096 v -1.81902 L 31.06116,142.6826 q -0.592558,-1.01975 -1.185116,-1.9706 -0.578779,-0.96463 -1.446945,-2.12219 h 2.370232 l 4.092787,6.83509 3.872301,-6.83509 h 2.370233 q -0.909508,1.30914 -1.446945,2.19109 -0.537438,0.88195 -1.129996,1.9017 l -2.797426,4.76802 v 1.73634 q 0,1.52963 0.01378,2.70096 0.02756,1.17134 0.151583,1.79146 z"
             id="path20400"
             style="font-size:106.667px;line-height:1.25;font-family:Harmattan;-inkscape-font-specification:'Harmattan, Normal';white-space:pre;fill:#000000;fill-opacity:1;stroke-width:0.849763;stroke-miterlimit:4;stroke-dasharray:none" />
          <path
             d="m 47.501206,153.92743 q -2.122186,0 -3.472666,-1.39183 -1.336702,-1.4056 -1.336702,-4.06522 0,-1.77768 0.689023,-3.01792 0.68902,-1.24023 1.819015,-1.87413 1.143776,-0.64768 2.508039,-0.64768 2.135965,0 3.458884,1.43316 1.336702,1.43316 1.336702,4.10657 0,1.77767 -0.68902,2.99035 -0.675241,1.21268 -1.819016,1.84658 -1.129996,0.62012 -2.494259,0.62012 z m 0.09646,-1.63988 q 1.254019,0 2.122186,-1.00597 0.881946,-1.01975 0.881946,-2.8112 0,-1.81902 -0.840605,-2.85255 -0.826826,-1.03353 -2.163527,-1.03353 -1.254019,0 -2.122186,1.03353 -0.868167,1.03353 -0.868167,2.85255 0,1.79145 0.826826,2.8112 0.826825,1.00597 2.163527,1.00597 z"
             id="path20402"
             style="font-size:106.667px;line-height:1.25;font-family:Harmattan;-inkscape-font-specification:'Harmattan, Normal';white-space:pre;fill:#000000;fill-opacity:1;stroke-width:0.849763;stroke-miterlimit:4;stroke-dasharray:none" />
          <path
             d="m 58.401518,153.92743 q -3.307302,0 -3.307302,-4.42352 0,-0.0827 0,-0.52366 0,-0.44097 0,-1.00597 0,-0.565 0,-1.00597 0,-0.44097 0,-0.52366 0,-0.97841 -0.04134,-1.68121 -0.02756,-0.7028 -0.165365,-1.62609 h 2.122186 q 0,0 0,0.67524 0,0.67524 0,1.66743 0,0.97841 0,1.92926 0,0.93707 0,1.47451 0,1.75011 0.385853,2.54938 0.385849,0.79926 1.36426,0.79926 0.62012,0 1.29536,-0.45475 0.689023,-0.46854 1.267799,-1.12999 0.578779,-0.67525 0.854387,-1.30915 v -2.89389 q 0,-1.01975 -0.04134,-1.68121 -0.02756,-0.67524 -0.165364,-1.62609 h 2.108403 q 0,0 0,0.62012 0,0.62012 0,1.57097 0,0.95085 0,1.95682 0,0.99219 0,1.75012 0,1.50206 0.179147,2.64584 0.179144,1.12999 0.496094,1.99816 h -1.750113 q -0.151585,-0.35829 -0.330729,-0.90951 -0.165368,-0.565 -0.24805,-1.15756 -1.874136,2.31512 -4.023884,2.31512 z"
             id="path20404"
             style="font-size:106.667px;line-height:1.25;font-family:Harmattan;-inkscape-font-specification:'Harmattan, Normal';white-space:pre;fill:#000000;fill-opacity:1;stroke-width:0.849763;stroke-miterlimit:4;stroke-dasharray:none" />
          <path
             d="m 67.331235,153.67938 q 0,0 0,-0.68902 0,-0.68903 0,-1.72256 0,-1.04731 0,-2.1084 0,-1.07487 0,-1.8328 0,-1.51585 -0.179144,-2.57694 -0.165365,-1.07487 -0.344512,-1.61231 h 1.860357 q 0.124026,0.33073 0.234268,0.99219 0.124023,0.66146 0.179146,1.03353 0.99219,-1.18511 1.998163,-1.70877 1.005969,-0.52365 2.094624,-0.52365 1.639869,0 2.521818,1.08865 0.881946,1.07487 0.881946,3.21084 0,0.50987 0,1.32292 0,0.79926 0,1.68121 0,0.88195 0,1.66743 0,0.78549 0,1.28158 0,0.4961 0,0.4961 h -1.91548 q 0,0 0,-0.66146 0,-0.67524 0,-1.63987 0,-0.97841 0,-1.9017 0,-0.93707 0,-1.47451 0,-1.94304 -0.509873,-2.59072 -0.496097,-0.66146 -1.55719,-0.66146 -0.744143,0 -1.433163,0.44098 -0.67524,0.44097 -1.185116,1.11621 -0.496097,0.67524 -0.730364,1.37804 v 5.99449 z"
             id="path20406"
             style="font-size:106.667px;line-height:1.25;font-family:Harmattan;-inkscape-font-specification:'Harmattan, Normal';white-space:pre;fill:#000000;fill-opacity:1;stroke-width:0.849763;stroke-miterlimit:4;stroke-dasharray:none" />
          <path
             d="m 83.909082,153.92743 q -1.30914,0 -2.452915,-0.60634 -1.129996,-0.60634 -1.819019,-1.80524 -0.68902,-1.1989 -0.68902,-2.94901 0,-2.56316 1.336702,-4.09279 1.336701,-1.5434 3.624252,-1.5434 1.708771,0 2.632061,0.75792 0.923288,0.74414 1.281579,1.87414 0.372073,1.12999 0.372073,2.30133 0,0.1378 0,0.39963 0,0.26183 -0.01378,0.41341 h -7.689477 v -1.44694 h 5.842899 q 0,-1.3367 -0.730361,-2.0395 -0.730363,-0.70281 -1.846577,-0.70281 -1.364263,0 -2.135965,0.96463 -0.757923,0.96463 -0.757923,3.01792 0,1.91548 0.923287,2.83876 0.93707,0.92329 2.384012,0.92329 0.992193,0 1.956822,-0.22048 0.964631,-0.23427 1.91548,-0.81305 l 0.206706,1.70877 q -1.102435,0.565 -2.135966,0.78549 -1.019752,0.23427 -2.204868,0.23427 z"
             id="path20408"
             style="font-size:106.667px;line-height:1.25;font-family:Harmattan;-inkscape-font-specification:'Harmattan, Normal';white-space:pre;fill:#000000;fill-opacity:1;stroke-width:0.849763;stroke-miterlimit:4;stroke-dasharray:none" />
          <path
             d="m 94.395987,153.92743 q -1.254019,0 -2.315112,-0.34452 -1.061093,-0.35829 -1.66743,-0.82682 l 0.523655,-1.86036 q 0.68902,0.6339 1.681213,1.01975 1.00597,0.37207 1.832795,0.37207 0.895728,0 1.474507,-0.42719 0.592558,-0.42719 0.592558,-0.96463 0,-0.57878 -0.564999,-1.03353 -0.551217,-0.45475 -2.28755,-0.88195 -1.874137,-0.45475 -2.466695,-1.21268 -0.578778,-0.7717 -0.578778,-1.73633 0,-0.35829 0.179146,-0.86817 0.192924,-0.52365 0.6339,-1.03353 0.440973,-0.50987 1.212675,-0.85438 0.785484,-0.34451 1.956821,-0.34451 1.129996,0 1.943039,0.2756 0.826826,0.26183 1.364263,0.55122 l -0.35829,1.81902 q -0.523656,-0.31695 -1.30914,-0.64768 -0.785485,-0.34451 -1.750116,-0.34451 -1.129993,0 -1.570969,0.44097 -0.440973,0.44097 -0.440973,0.90951 0,0.35829 0.165365,0.62012 0.179147,0.24805 0.702802,0.46853 0.537438,0.20671 1.61231,0.45476 1.405604,0.31695 2.411574,1.01975 1.005972,0.7028 1.005972,2.13596 0,0.92329 -0.537437,1.68122 -0.523656,0.74414 -1.433164,1.18511 -0.895728,0.4272 -2.011942,0.4272 z"
             id="path20410"
             style="font-size:106.667px;line-height:1.25;font-family:Harmattan;-inkscape-font-specification:'Harmattan, Normal';white-space:pre;fill:#000000;fill-opacity:1;stroke-width:0.849763;stroke-miterlimit:4;stroke-dasharray:none" />
        </g>
      </g>
      <g
         id="g20696"
         transform="matrix(1.1622084,0,0,1.1622084,-32.395808,-25.245661)"
         style="fill:#000000;fill-opacity:1;stroke:none;stroke-width:0.860431;stroke-miterlimit:4;stroke-dasharray:none"
         inkscape:label="Arabic"
         inkscape:groupmode="layer">
        <g
           id="g20634"
           style="fill:#000000;fill-opacity:1;stroke:none;stroke-width:0.860431;stroke-miterlimit:4;stroke-dasharray:none"
           inkscape:export-filename="logo_text_long_transparent_black.png"
           inkscape:export-xdpi="174.07466"
           inkscape:export-ydpi="174.07466">
          <path
             d="m 357.96038,153.99633 q -1.41938,-0.13781 -3.38997,-0.16537 -1.95684,-0.0138 -4.96097,-0.0138 h -0.27559 v -1.86036 h 0.27559 q 0.86818,0 1.55721,0.0138 0.70278,0 1.55718,0.0414 0.85439,0.0276 2.16352,0.11024 -1.4745,-0.81305 -2.3151,-1.50207 -0.84061,-0.7028 -1.18512,-1.39182 -0.33073,-0.7028 -0.33073,-1.50207 0,-0.86816 0.48231,-1.68121 0.4823,-0.81304 1.41938,-1.3367 0.95086,-0.53744 2.32889,-0.53744 1.17133,0 2.2462,0.55122 1.07487,0.53744 1.61232,1.28158 -0.22048,0.42719 -0.56499,0.79927 -0.33073,0.35829 -0.85439,0.56499 -0.63389,-0.64768 -1.25402,-0.97841 -0.62013,-0.33073 -1.39181,-0.33073 -0.92329,0 -1.43317,0.50988 -0.50988,0.49609 -0.50988,1.12999 0,0.82683 0.81304,1.52963 0.81303,0.7028 2.21866,1.39182 1.4056,0.68902 3.15571,1.46073 -0.26183,0.64768 -0.62013,1.12999 -0.34451,0.46854 -0.74414,0.78549 z m -2.76987,-10.9141 q -0.77168,-0.565 -1.28156,-1.01975 -0.50988,-0.45475 -0.60635,-0.66146 l 1.41939,-1.7639 2.08084,1.65366 q -1.21267,1.66743 -1.61232,1.79145 z"
             id="path20412"
             style="font-size:106.667px;line-height:1.25;font-family:Harmattan;-inkscape-font-specification:'Harmattan, Normal';white-space:pre;fill:#000000;fill-opacity:1;stroke:none;stroke-width:0.860431;stroke-miterlimit:4;stroke-dasharray:none" />
          <path
             d="m 344.33156,153.81718 v -1.86036 h 5.55353 v 1.86036 z"
             id="path20414"
             style="font-size:106.667px;line-height:1.25;font-family:Harmattan;-inkscape-font-specification:'Harmattan, Normal';white-space:pre;fill:#000000;fill-opacity:1;stroke:none;stroke-width:0.860431;stroke-miterlimit:4;stroke-dasharray:none" />
          <path
             d="m 339.3293,153.81718 v -1.86036 h 5.55349 v 1.86036 z"
             id="path20416"
             style="font-size:106.667px;line-height:1.25;font-family:Harmattan;-inkscape-font-specification:'Harmattan, Normal';white-space:pre;fill:#000000;fill-opacity:1;stroke:none;stroke-width:0.860431;stroke-miterlimit:4;stroke-dasharray:none" />
          <path
             d="m 334.32698,153.81718 v -1.86036 h 5.5535 v 1.86036 z"
             id="path20418"
             style="font-size:106.667px;line-height:1.25;font-family:Harmattan;-inkscape-font-specification:'Harmattan, Normal';white-space:pre;fill:#000000;fill-opacity:1;stroke:none;stroke-width:0.860431;stroke-miterlimit:4;stroke-dasharray:none" />
          <path
             d="m 329.32469,153.81718 v -1.86036 h 5.55352 v 1.86036 z"
             id="path20420"
             style="font-size:106.667px;line-height:1.25;font-family:Harmattan;-inkscape-font-specification:'Harmattan, Normal';white-space:pre;fill:#000000;fill-opacity:1;stroke:none;stroke-width:0.860431;stroke-miterlimit:4;stroke-dasharray:none" />
          <path
             d="m 324.32239,153.81718 v -1.86036 h 5.5535 v 1.86036 z"
             id="path20422"
             style="font-size:106.667px;line-height:1.25;font-family:Harmattan;-inkscape-font-specification:'Harmattan, Normal';white-space:pre;fill:#000000;fill-opacity:1;stroke:none;stroke-width:0.860431;stroke-miterlimit:4;stroke-dasharray:none" />
          <path
             d="m 312.36098,153.95498 q -1.12998,0 -1.91548,-0.55121 -0.77171,-0.55122 -1.28159,-1.47451 -0.37206,0.85439 -1.28156,1.37805 -0.89575,0.50987 -1.95683,0.50987 h -0.28938 v -1.86036 h 0.28938 q 0.48231,0 1.01976,-0.2756 0.5512,-0.27561 0.92329,-0.88195 0.38584,-0.62012 0.38584,-1.61231 l -0.17915,-0.89573 q 0.42719,-0.15158 0.88196,-0.26183 0.45474,-0.12402 1.00597,-0.17914 0.17915,1.07487 0.48231,2.05328 0.30316,0.96463 0.79925,1.58475 0.50988,0.60634 1.25402,0.60634 1.11623,0 1.54342,-0.84061 0.4272,-0.8406 0.4272,-1.84657 0,-0.12403 0,-0.23427 0,-0.12403 -0.0138,-0.24805 l -0.19293,-0.93707 q 0.9095,-0.38585 1.88793,-0.45475 0.22048,1.14377 0.48231,2.16352 0.27562,1.00598 0.71657,1.63988 0.44098,0.62011 1.1438,0.62011 0.74414,0 1.18509,-0.7028 0.44098,-0.71658 0.44098,-1.92926 0,-0.15158 0,-0.31695 0,-0.16536 -0.0276,-0.35829 l -0.19291,-0.96463 q 0.31695,-0.16536 0.84061,-0.31695 0.52364,-0.15158 1.01973,-0.16536 0.41341,2.32889 1.06111,3.54157 0.64768,1.21267 1.77766,1.21267 h 0.27562 v 1.86036 h -0.27562 q -1.29535,0 -2.13595,-0.59256 -0.82683,-0.60633 -1.33671,-1.36426 -0.35829,0.92329 -1.10244,1.44695 -0.73035,0.50987 -1.70875,0.50987 -1.7639,0 -2.82499,-1.69499 -0.53744,0.88195 -1.30915,1.36426 -0.75793,0.46853 -1.81902,0.46853 z"
             id="path20424"
             style="font-size:106.667px;line-height:1.25;font-family:Harmattan;-inkscape-font-specification:'Harmattan, Normal';white-space:pre;fill:#000000;fill-opacity:1;stroke:none;stroke-width:0.860431;stroke-miterlimit:4;stroke-dasharray:none" />
          <path
             d="m 312.12672,141.84199 q 0,-0.30317 0.0551,-0.71658 0.0689,-0.41341 0.12401,-0.55122 0.81306,-0.0551 1.54342,-0.12402 0.73035,-0.0689 1.57096,-0.19293 0.84061,-0.1378 1.99816,-0.35829 0,0.30317 -0.0965,0.60634 -0.0827,0.30317 -0.15158,0.46854 -1.3367,0.30316 -2.19109,0.46853 -0.85439,0.16536 -1.50207,0.24805 -0.63389,0.0827 -1.35048,0.15158 z m 0.90953,4.91961 q -0.77171,0 -1.13001,-0.49609 -0.3583,-0.50988 -0.3583,-1.25402 0,-0.86817 0.39965,-1.79146 0.34449,-0.0965 0.67522,-0.0965 0.24805,0 0.4272,0.0413 -0.1378,0.41342 -0.26184,0.88195 -0.11022,0.45475 -0.11022,0.82683 0,0.33073 0.11022,0.55121 0.12404,0.20671 0.39966,0.20671 0.38584,0 0.73035,-0.66146 0.34452,-0.67524 0.33073,-2.30133 0.19294,-0.0965 0.45477,-0.15159 0.2618,-0.0551 0.63389,-0.0551 0,1.29536 0.17915,1.9017 0.1929,0.60634 0.68902,0.60634 0.34449,0 0.48231,-0.31695 0.15158,-0.33073 0.15158,-0.7717 0,-0.92329 -0.39962,-1.58475 0.15158,-0.15159 0.44095,-0.28939 0.2894,-0.15159 0.55123,-0.17915 0.53743,0.96463 0.53743,2.06707 0,0.89572 -0.45474,1.55718 -0.44098,0.66146 -1.37806,0.66146 -0.4272,0 -0.78547,-0.22048 -0.3583,-0.23427 -0.50988,-0.55122 -0.13779,0.52366 -0.59256,0.97841 -0.45476,0.44097 -1.21266,0.44097 z"
             id="path20426"
             style="font-size:106.667px;line-height:1.25;font-family:Harmattan;-inkscape-font-specification:'Harmattan, Normal';white-space:pre;fill:#000000;fill-opacity:1;stroke:none;stroke-width:0.860431;stroke-miterlimit:4;stroke-dasharray:none" />
          <path
             d="m 300.64764,153.81718 v -1.86036 h 5.55349 v 1.86036 z"
             id="path20428"
             style="font-size:106.667px;line-height:1.25;font-family:Harmattan;-inkscape-font-specification:'Harmattan, Normal';white-space:pre;fill:#000000;fill-opacity:1;stroke:none;stroke-width:0.860431;stroke-miterlimit:4;stroke-dasharray:none" />
          <path
             d="m 300.9232,153.81718 q -1.68122,0 -2.64583,-0.50987 -0.95086,-0.50988 -1.36427,-1.30914 -0.39963,-0.81305 -0.46853,-1.695 -0.0551,-0.7717 -0.0965,-1.95682 -0.0413,-1.19889 -0.0827,-2.5356 -0.0276,-1.35048 -0.0551,-2.6045 -0.0276,-1.25401 -0.0551,-2.16352 -0.0138,-0.90951 -0.0413,-1.21268 0.16537,-0.33073 0.57878,-0.565 0.42719,-0.24804 0.89572,-0.39963 0.48231,-0.15158 0.78549,-0.19293 0.0413,0.24805 0.0551,0.77171 0.0138,0.50987 0.0138,0.78548 0,1.13 -0.0276,2.71475 -0.0137,1.57096 -0.0413,3.19705 -0.0276,1.61231 -0.0276,2.90767 0,1.04732 0.15158,1.695 0.15158,0.6339 0.68903,0.92328 0.5512,0.28939 1.73632,0.28939 h 0.27562 v 1.86036 z"
             id="path20430"
             style="font-size:106.667px;line-height:1.25;font-family:Harmattan;-inkscape-font-specification:'Harmattan, Normal';white-space:pre;fill:#000000;fill-opacity:1;stroke:none;stroke-width:0.860431;stroke-miterlimit:4;stroke-dasharray:none" />
          <path
             d="m 286.60538,161.28617 q -1.75011,0 -3.32108,-0.71658 -1.55718,-0.7028 -2.53561,-2.14975 -0.96461,-1.44694 -0.96461,-3.63803 0,-1.62609 0.73035,-3.26596 0.73036,-1.65365 2.27378,-2.94901 0.56499,0.20671 0.9784,0.82683 -0.9784,1.08865 -1.46071,2.37023 -0.48234,1.28158 -0.48234,2.50803 0,1.35049 0.56502,2.50804 0.56499,1.15756 1.66743,1.84658 1.10244,0.7028 2.68719,0.7028 1.8328,0 2.97656,-0.79926 1.14377,-0.78549 1.66743,-2.16353 0.53745,-1.36426 0.53745,-3.08682 0,-2.50803 -0.97843,-5.33302 0.55124,-0.46853 1.32292,-0.50988 0.89575,1.40561 1.32294,2.93524 0.44096,1.51584 0.44096,2.99035 0,2.21865 -0.82683,4.0101 -0.82682,1.80524 -2.48047,2.85255 -1.63988,1.06109 -4.12035,1.06109 z m 0.64767,-13.7253 q -0.77168,-0.565 -1.28156,-1.01975 -0.50988,-0.45476 -0.60635,-0.66146 l 1.41939,-1.7639 2.08084,1.65365 q -1.21266,1.66743 -1.61232,1.79146 z"
             id="path20432"
             style="font-size:106.667px;line-height:1.25;font-family:Harmattan;-inkscape-font-specification:'Harmattan, Normal';white-space:pre;fill:#000000;fill-opacity:1;stroke:none;stroke-width:0.860431;stroke-miterlimit:4;stroke-dasharray:none" />
        </g>
        <g
           id="g20655"
           style="fill:#000000;fill-opacity:1;stroke:none;stroke-width:0.860431;stroke-miterlimit:4;stroke-dasharray:none"
           inkscape:export-filename="logo_text_long_transparent_black.png"
           inkscape:export-xdpi="174.07466"
           inkscape:export-ydpi="174.07466">
          <path
             d="m 266.54105,153.81718 v -1.86036 h 0.41343 q 1.46072,0 1.99816,-0.55121 0.53743,-0.55122 0.53743,-1.48829 0,-0.52365 -0.12402,-1.14377 -0.12403,-0.6339 -0.27561,-1.37805 0.30316,-0.15158 0.85439,-0.31695 0.55121,-0.17914 0.95083,-0.19292 0.59256,1.69499 0.59256,3.08681 0,1.80524 -1.11619,2.82499 -1.11623,1.01975 -3.41755,1.01975 z m 4.02388,4.24437 q -0.73035,-0.52365 -1.22644,-0.96463 -0.48231,-0.44097 -0.565,-0.6339 l 1.48829,-1.66743 1.97059,1.57097 q -0.565,0.7717 -1.0473,1.1989 -0.46856,0.44097 -0.62014,0.49609 z m -2.96277,0.23427 q -0.73036,-0.52366 -1.21269,-0.96463 -0.48231,-0.42719 -0.57878,-0.6339 l 1.48828,-1.66743 1.97062,1.58475 q -0.56499,0.7717 -1.04733,1.19889 -0.46852,0.44098 -0.6201,0.48232 z"
             id="path20434"
             style="font-size:106.667px;line-height:1.25;font-family:Harmattan;-inkscape-font-specification:'Harmattan, Normal';white-space:pre;fill:#000000;fill-opacity:1;stroke:none;stroke-width:0.860431;stroke-miterlimit:4;stroke-dasharray:none" />
          <path
             d="m 261.53878,153.81718 v -1.86036 h 5.5535 v 1.86036 z"
             id="path20436"
             style="font-size:106.667px;line-height:1.25;font-family:Harmattan;-inkscape-font-specification:'Harmattan, Normal';white-space:pre;fill:#000000;fill-opacity:1;stroke:none;stroke-width:0.860431;stroke-miterlimit:4;stroke-dasharray:none" />
          <path
             d="m 256.53649,153.81718 v -1.86036 h 5.55352 v 1.86036 z"
             id="path20438"
             style="font-size:106.667px;line-height:1.25;font-family:Harmattan;-inkscape-font-specification:'Harmattan, Normal';white-space:pre;fill:#000000;fill-opacity:1;stroke:none;stroke-width:0.860431;stroke-miterlimit:4;stroke-dasharray:none" />
          <path
             d="m 251.5342,153.81718 v -1.86036 h 5.5535 v 1.86036 z"
             id="path20440"
             style="font-size:106.667px;line-height:1.25;font-family:Harmattan;-inkscape-font-specification:'Harmattan, Normal';white-space:pre;fill:#000000;fill-opacity:1;stroke:none;stroke-width:0.860431;stroke-miterlimit:4;stroke-dasharray:none" />
          <path
             d="m 241.43315,162.85714 q -0.34452,-0.26183 -0.63389,-0.78548 -0.2894,-0.52366 -0.39963,-1.04732 3.8585,-0.88194 6.14606,-3.01791 2.30132,-2.12219 2.30132,-5.60863 0,-1.10244 -0.24805,-2.02572 -0.23426,-0.92329 -0.81304,-1.48829 -0.56499,-0.565 -1.55717,-0.565 -1.00598,0 -1.57097,0.67524 -0.56502,0.66146 -0.56502,1.47451 0,0.78548 0.59256,1.43316 0.60635,0.64768 1.92927,0.64768 1.11622,0 2.65962,-0.57878 l -0.16537,2.03951 q -0.71657,0.2067 -1.36424,0.28939 -0.6477,0.0965 -1.2127,0.0965 -1.48828,0 -2.45289,-0.55122 -0.95086,-0.55121 -1.41939,-1.41938 -0.45476,-0.86817 -0.45476,-1.8328 0,-1.01975 0.48231,-1.9706 0.49609,-0.95085 1.43316,-1.55719 0.95086,-0.62012 2.30132,-0.62012 1.90172,0 3.1006,1.48829 1.19891,1.47451 1.19891,4.51998 0,2.28755 -1.10244,4.38218 -1.10244,2.1084 -3.18328,3.69315 -2.06706,1.58475 -5.00229,2.32889 z m 9.06753,-8.99862 -0.0689,-1.84657 q 0.41341,-0.0276 0.6477,-0.0414 0.24804,-0.0138 0.59256,-0.0138 h 0.41341 v 1.86036 h -0.41341 q -0.50988,0 -0.74417,0 -0.23426,0.0138 -0.42717,0.0413 z"
             id="path20442"
             style="font-size:106.667px;line-height:1.25;font-family:Harmattan;-inkscape-font-specification:'Harmattan, Normal';white-space:pre;fill:#000000;fill-opacity:1;stroke:none;stroke-width:0.860431;stroke-miterlimit:4;stroke-dasharray:none" />
          <path
             d="m 235.24571,153.81718 v -1.86036 h 0.41341 q 1.46074,0 1.99816,-0.55121 0.53745,-0.55122 0.53745,-1.48829 0,-0.52365 -0.12401,-1.14377 -0.12404,-0.6339 -0.27562,-1.37805 0.30316,-0.15158 0.85439,-0.31695 0.55121,-0.17914 0.95083,-0.19292 0.59257,1.69499 0.59257,3.08681 0,1.80524 -1.11623,2.82499 -1.1162,1.01975 -3.41754,1.01975 z m 2.83876,-7.96508 q -0.77168,-0.565 -1.28156,-1.01976 -0.50988,-0.45475 -0.60634,-0.66146 l 1.41938,-1.76389 2.08084,1.65365 q -1.21266,1.66743 -1.61232,1.79146 z"
             id="path20444"
             style="font-size:106.667px;line-height:1.25;font-family:Harmattan;-inkscape-font-specification:'Harmattan, Normal';white-space:pre;fill:#000000;fill-opacity:1;stroke:none;stroke-width:0.860431;stroke-miterlimit:4;stroke-dasharray:none" />
          <path
             d="m 230.24344,153.81718 v -1.86036 h 5.5535 v 1.86036 z"
             id="path20446"
             style="font-size:106.667px;line-height:1.25;font-family:Harmattan;-inkscape-font-specification:'Harmattan, Normal';white-space:pre;fill:#000000;fill-opacity:1;stroke:none;stroke-width:0.860431;stroke-miterlimit:4;stroke-dasharray:none" />
          <path
             d="m 225.24115,153.81718 v -1.86036 h 5.55352 v 1.86036 z"
             id="path20448"
             style="font-size:106.667px;line-height:1.25;font-family:Harmattan;-inkscape-font-specification:'Harmattan, Normal';white-space:pre;fill:#000000;fill-opacity:1;stroke:none;stroke-width:0.860431;stroke-miterlimit:4;stroke-dasharray:none" />
          <path
             d="m 205.24574,161.46532 q -1.77768,0 -2.92145,-0.68902 -1.14377,-0.67525 -1.695,-1.79146 -0.53742,-1.10243 -0.53742,-2.38401 0,-1.21268 0.45474,-2.43914 0.45476,-1.22645 1.29537,-2.23243 0.30316,0.0965 0.55121,0.30317 0.24804,0.19293 0.46852,0.46854 -1.00597,1.41938 -1.00597,3.27974 0,1.50206 0.84061,2.56316 0.85439,1.07487 2.68719,1.07487 1.41938,0 2.30134,-0.7028 0.88194,-0.7028 1.29535,-1.92926 0.41341,-1.21268 0.41341,-2.75609 0,-1.68121 -0.26183,-3.3073 -0.26183,-1.62609 -0.41341,-2.63206 0.85439,-0.33073 1.88793,-0.44097 0.56499,2.13596 1.17134,3.12815 0.60632,0.97841 1.63986,0.97841 0.95086,0 1.35048,-0.7028 0.41342,-0.71658 0.41342,-1.55719 0,-0.19292 -0.0276,-0.37207 -0.0276,-0.19292 -0.0551,-0.39963 l -0.19293,-0.93707 q 0.39963,-0.17914 0.86818,-0.30317 0.48231,-0.12402 1.01975,-0.15158 0.22048,1.14377 0.48231,2.16352 0.27559,1.00598 0.71657,1.63988 0.44099,0.62011 1.14377,0.62011 0.62013,0 0.97843,-0.38585 0.37206,-0.39963 0.53742,-0.97841 0.16537,-0.59256 0.16537,-1.15755 0,-0.30317 -0.0138,-0.41342 -0.0138,-0.11024 -0.0689,-0.37207 l -0.1929,-0.96463 q 0.39962,-0.16536 0.88193,-0.28939 0.48231,-0.1378 0.97841,-0.19292 0.8406,4.75424 3.11438,4.75424 h 0.27562 v 1.86036 h -0.27562 q -1.25402,0 -2.13596,-0.60634 -0.88196,-0.60634 -1.44695,-1.4745 -0.38584,0.92329 -1.12998,1.50206 -0.74417,0.57878 -1.84658,0.57878 -1.8328,0 -2.81123,-1.77767 -0.38584,0.7717 -1.14376,1.35048 -0.75793,0.56499 -1.72255,0.56499 -0.63391,0 -1.18512,-0.2067 -0.55123,-0.20671 -0.99219,-0.565 0.0275,0.38585 0.0275,0.7717 0,0.39964 0,0.63391 0,3.27974 -1.62608,5.07119 -1.6261,1.80524 -4.25815,1.80524 z"
             id="path20450"
             style="font-size:106.667px;line-height:1.25;font-family:Harmattan;-inkscape-font-specification:'Harmattan, Normal';white-space:pre;fill:#000000;fill-opacity:1;stroke:none;stroke-width:0.860431;stroke-miterlimit:4;stroke-dasharray:none" />
        </g>
      </g>
    </g>
  </g>
  <g
     id="g25977"
     inkscape:label="small_symbol"
     transform="matrix(0.23147898,0,0,0.23147898,204.80899,-1.496135)"
     inkscape:export-filename="C:\Users\ghass\Documents\logo_text_long_transparent_white.png"
     inkscape:export-xdpi="174.07466"
     inkscape:export-ydpi="174.07466"
     style="display:inline;fill:#000000;fill-opacity:1"
     inkscape:groupmode="layer">
    <path
       style="color:#000000;fill:#000000;fill-opacity:1;-inkscape-stroke:none"
       d="M 115.35288,24.050495 C 60.098089,39.27265 19.384766,89.979769 19.384766,150 c 0,72.01049 58.604743,130.61523 130.615234,130.61523 72.01049,0 130.61523,-58.60474 130.61523,-130.61523 0,-60.057063 -40.7633,-110.789581 -96.06985,-125.977489 l -0.0691,22.108703 C 228.05261,60.529986 259.38477,101.5156 259.38477,150 259.38477,210.53772 210.53772,259.38477 150,259.38477 89.462284,259.38477 40.615234,210.53772 40.615234,150 c 0,-48.40741 31.232732,-89.339826 74.700936,-103.79999 z"
       id="circle25804"
       sodipodi:nodetypes="csssccssscc"
       inkscape:label="circle"
       inkscape:export-filename="logo_simple_small_transparent_white.png"
       inkscape:export-xdpi="174.07466"
       inkscape:export-ydpi="174.07466" />
    <path
       d="m 155.14779,44.013498 c -6.53526,-3.143194 -12.01827,-6.056765 -16.44899,-8.740714 -4.43075,-2.68396 -7.14881,-4.729604 -8.15419,-6.13696 L 142.75214,6.4633731 169.45539,20.632105 c -3.60567,11.215933 -11.50021,21.903393 -14.3076,23.381393 z"
       style="font-size:400px;line-height:1.25;font-family:Harmattan;-inkscape-font-specification:'Harmattan, Normal';white-space:pre;display:inline;fill:#000000;fill-opacity:1;stroke-width:0.212317"
       id="path25969"
       inkscape:label="nuqta"
       inkscape:export-filename="logo_simple_small_transparent_white.png"
       inkscape:export-xdpi="174.07466"
       inkscape:export-ydpi="174.07466" />
    <path
       d="m 201.21501,237.1854 c -3.41972,2.6819 -7.30701,4.19403 -11.23709,5.34925 -3.91101,1.25791 -8.58886,2.3926 -14.03349,3.40404 -15.20391,2.82444 -28.64987,2.24032 -40.33783,-1.75232 -11.66887,-3.88994 -21.14531,-9.99382 -28.42932,-18.31161 -7.264912,-8.21509 -11.85158,-17.45909 -13.759966,-27.73199 -2.194641,-11.81384 -0.451441,-23.88108 5.230707,-36.20168 5.681789,-12.32057 16.071629,-22.75261 31.169589,-31.29614 -6.85527,-3.72141 -12.19451,-8.14955 -16.01782,-13.28438 -3.72057,-5.15388 -6.01023,-10.04227 -6.86899,-14.66508 -1.60306,-8.629251 -0.75892,-16.384681 2.53248,-23.266281 3.29144,-6.881641 8.18545,-12.573157 14.68219,-17.074562 6.47763,-4.604131 13.67151,-7.640919 21.58164,-9.110377 8.11557,-1.507626 16.46242,-1.198411 25.0405,0.927657 8.5781,2.126056 16.29556,6.484324 23.15238,13.074853 -0.94931,3.470845 -2.60457,6.860309 -4.96573,10.168329 -2.25841,3.28897 -5.20589,6.01511 -8.84241,8.17849 -9.85668,-9.008877 -20.38379,-12.473233 -31.58127,-10.393086 -7.29377,1.35495 -12.5167,4.131876 -15.66879,8.330766 -3.04942,4.17981 -4.12566,8.68385 -3.22872,13.51213 1.12595,6.061011 5.64196,11.492271 13.54806,16.293721 7.90606,4.80149 19.78101,6.36822 35.62485,4.70024 1.46945,7.91012 0.21438,15.74188 -3.76529,23.49529 -7.00183,-0.50596 -13.53327,-0.19595 -19.59427,0.92998 -8.73196,1.62213 -16.37858,4.79619 -22.93983,9.52215 -6.56127,4.72591 -11.43625,10.52016 -14.62492,17.3827 -3.08594,6.84346 -3.88464,14.27161 -2.39609,22.28448 1.24045,6.67742 4.3946,12.78675 9.46242,18.32803 5.0869,5.644 12.01847,9.77635 20.79471,12.39695 8.77623,2.6206 19.32808,2.78589 31.65559,0.49582 3.9364,-0.73127 8.09683,-1.82444 10.80171,-3.70197 2.70491,-1.87752 -0.0875,-22.34854 -2.0786,-23.08452 -1.8777,-0.69407 -5.02031,-0.18371 -7.05751,0.28229 -2.03719,0.46593 -4.10883,0.98235 -6.21494,1.54884 -2.67575,0.71972 -5.40713,1.52043 -8.19417,2.40223 -2.78705,0.88181 -5.62973,1.84464 -8.5281,2.88855 -0.33398,-1.79779 -0.48725,-3.69553 -0.45982,-5.69327 0.16932,-3.7969 0.83642,-7.24679 1.79818,-9.96948 0.6981,-1.96289 1.5813,-3.7875 2.64962,-5.47379 2.03912,-0.75077 4.05976,-1.45826 6.06187,-2.12244 2.00209,-0.66417 3.98565,-1.28507 5.9507,-1.86267 1.9555,-0.62896 4.10273,-1.2271 6.44164,-1.79444 2.33892,-0.56737 4.86953,-1.10388 7.59184,-1.6096 8.05811,-1.16092 12.11864,1.69651 13.58797,4.81589 0.65807,1.39701 6.30748,27.98576 7.26052,35.33762 0.49233,3.79796 0.77414,7.61909 0.0575,12.05633 -0.71668,4.43724 -2.71015,7.82923 -5.85168,10.29307 z"
       id="path25971"
       style="font-size:400px;line-height:1.25;font-family:Harmattan;-inkscape-font-specification:'Harmattan, Normal';white-space:pre;display:inline;fill:#000000;fill-opacity:1;stroke-width:0.802457"
       sodipodi:nodetypes="scsccssccsscsscccscssccsscscsscssssccccscscsscss"
       inkscape:label="base"
       inkscape:export-filename="logo_simple_small_transparent_white.png"
       inkscape:export-xdpi="174.07466"
       inkscape:export-ydpi="174.07466" />
  </g>
</svg>
