<?xml version="1.0" encoding="utf-8"?>
<!-- Generator: Adobe Illustrator 19.0.0, SVG Export Plug-In . SVG Version: 6.00 Build 0)  -->
<svg version="1.1" id="Layer_1" xmlns="http://www.w3.org/2000/svg" xmlns:xlink="http://www.w3.org/1999/xlink" x="0px" y="0px"
	 width="1280px" height="800px" viewBox="0 0 1280 800" style="enable-background:new 0 0 1280 800;" xml:space="preserve">
<style type="text/css">
	.st0{display:none;}
	.st1{display:inline;fill:none;}
	.st2{display:inline;opacity:0.83;enable-background:new    ;}
	.st3{font-family:'MyriadPro-Regular';}
	.st4{font-size:299.9536px;}
	.st5{letter-spacing:63;}
	.st6{letter-spacing:57;}
	.st7{letter-spacing:51;}
	.st8{letter-spacing:61;}
	.st9{letter-spacing:4;}
	.st10{letter-spacing:25;}
	.st11{fill:none;}
	.st12{fill:#FFFFFF;}
	.st13{fill:none;stroke:#FFFFFF;stroke-width:20;stroke-miterlimit:10;}
</style>
<g id="Letter" class="st0">
	<rect id="XMLID_33_" y="136.2" class="st1" width="1280" height="679.5"/>
	<text transform="matrix(0.9209 -0.3897 0.3897 0.9209 113.7979 378.5153)" class="st2 st3 st4">D</text>
	<text transform="matrix(0.9209 -0.3897 0.3897 0.9209 316.1197 336.0056)" class="st2 st3 st4 st5">i</text>
	<text transform="matrix(0.9209 -0.3897 0.3897 0.9209 460.9173 325.1121)" class="st2 st3 st4 st6">g</text>
	<text transform="matrix(0.9209 -0.3897 0.3897 0.9209 740.554 353.6887)" class="st2 st3 st4">i</text>
	<text transform="matrix(0.9209 -0.3897 0.3897 0.9209 820.8076 336.0132)" class="st2 st3 st4 st7">t</text>
	<text transform="matrix(0.9209 -0.3897 0.3897 0.9209 982.3666 326.4982)" class="st2 st3 st4 st8">a</text>
	<text transform="matrix(0.9209 -0.3897 0.3897 0.9209 1193.0354 348.1015)" class="st2 st3 st4 st9">l</text>
	<text transform="matrix(0.9209 -0.3897 0.3897 0.9209 1272.0476 349.3027)" class="st2 st3 st4"> </text>
	<text transform="matrix(0.9209 -0.3897 0.3897 0.9209 414.373 729.8373)" class="st2 st3 st4">B</text>
	<text transform="matrix(0.9209 -0.3897 0.3897 0.9209 578.7276 700.2452)" class="st2 st3 st4 st10">a</text>
	<text transform="matrix(0.9209 -0.3897 0.3897 0.9209 759.5797 689.6215)" class="st2 st3 st4 st8">y</text>
</g>
<g>
	<path class="st11" d="M620.8,534.9c-1.3,11.2,5.6,17.3,14.6,18.3c12.5,1.4,21.3-5.6,25-13.3c0.8-1.7,1.4-3.6,1.6-5.4l1.9-16.4
		C644.9,515.6,622.9,516.5,620.8,534.9z"/>
	<path class="st11" d="M602.1,292l4.3-16.6c0.7-2.9,1.2-5.4,1-7.9c-0.6-10.5-6.9-20.7-19.3-23.7c-16.3-4-31.3,6.7-36.8,28.1
		c-4.6,18.2,0.8,35.6,19.2,40.2c10.5,2.6,21.6-1.5,28-11.4C600.3,298.1,601.4,294.9,602.1,292z"/>
	<path class="st11" d="M492,507.7l17.9,47.7c3.4-0.6,8.1-2.1,13.9-4.3c16.9-6.2,30.1-18,23.3-36.1c-6.4-17-23.8-18.7-41.6-12.2
		L492,507.7z"/>
	<path class="st11" d="M487.6,495.5l14.8-5.4c17.2-6.3,24-18.9,19.5-30.9c-5.5-14.6-18.8-16.3-35.3-10.2c-7.5,2.7-11.6,4.9-14,6.4
		L487.6,495.5z"/>
	<path class="st11" d="M325.2,316.5c34.2-14.3,44.7-41,30.5-74.1c-12.2-29-36.6-40.4-70.4-26.3c-8.3,3.5-14.2,6.8-18.1,9.5
		l41.4,96.8C313,321.4,318.9,319.2,325.2,316.5z"/>
	<path class="st11" d="M904.5,313.5c12.2,3.2,21.9-2.4,26.7-9.5c1-1.6,1.9-3.4,2.4-5.1l4.3-16.1c-18.4-5.3-40.3-7.6-45.1,10.4
		C889.9,304.1,895.8,311.2,904.5,313.5z"/>
	<path class="st12" d="M327.5,330.6c24-10.1,40.5-24.3,47.2-40.6c6.7-16.1,6-35.1-2.6-55.1c-8.5-19.8-21-31.3-36.3-36.7
		c-15.1-5.5-33.7-3.9-56.7,5.7c-12.7,5.3-23.8,11.3-32.9,16.8l51.6,120.6C306.3,338.8,316.1,335.4,327.5,330.6z M285.3,216.1
		c33.8-14.1,58.2-2.7,70.4,26.3c14.2,33.1,3.7,59.8-30.5,74.1c-6.3,2.7-12.2,4.9-16.6,5.9l-41.4-96.8
		C271.1,222.9,277,219.6,285.3,216.1z"/>
	<polygon class="st12" points="474.6,235.3 457.6,230.8 432.7,323.2 449.7,327.7 	"/>
	<path class="st12" d="M469.9,217.4c6.8,1.7,12.2-1.7,13.6-7.5c1.6-5.9-1.2-11.6-7.6-13.2c-6.1-1.6-11.8,1.8-13.4,7.7
		C460.9,210.1,463.9,215.8,469.9,217.4z"/>
	<path class="st12" d="M551.4,363.9c11.8,3,25.7,3.6,36.9-2.6c11.1-5.8,18.7-17.7,24.1-39l13.7-53.8c2.9-11.3,5.2-18.7,7.3-25.3
		l-15.2-3.7l-4.3,13.8l-0.4-0.1c-2.1-8.7-8.8-19.4-25.1-23.4c-21.5-5.4-46.7,7.3-54.7,38.7c-6.5,25.6,5.2,49.3,28.4,55.1
		c14.6,3.6,26.4-0.8,33.8-8.1l0.4,0.1l-2.6,10.3c-5.9,23.4-21,29.2-38.4,24.9c-11.6-2.9-20.4-8.7-25.6-14.1l-7.5,11.8
		C528.5,355.3,540.3,361.1,551.4,363.9z M570.5,312.1c-18.4-4.6-23.8-22-19.2-40.2c5.5-21.4,20.5-32.1,36.8-28.1
		c12.4,3,18.7,13.2,19.3,23.7c0.2,2.5-0.3,5-1,7.9l-4.3,16.6c-0.7,2.9-1.9,6.1-3.6,8.7C592.1,310.6,581,314.7,570.5,312.1z"/>
	<polygon class="st12" points="715.3,328.4 732.6,325.2 714.6,231.3 697.3,234.5 	"/>
	<path class="st12" d="M702.4,217c6.9-1.2,10.3-6.7,9-12.5c-1.1-6-6.1-9.9-12.7-8.7c-6.2,1.2-9.9,6.7-8.7,12.7
		C691.1,214.3,696.3,218.1,702.4,217z"/>
	<path class="st12" d="M779,293.9c-2.4,11-2.5,19.6,1.3,25.7c3.1,5.5,9,9.4,17,11.1c6.6,1.4,12.1,1.5,15.7,0.9l2-12.9
		c-2.3,0.1-5.7,0-10.2-1c-9.5-2-11.4-9.3-8.9-20.9l11-50.4l24.6,5.2l2.8-12.9l-24.6-5.2l5.8-26.8l-17.7,0.9l-4.9,22.4l-14.6-3.1
		l-2.8,12.9l14.6,3.1L779,293.9z"/>
	<path class="st12" d="M896.6,324.5c13.4,3.5,25.1-0.3,32.3-6.2l0.6,0.2l-1.8,12l15.4,4c0.5-6.6,2.2-14.5,4.4-22.5l9.3-34.5
		c5-18.6,3.2-39.7-25.3-47.2c-11.8-3.1-23.8-2.8-32.9,0.1l0.9,12.1c7.7-2.5,17.5-2.8,26.2-0.5c19,5.1,17.5,19.4,15.4,27l-0.5,1.9
		c-36-9.7-59.4-2.8-65.4,19.5C871.6,303.8,877.8,319.5,896.6,324.5z M892.8,293.2c4.8-18,26.7-15.7,45.1-10.4l-4.3,16.1
		c-0.5,1.7-1.4,3.5-2.4,5.1c-4.8,7.1-14.5,12.7-26.7,9.5C895.8,311.2,889.9,304.1,892.8,293.2z"/>
	<polygon class="st12" points="1038.7,188.2 1021,187.7 1016.8,327.9 1034.3,328.4 	"/>
	<path class="st12" d="M452.2,450.3L498,573.1c5.7-1.3,14.6-3.7,25.8-7.8c20.6-7.5,33.5-16.4,39.3-27.6c4-8.4,5.3-18.2,1.3-28.9
		c-6.9-18.5-24.6-23.2-37.7-21.8l-0.1-0.4c11.5-9.7,15.6-23.2,11.1-35.2c-3.6-9.8-10.3-15.8-18.7-18.2c-10.2-3.4-21.7-2.4-38,3.6
		C469.6,441,458.8,446.2,452.2,450.3z M547.1,515c6.8,18.1-6.4,29.9-23.3,36.1c-5.8,2.2-10.5,3.7-13.9,4.3L492,507.7l13.5-4.9
		C523.3,496.3,540.8,498,547.1,515z M521.9,459.2c4.5,12-2.3,24.6-19.5,30.9l-14.8,5.4l-15-40.1c2.4-1.5,6.5-3.7,14-6.4
		C503.1,442.9,516.4,444.6,521.9,459.2z"/>
	<path class="st12" d="M620,484c7.2-3.6,16.9-5.3,25.8-4.3c19.6,2.2,20.2,16.6,19.3,24.4l-0.2,2c-37.1-4.4-59.2,5.8-61.8,28.8
		c-1.6,13.8,6.8,28.4,26.2,30.6c13.7,1.6,24.8-3.9,31-10.8l0.6,0.1v12.1l15.8,1.8c-0.5-6.6,0.1-14.7,1-22.9l4.1-35.5
		c2.2-19.1-2.6-39.7-32-43c-12.1-1.4-24,0.7-32.5,4.9L620,484z M662,534.5c-0.2,1.8-0.8,3.7-1.6,5.4c-3.7,7.7-12.5,14.7-25,13.3
		c-9-1-15.9-7.1-14.6-18.3c2.1-18.4,24.1-19.3,43.1-16.8L662,534.5z"/>
	<path class="st12" d="M752.1,558.1c-0.2,0.9-1.1,2.2-2.3,3.7c-6,7.8-13.4,12.9-18.9,15.5c-6,3.1-12.3,4.5-16.9,4.8l0.9,15.2
		c4.5,0.3,13.5-0.7,23.6-6c14-7.3,26.3-21.7,46.2-50.7l41.5-60.3l-18.1-4.2l-31.7,50.2c-4,6.2-7.6,12.8-10.7,18l-0.4-0.1
		c-0.3-5.9-0.8-13.7-1.5-20.4l-7.4-59.8l-18.6-4.5l14.2,93.9C752.3,555.7,752.3,557.1,752.1,558.1z"/>
	<line class="st11" x1="1282.3" y1="612.3" x2="7" y2="612.3"/>
</g>
<line class="st13" x1="0" y1="643.6" x2="1280" y2="643.6"/>
<line class="st13" x1="2.4" y1="120.1" x2="1282.3" y2="120.1"/>
</svg>
