<svg id="Layer_1" data-name="Layer 1" xmlns="http://www.w3.org/2000/svg" width="1280" height="800" viewBox="0 0 1280 800"><defs><style>.cls-1{fill:#fff;}.cls-2{fill:#fedd9f;fill-opacity:0;}</style></defs><title>logo</title><path class="cls-1" d="M507,304h26.31v12.33h-4.51v46.16H507.65l-22-33.9v21.58h4.51v12.33H463.83V350.16h4.51V316.33h-4.51V304h27.89l19.77,30.22V316.33H507V304Z"/><path class="cls-1" d="M561.4,350.16h4.51l-1.28-5.94H554.49l-1.2,5.94h4.51v12.33H532.08V350.16h3L547.8,304h27.36l12.7,46.16h3v12.33H561.4V350.16Zm-5.26-13.91h6.92l-3.08-15h-0.75Z"/><path class="cls-1" d="M581.63,304h56.53v18.27H625.23v-5.94h-4.81v33.83h5.26v12.33H594.11V350.16h5.26V316.33h-4.81v5.94H581.63V304Z"/><path class="cls-1" d="M693.26,341.52a27.4,27.4,0,0,1-1.69,10.26,17,17,0,0,1-4.85,6.8,19.34,19.34,0,0,1-7.63,3.8,39.55,39.55,0,0,1-10,1.17,41.1,41.1,0,0,1-10.19-1.17,19.64,19.64,0,0,1-7.74-3.8,17.43,17.43,0,0,1-5-6.8,26.35,26.35,0,0,1-1.77-10.26V316.33H640V304h28.57v12.33h-3v29a5.17,5.17,0,0,0,1.09,3.68,5.3,5.3,0,0,0,6.54,0,5.18,5.18,0,0,0,1.09-3.68v-29h-3V304h26.54v12.33h-4.51v25.18Z"/><path class="cls-1" d="M725.58,350.16h5v12.33H700V350.16h4.51V316.33H700V304h35.26a35.3,35.3,0,0,1,8.31.9,16.35,16.35,0,0,1,6.28,2.89,13,13,0,0,1,3.95,5.22,20,20,0,0,1,1.39,7.89,17.91,17.91,0,0,1-2,8.65,11,11,0,0,1-5.83,5.19l0.08,0.75q7.22,1.13,7.22,8.87v5.79h3.53v12.33H734.38V344.82a11.26,11.26,0,0,0-.49-3.65,4,4,0,0,0-1.58-2.1,7,7,0,0,0-2.74-1,25.84,25.84,0,0,0-4-.26v12.33Zm4.06-21.5a4.35,4.35,0,0,0,3.27-1.13,5.18,5.18,0,0,0,1.09-3.68v-2.71a5.18,5.18,0,0,0-1.09-3.68,4.35,4.35,0,0,0-3.27-1.13h-4.06v12.33h4.06Z"/><path class="cls-1" d="M795.87,316.33h-9.1v11.88h6.62v8.57h-6.62v13.38h9.1V338.28h16.84v24.21h-51.5V350.16h4.51V316.33h-4.51V304h51.5v22.7H795.87V316.33Z"/><path class="cls-1" d="M735.67,276.38a0.81,0.81,0,0,1-.51-0.18c-8.3-6.79-14-.37-14.28-0.1a0.81,0.81,0,0,1-1.23-1.06c0.07-.08,7-7.91,16.54-0.1A0.81,0.81,0,0,1,735.67,276.38Z"/><path class="cls-1" d="M743.65,279.66c-2.44,0-5.32-.87-8.49-3.46a0.81,0.81,0,1,1,1-1.26c8.34,6.82,14,.38,14.27.1a0.81,0.81,0,0,1,1.23,1.06A11.49,11.49,0,0,1,743.65,279.66Z"/><path class="cls-1" d="M766.49,276.38a0.81,0.81,0,0,1-.52-0.18c-8.3-6.78-14-.37-14.27-0.1a0.81,0.81,0,0,1-1.23-1.06c0.07-.08,7-7.91,16.54-0.1A0.81,0.81,0,0,1,766.49,276.38Z"/><path class="cls-1" d="M774.47,279.66c-2.44,0-5.32-.87-8.49-3.46a0.81,0.81,0,0,1,1-1.26c8.34,6.82,14,.38,14.27.1a0.81,0.81,0,0,1,1.23,1.06A11.51,11.51,0,0,1,774.47,279.66Z"/><path class="cls-1" d="M797.3,276.38a0.79,0.79,0,0,1-.51-0.18c-8.34-6.81-14-.38-14.27-0.1a0.81,0.81,0,0,1-1.23-1.06c0.07-.08,7-7.9,16.54-0.1A0.81,0.81,0,0,1,797.3,276.38Z"/><path class="cls-1" d="M805.09,279.67h0a13.84,13.84,0,0,1-8.29-3.47,0.81,0.81,0,0,1,1-1.26,12.25,12.25,0,0,0,7.3,3.1A0.81,0.81,0,0,1,805.09,279.67Z"/><path class="cls-1" d="M735.67,289.15a0.8,0.8,0,0,1-.51-0.18c-8.3-6.79-14-.37-14.28-0.1a0.81,0.81,0,0,1-1.23-1.06c0.07-.08,7-7.91,16.54-0.1A0.81,0.81,0,0,1,735.67,289.15Z"/><path class="cls-1" d="M743.65,292.43c-2.44,0-5.32-.87-8.49-3.46a0.81,0.81,0,1,1,1-1.26c8.34,6.82,14,.38,14.27.1a0.81,0.81,0,0,1,1.23,1.06A11.49,11.49,0,0,1,743.65,292.43Z"/><path class="cls-1" d="M766.49,289.15A0.81,0.81,0,0,1,766,289c-8.3-6.78-14-.37-14.27-0.1a0.81,0.81,0,0,1-1.23-1.06c0.07-.08,7-7.91,16.54-0.1A0.81,0.81,0,0,1,766.49,289.15Z"/><path class="cls-1" d="M774.47,292.43c-2.44,0-5.32-.87-8.49-3.46a0.81,0.81,0,0,1,1-1.26c8.34,6.82,14,.38,14.27.1a0.81,0.81,0,0,1,1.23,1.06A11.5,11.5,0,0,1,774.47,292.43Z"/><path class="cls-1" d="M797.3,289.15a0.79,0.79,0,0,1-.51-0.18c-8.34-6.81-14-.38-14.27-0.1a0.81,0.81,0,0,1-1.23-1.06c0.07-.08,7-7.91,16.54-0.1A0.81,0.81,0,0,1,797.3,289.15Z"/><path class="cls-1" d="M805.09,292.44h0a13.85,13.85,0,0,1-8.29-3.47,0.81,0.81,0,0,1,1-1.26,12.26,12.26,0,0,0,7.3,3.1A0.81,0.81,0,0,1,805.09,292.44Z"/><path class="cls-1" d="M541.32,276.38a0.81,0.81,0,0,1-.51-1.44c9.55-7.81,16.47,0,16.54.1a0.81,0.81,0,0,1-1.23,1.06c-0.25-.29-6-6.68-14.27.1A0.81,0.81,0,0,1,541.32,276.38Z"/><path class="cls-1" d="M533.34,279.66a11.5,11.5,0,0,1-8-3.56,0.81,0.81,0,0,1,1.23-1.06c0.25,0.29,6,6.68,14.28-.1a0.81,0.81,0,0,1,1,1.26C538.66,278.79,535.77,279.66,533.34,279.66Z"/><path class="cls-1" d="M510.51,276.38a0.81,0.81,0,0,1-.52-1.44c9.55-7.81,16.47,0,16.54.1a0.81,0.81,0,0,1-1.23,1.06c-0.25-.29-6-6.68-14.28.1A0.8,0.8,0,0,1,510.51,276.38Z"/><path class="cls-1" d="M502.52,279.66a11.5,11.5,0,0,1-8-3.56,0.81,0.81,0,0,1,1.23-1.06c0.25,0.29,6,6.68,14.28-.1a0.81,0.81,0,1,1,1,1.26C507.85,278.79,505,279.66,502.52,279.66Z"/><path class="cls-1" d="M479.69,276.38a0.81,0.81,0,0,1-.52-1.44c9.55-7.81,16.47,0,16.54.1a0.81,0.81,0,0,1-1.23,1.06c-0.25-.29-6-6.68-14.27.1A0.8,0.8,0,0,1,479.69,276.38Z"/><path class="cls-1" d="M471.9,279.67a0.81,0.81,0,0,1,0-1.63,12.25,12.25,0,0,0,7.3-3.1,0.81,0.81,0,0,1,1,1.26,13.84,13.84,0,0,1-8.29,3.47h0Z"/><path class="cls-1" d="M541.32,289.15a0.81,0.81,0,0,1-.51-1.44c9.55-7.81,16.47,0,16.54.1a0.81,0.81,0,0,1-1.23,1.06c-0.25-.29-6-6.68-14.27.1A0.81,0.81,0,0,1,541.32,289.15Z"/><path class="cls-1" d="M533.34,292.43a11.49,11.49,0,0,1-8-3.56,0.81,0.81,0,0,1,1.23-1.06c0.25,0.29,6,6.68,14.28-.1a0.81,0.81,0,0,1,1,1.26C538.66,291.56,535.77,292.43,533.34,292.43Z"/><path class="cls-1" d="M510.51,289.15a0.81,0.81,0,0,1-.52-1.44c9.55-7.81,16.47,0,16.54.1a0.81,0.81,0,0,1-1.23,1.06c-0.25-.29-6-6.68-14.28.1A0.8,0.8,0,0,1,510.51,289.15Z"/><path class="cls-1" d="M502.52,292.43a11.49,11.49,0,0,1-8-3.56,0.81,0.81,0,0,1,1.23-1.06c0.25,0.29,6,6.68,14.28-.1a0.81,0.81,0,1,1,1,1.26C507.85,291.56,505,292.43,502.52,292.43Z"/><path class="cls-1" d="M479.69,289.15a0.81,0.81,0,0,1-.52-1.44c9.55-7.81,16.47,0,16.54.1a0.81,0.81,0,0,1-1.23,1.06c-0.25-.29-6-6.68-14.27.1A0.8,0.8,0,0,1,479.69,289.15Z"/><path class="cls-1" d="M471.9,292.44a0.81,0.81,0,0,1,0-1.63,12.25,12.25,0,0,0,7.3-3.1,0.81,0.81,0,0,1,1,1.26,13.85,13.85,0,0,1-8.29,3.47h0Z"/><path class="cls-1" d="M737.18,552.67a0.81,0.81,0,0,1-.51-0.18c-8.3-6.79-14-.37-14.28-0.1a0.81,0.81,0,0,1-1.23-1.06c0.07-.08,7-7.91,16.54-0.1A0.81,0.81,0,0,1,737.18,552.67Z"/><path class="cls-1" d="M745.16,556c-2.44,0-5.32-.87-8.49-3.46a0.81,0.81,0,1,1,1-1.26c8.34,6.82,14,.38,14.27.1a0.81,0.81,0,0,1,1.23,1.06A11.49,11.49,0,0,1,745.16,556Z"/><path class="cls-1" d="M768,552.67a0.81,0.81,0,0,1-.52-0.18c-8.3-6.78-14-.37-14.27-0.1a0.81,0.81,0,0,1-1.23-1.06c0.07-.08,7-7.91,16.54-0.1A0.81,0.81,0,0,1,768,552.67Z"/><path class="cls-1" d="M776,556c-2.44,0-5.32-.87-8.49-3.46a0.81,0.81,0,0,1,1-1.26c8.34,6.82,14,.38,14.27.1a0.81,0.81,0,0,1,1.23,1.06A11.51,11.51,0,0,1,776,556Z"/><path class="cls-1" d="M798.8,552.67a0.79,0.79,0,0,1-.51-0.18c-8.34-6.81-14-.38-14.27-0.1a0.81,0.81,0,0,1-1.23-1.06c0.07-.08,7-7.9,16.54-0.1A0.81,0.81,0,0,1,798.8,552.67Z"/><path class="cls-1" d="M806.6,556h0a13.84,13.84,0,0,1-8.29-3.47,0.81,0.81,0,0,1,1-1.26,12.25,12.25,0,0,0,7.3,3.1A0.81,0.81,0,0,1,806.6,556Z"/><path class="cls-1" d="M737.18,565.44a0.8,0.8,0,0,1-.51-0.18c-8.3-6.79-14-.37-14.28-0.1a0.81,0.81,0,0,1-1.23-1.06c0.07-.08,7-7.91,16.54-0.1A0.81,0.81,0,0,1,737.18,565.44Z"/><path class="cls-1" d="M745.16,568.72c-2.44,0-5.32-.87-8.49-3.46a0.81,0.81,0,1,1,1-1.26c8.34,6.82,14,.38,14.27.1a0.81,0.81,0,0,1,1.23,1.06A11.49,11.49,0,0,1,745.16,568.72Z"/><path class="cls-1" d="M768,565.44a0.81,0.81,0,0,1-.52-0.18c-8.3-6.78-14-.37-14.27-0.1A0.81,0.81,0,0,1,752,564.1c0.07-.08,7-7.91,16.54-0.1A0.81,0.81,0,0,1,768,565.44Z"/><path class="cls-1" d="M776,568.72c-2.44,0-5.32-.87-8.49-3.46a0.81,0.81,0,0,1,1-1.26c8.34,6.82,14,.38,14.27.1a0.81,0.81,0,0,1,1.23,1.06A11.5,11.5,0,0,1,776,568.72Z"/><path class="cls-1" d="M798.8,565.44a0.79,0.79,0,0,1-.51-0.18c-8.34-6.81-14-.38-14.27-0.1a0.81,0.81,0,0,1-1.23-1.06c0.07-.08,7-7.91,16.54-0.1A0.81,0.81,0,0,1,798.8,565.44Z"/><path class="cls-1" d="M806.6,568.73h0a13.85,13.85,0,0,1-8.29-3.47,0.81,0.81,0,0,1,1-1.26,12.26,12.26,0,0,0,7.3,3.1A0.81,0.81,0,0,1,806.6,568.73Z"/><path class="cls-1" d="M542.82,552.67a0.81,0.81,0,0,1-.51-1.44c9.55-7.81,16.47,0,16.54.1a0.81,0.81,0,0,1-1.23,1.06c-0.25-.29-6-6.68-14.27.1A0.81,0.81,0,0,1,542.82,552.67Z"/><path class="cls-1" d="M534.84,556a11.5,11.5,0,0,1-8-3.56,0.81,0.81,0,0,1,1.23-1.06c0.25,0.29,6,6.68,14.28-.1a0.81,0.81,0,0,1,1,1.26C540.16,555.08,537.28,556,534.84,556Z"/><path class="cls-1" d="M512,552.67a0.81,0.81,0,0,1-.52-1.44c9.55-7.81,16.47,0,16.54.1a0.81,0.81,0,0,1-1.23,1.06c-0.25-.29-6-6.68-14.28.1A0.8,0.8,0,0,1,512,552.67Z"/><path class="cls-1" d="M504,556a11.5,11.5,0,0,1-8-3.56,0.81,0.81,0,0,1,1.23-1.06c0.25,0.29,6,6.68,14.28-.1a0.81,0.81,0,1,1,1,1.26C509.35,555.08,506.46,556,504,556Z"/><path class="cls-1" d="M481.2,552.67a0.81,0.81,0,0,1-.52-1.44c9.55-7.81,16.47,0,16.54.1a0.81,0.81,0,0,1-1.23,1.06c-0.25-.29-6-6.68-14.27.1A0.8,0.8,0,0,1,481.2,552.67Z"/><path class="cls-1" d="M473.4,556a0.81,0.81,0,0,1,0-1.63,12.25,12.25,0,0,0,7.3-3.1,0.81,0.81,0,0,1,1,1.26,13.84,13.84,0,0,1-8.29,3.47h0Z"/><path class="cls-1" d="M542.82,565.44a0.81,0.81,0,0,1-.51-1.44c9.55-7.81,16.47,0,16.54.1a0.81,0.81,0,0,1-1.23,1.06c-0.25-.29-6-6.68-14.27.1A0.81,0.81,0,0,1,542.82,565.44Z"/><path class="cls-1" d="M534.84,568.72a11.49,11.49,0,0,1-8-3.56A0.81,0.81,0,0,1,528,564.1c0.25,0.29,6,6.68,14.28-.1a0.81,0.81,0,0,1,1,1.26C540.16,567.85,537.28,568.72,534.84,568.72Z"/><path class="cls-1" d="M512,565.44a0.81,0.81,0,0,1-.52-1.44c9.55-7.81,16.47,0,16.54.1a0.81,0.81,0,0,1-1.23,1.06c-0.25-.29-6-6.68-14.28.1A0.8,0.8,0,0,1,512,565.44Z"/><path class="cls-1" d="M504,568.72a11.49,11.49,0,0,1-8-3.56,0.81,0.81,0,0,1,1.23-1.06c0.25,0.29,6,6.68,14.28-.1a0.81,0.81,0,1,1,1,1.26C509.35,567.85,506.46,568.72,504,568.72Z"/><path class="cls-1" d="M481.2,565.44a0.81,0.81,0,0,1-.52-1.44c9.55-7.81,16.47,0,16.54.1a0.81,0.81,0,0,1-1.23,1.06c-0.25-.29-6-6.68-14.27.1A0.8,0.8,0,0,1,481.2,565.44Z"/><path class="cls-1" d="M473.4,568.73a0.81,0.81,0,0,1,0-1.63,12.25,12.25,0,0,0,7.3-3.1,0.81,0.81,0,0,1,1,1.26,13.85,13.85,0,0,1-8.29,3.47h0Z"/><path class="cls-1" d="M662.39,213.94a34.23,34.23,0,0,0,12.43,7.92c7.3,2.49,10.87,4.82,13.36,10.25s3.8,5.52,7,5.17,3.26,1.17,3.26,1.17,9.09-3.26,13.75-1.63,6.43,2.56,9.56,2.22a30.59,30.59,0,0,1-11.78.93c-5.25-.7-11.34.39-13.6,2.1s-2.72,3.81-8,4a19.27,19.27,0,0,0-3,2.64c-0.39.37-2.33,0.39-4.12-1.63,0,0-1-.74.25-1.55s4.14-1.75,4.14-2.68,0.23-3,.23-3-11-8.8-13.87-14.16C668.8,224.94,661.52,219.28,662.39,213.94Z"/><path class="cls-1" d="M610.89,193.1a23.32,23.32,0,0,0,5.31,8.52c3.76,3.68,5.27,6.15,5.2,10.23s0.72,4.51,2.76,5.22,1.66,1.68,1.66,1.68,6.54,0.66,8.93,3,3.2,3.46,5.23,4.17a20.77,20.77,0,0,1-7.51-2.89c-3-2-7.09-3.09-9-2.7s-2.79,1.54-6.1.13a13.13,13.13,0,0,0-2.64.74c-0.35.11-1.55-.45-2.05-2.21,0,0-.38-0.74.61-0.88s3.06,0.14,3.33-.43,1-1.75,1-1.75-4.15-8.63-4.37-12.78C611.6,201.74,608.78,196.13,610.89,193.1Z"/><path class="cls-1" d="M664.37,199.88c-5.88.91-7.48,3.62-7.48,3.62-3.17-.25-4.25-0.32-6.6-1.7s-4.84-1.31-7.68-.39a14.83,14.83,0,0,1-6.54,1,24,24,0,0,0-4.24,0,25.49,25.49,0,0,1,4.53,1.29c4.31,1.76,10.8-1,13,0,0.51,0.38-2.37.51-2.83,2.06,1.87-.19,3.92-0.26,4.76.32a6.31,6.31,0,0,0,6,.24,8,8,0,0,1,4-1.16s-0.32-1.11-2.91-1.55c0.57-.4,2.2-1,6.76-1.68,8.06-1.18,10.32-3.47,11.09-5.54C673.34,199.15,670.25,199,664.37,199.88Z"/><path class="cls-1" d="M648,234.31c-3.41.9-9.58,0.58-13.25,0.84-3,.21-7.5,4.85-8.93,6.41-0.41-.19-0.88-0.39-1.42-0.59-3.76-1.45-2.17-5.26-7.67-8.22s-13.2-6-17.09-10.68c0,0,2.2,3.76,3.45,6s3.47,3.76,8.2,6,6.08,4,7.23,6.52l-2.12-1.31s-4.34.35-4.72,1.31a13.42,13.42,0,0,1,6.85,2.79c2.27,1.73,9.21,1.35,11.47,1.54a24,24,0,0,0-1.67-1.77c1.52-.89,5.6-3.33,7.1-4.52,2.53-1,8.2.62,11.42-.41s8.55-6.43,8.55-6.43A67.7,67.7,0,0,1,648,234.31Z"/><path class="cls-1" d="M582.28,259.94a4.43,4.43,0,0,0,.88,2.7,10,10,0,0,0,2.34,2.21,25.59,25.59,0,0,0,3.3,1.94l3.78,1.89q1.94,1,3.78,2.08a18.6,18.6,0,0,1,3.3,2.51,11.49,11.49,0,0,1,2.34,3.16,8.9,8.9,0,0,1,.88,4,10.48,10.48,0,0,1-.66,3.79,10.8,10.8,0,0,1-1.82,3.1,12.9,12.9,0,0,1-2.74,2.43,16.7,16.7,0,0,1-3.41,1.74,21.63,21.63,0,0,1-3.85,1,23.31,23.31,0,0,1-4.05.35,22.16,22.16,0,0,1-5.56-.7,15.6,15.6,0,0,1-4.81-2.11,11,11,0,0,1-3.38-3.53,9.45,9.45,0,0,1-1.27-5,6.58,6.58,0,0,1,.47-2.58,6.2,6.2,0,0,1,1.17-1.85,4.88,4.88,0,0,1,1.52-1.12,3.71,3.71,0,0,1,1.53-.38,1.88,1.88,0,0,1,1.23.4,1.52,1.52,0,0,1,.49,1.25,4,4,0,0,1-.09.82l-0.19,1q-0.1.52-.19,1.13a9.18,9.18,0,0,0-.09,1.35,5.1,5.1,0,0,0,.73,2.77,6,6,0,0,0,1.95,1.92,9.15,9.15,0,0,0,2.79,1.12,14.43,14.43,0,0,0,3.27.37,16.94,16.94,0,0,0,4-.48,12.86,12.86,0,0,0,3.57-1.42,8.41,8.41,0,0,0,2.56-2.3,5.2,5.2,0,0,0,1-3.13,5,5,0,0,0-.88-2.91,10.24,10.24,0,0,0-2.34-2.37,23.9,23.9,0,0,0-3.31-2l-3.78-1.95q-1.92-1-3.78-2.07a20.3,20.3,0,0,1-3.31-2.39,11,11,0,0,1-2.34-2.92,7.54,7.54,0,0,1-.88-3.68,8.43,8.43,0,0,1,.93-3.79,9.89,9.89,0,0,1,2.79-3.34,14.94,14.94,0,0,1,4.66-2.39,21.07,21.07,0,0,1,6.55-.92,15.6,15.6,0,0,1,4.66.71,13.77,13.77,0,0,1,4.06,2,10.62,10.62,0,0,1,2.87,3.11,7.63,7.63,0,0,1,1.09,4,8.65,8.65,0,0,1-.45,2.68,11.94,11.94,0,0,1-1.43,2.86,7,7,0,0,1-2.1,2.14,4,4,0,0,1-2,.7,1.59,1.59,0,0,1-1.12-.4,1.55,1.55,0,0,1-.44-1.2,4.51,4.51,0,0,1,.27-1.41,9.09,9.09,0,0,1,.94-1.87,9.44,9.44,0,0,0,.92-1.89,5.15,5.15,0,0,0,.3-1.64,3.43,3.43,0,0,0-.63-2,5,5,0,0,0-1.74-1.48,9.37,9.37,0,0,0-2.67-.89,18.23,18.23,0,0,0-3.41-.3,12.22,12.22,0,0,0-3.58.47,8.57,8.57,0,0,0-2.54,1.21,5,5,0,0,0-1.51,1.66A3.8,3.8,0,0,0,582.28,259.94Z"/><path class="cls-1" d="M626.29,284.85q-2.2,1.28-3.92,2.24t-3.06,1.6a17.64,17.64,0,0,1-2.38,1A6.47,6.47,0,0,1,615,290a4.8,4.8,0,0,1-3.07-1.05,8,8,0,0,1-2.22-3,18.94,18.94,0,0,1-1.34-4.8,40.81,40.81,0,0,1-.45-6.34q0-1.37.11-2.93t0.32-3.09q-0.69-.09-1.06-0.17l-0.8-.16-1.08-.17-1.89-.23a2,2,0,0,1-.85-0.26,1.23,1.23,0,0,1-.44-0.46,1.41,1.41,0,0,1-.16-0.55c0-.19,0-0.35,0-0.49a0.76,0.76,0,0,1,.45-0.7,3.68,3.68,0,0,1,1.15-.35,10.44,10.44,0,0,1,1.53-.13q0.84,0,1.6,0l1.37,0a4.51,4.51,0,0,0,.84,0,51.71,51.71,0,0,1,1.57-6,34,34,0,0,1,2.13-5.15,14.21,14.21,0,0,1,2.58-3.62,4.18,4.18,0,0,1,2.93-1.36,3.14,3.14,0,0,1,1.8.55,4.83,4.83,0,0,1,1.39,1.47,7.47,7.47,0,0,1,.88,2.14,10.4,10.4,0,0,1,.31,2.55,9.52,9.52,0,0,1-.32,2.37,17.91,17.91,0,0,1-.87,2.54,26.76,26.76,0,0,1-1.29,2.62q-0.74,1.33-1.57,2.63l0.69,0,1.11,0,1.36,0.06,1.42,0.06,1.28,0,1,0a0.74,0.74,0,0,1,.66.46,2.57,2.57,0,0,1,.21,1.1,1.86,1.86,0,0,1-.46,1.31,1.35,1.35,0,0,1-1,.5H616q-0.67.92-1.34,1.8t-1.25,1.59q-0.09,1.42-.16,2.79,0,0.6,0,1.23l0,1.25q0,0.62,0,1.19t0,1.05a8.1,8.1,0,0,0,.23,2.08,3.71,3.71,0,0,0,.66,1.39,2.49,2.49,0,0,0,1.06.78,3.93,3.93,0,0,0,1.41.24,4.13,4.13,0,0,0,1.2-.23,13.25,13.25,0,0,0,1.58-.63q0.86-.4,1.81-1t1.88-1.2q0.93-.65,1.77-1.37a16.69,16.69,0,0,0,1.53-1.48v5.86Zm-7.33-29a5.12,5.12,0,0,0,0-.56,2.11,2.11,0,0,0-.15-0.58,1,1,0,0,0-1-.64,1.66,1.66,0,0,0-1.2,1.05,15.57,15.57,0,0,0-1.17,2.69q-0.56,1.64-1.05,3.61t-0.9,3.82l0.69,0.08,0.71,0.08q0.69-1.17,1.43-2.53t1.34-2.68q0.6-1.32,1-2.46A6.13,6.13,0,0,0,619,255.86Z"/><path class="cls-1" d="M642.71,269.48a14.07,14.07,0,0,1-.14,1.68q-0.14,1.06-.36,2.34t-0.47,2.62l-0.47,2.52q-0.22,1.17-.35,2a9.4,9.4,0,0,0-.14,1.23q0,0.64,0,1.18a4,4,0,0,0,.14.94,1.28,1.28,0,0,0,.35.62,1,1,0,0,0,.7.22,3.83,3.83,0,0,0,1.23-.25,11.6,11.6,0,0,0,1.53-.68q0.81-.42,1.66-1t1.61-1.13q0.77-.6,1.4-1.18a9.17,9.17,0,0,0,1-1.09q0,0.76,0,1.37t0,1.18c0,0.37,0,.76,0,1.16s0,0.84,0,1.33a12.78,12.78,0,0,1-1.25,1.08q-0.74.57-1.65,1.15t-1.92,1.1a20.94,20.94,0,0,1-2,.93,15.65,15.65,0,0,1-2,.64,8.13,8.13,0,0,1-1.88.24,3,3,0,0,1-1.49-.34,3.27,3.27,0,0,1-1.06-1,6,6,0,0,1-.76-1.48,15.15,15.15,0,0,1-.54-1.91,19,19,0,0,1-1.74,2,14.37,14.37,0,0,1-1.87,1.57,9.14,9.14,0,0,1-1.92,1,5.21,5.21,0,0,1-1.89.38,4,4,0,0,1-1.42-.25,2.92,2.92,0,0,1-1.18-.85,4.27,4.27,0,0,1-.81-1.57,8.37,8.37,0,0,1-.3-2.42,30.3,30.3,0,0,1,.42-4.49q0.42-2.73,1-6.23,0-.34.17-0.93t0.34-1.27a12.61,12.61,0,0,1,.54-1.4,6.57,6.57,0,0,1,.76-1.28,3.83,3.83,0,0,1,1-.94,2.59,2.59,0,0,1,1.32-.39,4.58,4.58,0,0,1,1.74.31,0.77,0.77,0,0,1,.53.65q-0.21,1.21-.45,2.7t-0.49,3q-0.25,1.51-.48,2.94l-0.41,2.55q-0.18,1.12-.29,1.81t-0.1.71a3.78,3.78,0,0,0,.08.79,2.51,2.51,0,0,0,.24.68,1.4,1.4,0,0,0,.41.48,1,1,0,0,0,.6.18,2.29,2.29,0,0,0,1-.26,3.62,3.62,0,0,0,1-.76,5.1,5.1,0,0,0,.84-1.21,6.36,6.36,0,0,0,.55-1.64l2.27-11.63a1.45,1.45,0,0,1,.93-0.93,4.32,4.32,0,0,1,1.84-.38,3.59,3.59,0,0,1,1.85.41A1.21,1.21,0,0,1,642.71,269.48Z"/><path class="cls-1" d="M673.45,285.49a38.22,38.22,0,0,1-3.21,2.24q-0.67.41-1.4,0.81t-1.44.71a11.31,11.31,0,0,1-1.38.5,4.54,4.54,0,0,1-1.25.19,4.91,4.91,0,0,1-1-.14,5,5,0,0,1-1.37-.56A6.39,6.39,0,0,1,661,288a7.1,7.1,0,0,1-1.29-2.13,22.21,22.21,0,0,1-1.8,1.57,14,14,0,0,1-2,1.29,12,12,0,0,1-2.06.88,6.85,6.85,0,0,1-2.09.33,5,5,0,0,1-2.58-.64,5.59,5.59,0,0,1-1.81-1.71,7.81,7.81,0,0,1-1.08-2.42,11,11,0,0,1-.35-2.79,12.1,12.1,0,0,1,.38-3,13.69,13.69,0,0,1,1.1-2.91,14.66,14.66,0,0,1,1.75-2.66,13.38,13.38,0,0,1,5.18-3.84,11.08,11.08,0,0,1,3.27-.8,43,43,0,0,1,.53-5.79,44.41,44.41,0,0,1,1.21-5.45,34.09,34.09,0,0,1,1.78-4.79,20.76,20.76,0,0,1,2.23-3.8,10.63,10.63,0,0,1,2.59-2.51,5.1,5.1,0,0,1,2.84-.9,3,3,0,0,1,1.83.56,4.14,4.14,0,0,1,1.22,1.49,7.5,7.5,0,0,1,.68,2.15,15.3,15.3,0,0,1,.21,2.53q0,0.8-.07,1.65a34.47,34.47,0,0,1-1.1,6.1,57.1,57.1,0,0,1-1.88,5.6q-1.08,2.73-2.34,5.4t-2.45,5.56a7.86,7.86,0,0,0-.23.78q-0.11.46-.22,1t-0.17,1.1a9.14,9.14,0,0,0-.07,1.09,9.24,9.24,0,0,0,.08,1.26,4.54,4.54,0,0,0,.26,1.06,1.87,1.87,0,0,0,.49.74,1.11,1.11,0,0,0,.77.27,3,3,0,0,0,.95-0.17,7.5,7.5,0,0,0,1.09-.47c0.38-.2.77-0.42,1.16-0.68s0.77-.51,1.13-0.77q1.26-.92,2.63-2.08Zm-15.76-12.82A9.64,9.64,0,0,0,655,274.6a12.53,12.53,0,0,0-2,2.6,13.13,13.13,0,0,0-1.2,2.82,9.31,9.31,0,0,0-.41,2.56,4.18,4.18,0,0,0,.1.92,2.14,2.14,0,0,0,.38.82,2,2,0,0,0,.78.6,3.18,3.18,0,0,0,1.31.23,1.77,1.77,0,0,0,.81-0.21,3.66,3.66,0,0,0,.77-0.54,6,6,0,0,0,.7-0.76,8.77,8.77,0,0,0,.61-0.88,15.73,15.73,0,0,0,1.17-2.38,7.73,7.73,0,0,1-.12-1q0-.7-0.07-1.56t0-1.77q0-.92,0-1.67t0-1.24A1.44,1.44,0,0,0,657.69,272.67Zm10.76-16.6q0.14-1.6.14-2.54a4.67,4.67,0,0,0-.22-1.72,0.69,0.69,0,0,0-.63-0.48,1.65,1.65,0,0,0-1.33.93,10,10,0,0,0-1.05,2.37,29.34,29.34,0,0,0-.8,3.18q-0.34,1.74-.57,3.37t-0.37,2.93q-0.14,1.31-.18,1.85c-0.06.75-.11,1.47-0.15,2.16s-0.07,1.33-.08,1.9,0,1.07,0,1.5v1.21q1.31-3,2.4-5.93,0.46-1.26.93-2.64t0.86-2.78q0.39-1.4.68-2.75A23,23,0,0,0,668.45,256.07Z"/><path class="cls-1" d="M686.09,285.1a20.38,20.38,0,0,1-2,1.61,21.84,21.84,0,0,1-2.64,1.58,20.16,20.16,0,0,1-2.9,1.2,9.06,9.06,0,0,1-2.8.48,5.31,5.31,0,0,1-2-.33,3.33,3.33,0,0,1-1.32-.93,3.56,3.56,0,0,1-.72-1.45,7.66,7.66,0,0,1-.22-1.89,19.89,19.89,0,0,1,.33-3.35q0.33-1.91.81-4t1-4.09q0.54-2,1-3.76a2,2,0,0,1,.64-1,4.08,4.08,0,0,1,1.09-.69,6,6,0,0,1,1.26-.39,6.31,6.31,0,0,1,1.18-.13,1.82,1.82,0,0,1,1.31.35,1.31,1.31,0,0,1,.34,1,6.78,6.78,0,0,1-.23,1.45q-0.23.95-.57,2.15l-0.73,2.59q-0.39,1.39-.73,2.77t-0.57,2.7a13.91,13.91,0,0,0-.23,2.37,4.74,4.74,0,0,0,.23,1.64,0.91,0.91,0,0,0,.94.61,3.78,3.78,0,0,0,1.83-.57,16.2,16.2,0,0,0,2-1.39q1-.81,2-1.68t1.74-1.49v4.65Zm-10.24-23.54a3.86,3.86,0,0,1,1-2.44,4.11,4.11,0,0,1,1.37-1,5.05,5.05,0,0,1,2.14-.4,6.06,6.06,0,0,1,1.51.18,3.7,3.7,0,0,1,1.24.56,2.67,2.67,0,0,1,.84,1,3.24,3.24,0,0,1,.31,1.47,4.62,4.62,0,0,1-.25,1.51,3.53,3.53,0,0,1-.8,1.31,4.11,4.11,0,0,1-1.39.93,5.11,5.11,0,0,1-2,.35,4.09,4.09,0,0,1-3-1A3.4,3.4,0,0,1,675.85,261.56Z"/><path class="cls-1" d="M698.52,272.83a12.3,12.3,0,0,1,1,2.81,12.41,12.41,0,0,1,0,5.55,14,14,0,0,1-.86,2.66,13,13,0,0,1-1.37,2.4,9.79,9.79,0,0,1-1.86,1.95,8.78,8.78,0,0,1-2.28,1.31,7.2,7.2,0,0,1-2.63.48,6.44,6.44,0,0,1-3.45-.88,7.35,7.35,0,0,1-2.35-2.3,10.2,10.2,0,0,1-1.34-3.21A15.58,15.58,0,0,1,683,280a14.31,14.31,0,0,1,.76-4.71,11.34,11.34,0,0,1,2.16-3.8,10,10,0,0,1,3.45-2.54,10.93,10.93,0,0,1,4.58-.93,12.09,12.09,0,0,1,4.08.68,15.47,15.47,0,0,1,3.56,1.81,20.34,20.34,0,0,1,3.09,2.6,39.36,39.36,0,0,1,2.67,3l-0.44,3.23a13.38,13.38,0,0,0-1.67-1.79q-1.05-1-2.23-1.88t-2.32-1.73q-1.15-.81-2-1.36Zm-7.08,12.76a2.09,2.09,0,0,0,1.51-.79,7.47,7.47,0,0,0,1.28-2,13.7,13.7,0,0,0,.88-2.66,12.49,12.49,0,0,0,.33-2.78,11.18,11.18,0,0,0-.16-2,6,6,0,0,0-.48-1.57,2.9,2.9,0,0,0-.82-1.05,1.93,1.93,0,0,0-1.21-.39,2.58,2.58,0,0,0-1.79.8,7.48,7.48,0,0,0-1.49,2,13.07,13.07,0,0,0-1.37,5.67,8.55,8.55,0,0,0,.18,1.81,4.65,4.65,0,0,0,.57,1.48A2.87,2.87,0,0,0,691.44,285.58Z"/><rect class="cls-2" width="14" height="14"/><rect class="cls-2" x="1266" y="786" width="14" height="14"/><rect class="cls-1" x="463.83" y="488.59" width="348.89" height="3"/><rect class="cls-1" x="463.17" y="380.59" width="348.89" height="3"/><path class="cls-1" d="M466.86,504.8h15.39a18.78,18.78,0,0,1,5.31.72,10.44,10.44,0,0,1,4.27,2.42,11.59,11.59,0,0,1,2.85,4.46,22.82,22.82,0,0,1,0,13.6,11.61,11.61,0,0,1-2.85,4.44,10.44,10.44,0,0,1-4.27,2.42,18.78,18.78,0,0,1-5.31.72H466.86v-6.07h2.22V510.87h-2.22V504.8Zm14.73,22.72a2.52,2.52,0,0,0,1.89-.65,2.92,2.92,0,0,0,.63-2.09V513.61a2.81,2.81,0,0,0-.67-2.09,2.54,2.54,0,0,0-1.85-.65h-2.15v16.65h2.15Z"/><path class="cls-1" d="M496.91,504.8h14.8v6.07h-2.22v16.65h2.22v6.07h-14.8v-6.07h2.22V510.87h-2.22V504.8Z"/><path class="cls-1" d="M527.62,518.82h13.1v5.51h-1.85v7.4q-0.85.41-2,.83a20,20,0,0,1-2.59.76,32.7,32.7,0,0,1-3.27.55,33.3,33.3,0,0,1-4,.22,20.51,20.51,0,0,1-6-.81,11.22,11.22,0,0,1-4.53-2.59,11.51,11.51,0,0,1-2.87-4.61,24.28,24.28,0,0,1,0-13.78,11.61,11.61,0,0,1,2.85-4.63A11.08,11.08,0,0,1,521,505.1a20.37,20.37,0,0,1,6-.81,34.11,34.11,0,0,1,4.09.22,29.5,29.5,0,0,1,3.29.57,22.2,22.2,0,0,1,2.59.78q1.13,0.43,2,.83v8.84h-9.25v-1.74a3.18,3.18,0,0,0-.65-2.26,3.5,3.5,0,0,0-4.11,0,3.18,3.18,0,0,0-.65,2.26v10.8a3.18,3.18,0,0,0,.65,2.26,3.5,3.5,0,0,0,4.11,0,3.18,3.18,0,0,0,.65-2.26v-0.26h-2v-5.51Z"/><path class="cls-1" d="M542,504.8h14.8v6.07h-2.22v16.65h2.22v6.07H542v-6.07h2.22V510.87H542V504.8Z"/><path class="cls-1" d="M558,504.8h27.82v9h-6.36v-2.92H577v16.65h2.59v6.07H564.1v-6.07h2.59V510.87h-2.37v2.92H558v-9Z"/><path class="cls-1" d="M595.77,527.52H598l-0.63-2.92h-5l-0.59,2.92H594v6.07H581.34v-6.07h1.48l6.25-22.72h13.47l6.25,22.72h1.48v6.07h-14.5v-6.07Zm-2.59-6.84h3.4l-1.52-7.4H594.7Z"/><path class="cls-1" d="M611.46,504.8h16v6.07H624v16.65h3.33v-3.4h7.36v9.47H611.46v-6.07h2.22V510.87h-2.22V504.8Z"/><path class="cls-1" d="M647.46,504.8h15.39a18.78,18.78,0,0,1,5.31.72,10.43,10.43,0,0,1,4.27,2.42,11.59,11.59,0,0,1,2.85,4.46,22.84,22.84,0,0,1,0,13.6,11.61,11.61,0,0,1-2.85,4.44,10.43,10.43,0,0,1-4.27,2.42,18.78,18.78,0,0,1-5.31.72H647.46v-6.07h2.22V510.87h-2.22V504.8Zm14.72,22.72a2.52,2.52,0,0,0,1.89-.65,2.93,2.93,0,0,0,.63-2.09V513.61a2.82,2.82,0,0,0-.67-2.09,2.55,2.55,0,0,0-1.85-.65H660v16.65h2.14Z"/><path class="cls-1" d="M694.63,510.87h-4.48v5.85h3.26v4.22h-3.26v6.59h4.48v-5.85h8.29v11.91H677.57v-6.07h2.22V510.87h-2.22V504.8h25.35V516h-8.29v-5.11Z"/><path class="cls-1" d="M715.39,527a3.08,3.08,0,0,0,1.74-.37,1.27,1.27,0,0,0,.52-1.11,1.2,1.2,0,0,0-.43-0.91,6.27,6.27,0,0,0-1.72-.91q-2.74-1-4.79-2a14.72,14.72,0,0,1-3.4-2.09,7.29,7.29,0,0,1-2-2.68,9.33,9.33,0,0,1-.67-3.72,10.05,10.05,0,0,1,.65-3.72,6.67,6.67,0,0,1,2.11-2.81,10.16,10.16,0,0,1,3.88-1.78,24.88,24.88,0,0,1,6-.61,27.34,27.34,0,0,1,6.07.65,17.44,17.44,0,0,1,4.74,1.72v6.62h-7.77a1.62,1.62,0,0,0-.59-1.46,2.57,2.57,0,0,0-1.44-.39,3.65,3.65,0,0,0-1.76.31,1.16,1.16,0,0,0-.54,1.09,1,1,0,0,0,.57.92,11.94,11.94,0,0,0,1.72.67q2.15,0.7,4.05,1.48a13.56,13.56,0,0,1,3.35,1.92,8.37,8.37,0,0,1,2.28,2.77,8.71,8.71,0,0,1,.83,4q0,4.81-3.11,7.16t-9.1,2.35a35.34,35.34,0,0,1-6.55-.59,24.42,24.42,0,0,1-5-1.41v-7.33h8.14a2.54,2.54,0,0,0,.45,1.65A2.38,2.38,0,0,0,715.39,527Z"/><path class="cls-1" d="M730.08,504.8h14.8v6.07h-2.22v16.65h2.22v6.07h-14.8v-6.07h2.22V510.87h-2.22V504.8Z"/><path class="cls-1" d="M760.79,518.82h13.1v5.51H772v7.4q-0.85.41-2,.83a20,20,0,0,1-2.59.76,32.7,32.7,0,0,1-3.28.55,33.29,33.29,0,0,1-4,.22,20.52,20.52,0,0,1-6-.81,11.21,11.21,0,0,1-4.53-2.59,11.51,11.51,0,0,1-2.87-4.61,24.25,24.25,0,0,1,0-13.78,11.62,11.62,0,0,1,2.85-4.63,11.09,11.09,0,0,1,4.51-2.59,20.38,20.38,0,0,1,6-.81,34.11,34.11,0,0,1,4.09.22,29.52,29.52,0,0,1,3.29.57,22.26,22.26,0,0,1,2.59.78q1.13,0.43,2,.83v8.84h-9.25v-1.74a3.18,3.18,0,0,0-.65-2.26,3.5,3.5,0,0,0-4.11,0,3.18,3.18,0,0,0-.65,2.26v10.8a3.18,3.18,0,0,0,.65,2.26,3.5,3.5,0,0,0,4.11,0,3.18,3.18,0,0,0,.65-2.26v-0.26h-2v-5.51Z"/><path class="cls-1" d="M796.38,504.8h12.95v6.07h-2.22v22.72h-10.4L785.87,516.9v10.62h2.22v6.07H775.14v-6.07h2.22V510.87h-2.22V504.8h13.73l9.73,14.87v-8.81h-2.22V504.8Z"/><path class="cls-1" d="M605.45,554.72a7.86,7.86,0,0,1-.36,2.27,9.38,9.38,0,0,1-1.1,2.35,11.75,11.75,0,0,1-1.9,2.23,12.83,12.83,0,0,1-2.77,1.93,18.35,18.35,0,0,1-3.68,1.43,22.5,22.5,0,0,1-4.65.73,8.41,8.41,0,0,1,2.63,1.5,9.14,9.14,0,0,1,1.76,2.06,11.06,11.06,0,0,1,1.12,2.39q0.42,1.26.71,2.47t0.53,2.33a12.8,12.8,0,0,0,.56,2,3.9,3.9,0,0,0,.82,1.35,1.76,1.76,0,0,0,1.33.51,6.18,6.18,0,0,0,1.67-.26,11.08,11.08,0,0,0,1.86-.73,14.53,14.53,0,0,0,1.89-1.12,14,14,0,0,0,1.74-1.44l2.61,4.4a2.49,2.49,0,0,0-.43.28q-0.43.3-1.19,0.76t-1.81,1a20.26,20.26,0,0,1-5,1.81,13,13,0,0,1-2.86.31,4.76,4.76,0,0,1-2.8-.81,7,7,0,0,1-2-2.13,13.83,13.83,0,0,1-1.35-3q-0.54-1.7-.94-3.47t-0.75-3.47a29.06,29.06,0,0,0-.77-3,7.67,7.67,0,0,0-1-2.13,1.74,1.74,0,0,0-1.46-.81h-1.42q-0.45,4.92-1.12,8.82a32.05,32.05,0,0,1-1.79,6.61A10.7,10.7,0,0,1,580.8,586a6.08,6.08,0,0,1-4.1,1.44,7.79,7.79,0,0,1-3.29-.69,9.31,9.31,0,0,1-2.7-1.87,12.57,12.57,0,0,1-2.1-2.79,18.77,18.77,0,0,1-1.49-3.43,24.2,24.2,0,0,1-.9-3.78,25.3,25.3,0,0,1-.3-3.89,27.18,27.18,0,0,1,7.3-18.56,25.79,25.79,0,0,1,5.2-4.29,25.2,25.2,0,0,1,13.49-3.83,17.94,17.94,0,0,1,3.35.31,16.84,16.84,0,0,1,3.17.92,14.15,14.15,0,0,1,2.8,1.5,10.64,10.64,0,0,1,2.22,2.05,9.42,9.42,0,0,1,1.47,2.57A8.57,8.57,0,0,1,605.45,554.72ZM591.5,549.3a19.7,19.7,0,0,0-6.61,1,17.56,17.56,0,0,0-5.11,2.79,17.91,17.91,0,0,0-3.75,4.07,24.06,24.06,0,0,0-2.52,4.85,27,27,0,0,0-1.4,5.14,30,30,0,0,0-.44,5,21.48,21.48,0,0,0,.31,3.65,13.13,13.13,0,0,0,1,3.29,6.78,6.78,0,0,0,1.74,2.37,3.83,3.83,0,0,0,2.57.91,1.83,1.83,0,0,0,1.35-.6,5.44,5.44,0,0,0,1-1.59,14.39,14.39,0,0,0,.79-2.31q0.34-1.31.56-2.73t0.36-2.85q0.13-1.44.21-2.7t0.1-2.24q0-1,0-1.49a14.29,14.29,0,0,1-2.66-1.55,2.09,2.09,0,0,1-.91-1.66,5.18,5.18,0,0,1,0-.54,2.07,2.07,0,0,1,.15-0.58,1.26,1.26,0,0,1,.33-0.46,0.83,0.83,0,0,1,.57-0.19l0.63,0.06,1,0.13,1,0.13,0.57,0.06,0-.47c0-.24,0-0.57.08-1s0.1-.87.19-1.35A9.66,9.66,0,0,1,583,557a5.28,5.28,0,0,1,.69-1.33,3.56,3.56,0,0,1,1-1,2.68,2.68,0,0,1,1.45-.37,1.77,1.77,0,0,1,1.49.51,2.12,2.12,0,0,1,.37,1.29v0.2a17,17,0,0,1-.26,2.26q-0.24,1.4-.44,3.25a24.7,24.7,0,0,0,6-.73,11.84,11.84,0,0,0,3.77-1.67,5.89,5.89,0,0,0,2-2.21,5.49,5.49,0,0,0,.56-2.33,4.51,4.51,0,0,0-.53-2.11,5.33,5.33,0,0,0-1.56-1.79,8.17,8.17,0,0,0-2.56-1.23A12.31,12.31,0,0,0,591.5,549.3Z"/><path class="cls-1" d="M613.13,583.08a8.42,8.42,0,0,1-3.69-.76,7.64,7.64,0,0,1-2.64-2.05,8.79,8.79,0,0,1-1.58-3,11.9,11.9,0,0,1-.53-3.56,15.87,15.87,0,0,1,1-5.41,14.4,14.4,0,0,1,1.27-2.57,10.23,10.23,0,0,1,1.79-2.16,8.25,8.25,0,0,1,2.29-1.48,7,7,0,0,1,2.82-.55,6.6,6.6,0,0,1,2.34.4,5.72,5.72,0,0,1,1.88,1.13,5.15,5.15,0,0,1,1.25,1.76,5.75,5.75,0,0,1,.45,2.31,6.26,6.26,0,0,1-.69,2.79,10.16,10.16,0,0,1-1.9,2.63,13.41,13.41,0,0,1-2.89,2.2,15.45,15.45,0,0,1-3.63,1.5,7.16,7.16,0,0,0,.66,1,3,3,0,0,0,.66.63,2.21,2.21,0,0,0,.71.31,3.39,3.39,0,0,0,.8.09,8.37,8.37,0,0,0,2.84-.54,18.55,18.55,0,0,0,2.91-1.35,24.61,24.61,0,0,0,2.67-1.76,22.84,22.84,0,0,0,2.13-1.81l2.9,3a29.68,29.68,0,0,1-4.2,3.62q-1,.67-2.08,1.33a18.93,18.93,0,0,1-2.34,1.16,16.38,16.38,0,0,1-2.54.81A11.85,11.85,0,0,1,613.13,583.08Zm-3-10.56a4.45,4.45,0,0,0,1.76-.42,7.9,7.9,0,0,0,1.77-1.07,7.48,7.48,0,0,0,1.38-1.42,2.52,2.52,0,0,0,.56-1.48,3.33,3.33,0,0,0-.37-1.66,1.07,1.07,0,0,0-.91-0.65,3.52,3.52,0,0,0-1.65.36,3.59,3.59,0,0,0-1.15.93,4.84,4.84,0,0,0-.74,1.3,8.84,8.84,0,0,0-.43,1.47,11.08,11.08,0,0,0-.19,1.44Q610.14,572,610.14,572.53Z"/><path class="cls-1" d="M621.87,583.94q0-.11.06-1.37t0.21-3.35q0.16-2.09.43-4.82t0.71-5.77q0.44-3,1-6.24t1.42-6.23a54.28,54.28,0,0,1,1.88-5.72,25.89,25.89,0,0,1,2.37-4.7,11.84,11.84,0,0,1,2.93-3.18,5.93,5.93,0,0,1,3.55-1.17,5.27,5.27,0,0,1,1.61.27,4.34,4.34,0,0,1,1.54.88,4.7,4.7,0,0,1,1.16,1.61,5.87,5.87,0,0,1,.46,2.46,13.13,13.13,0,0,1-.42,3,29.76,29.76,0,0,1-1.17,3.67q-0.75,2-1.77,4.07t-2.23,4.21q-1.21,2.1-2.55,4.13t-2.73,3.81l0,0.36a4.77,4.77,0,0,1,.67-0.29,1.84,1.84,0,0,1,.94,0l0.33,0.12,0.3,0.12a1.15,1.15,0,0,0,.38.06,13.3,13.3,0,0,0,3.93-.53,15.07,15.07,0,0,0,2.88-1.18,10.57,10.57,0,0,0,2.38-1.73l-0.49,5.46a14.65,14.65,0,0,1-3.1,1.26,28.27,28.27,0,0,1-3,.67,28.64,28.64,0,0,1-3.17.31,30.56,30.56,0,0,1,1.46,3.08,26.29,26.29,0,0,1,1,3.07,13,13,0,0,1,.46,3.42q0,0.2-.06.85t-0.19,1.59q-0.13.94-.38,2.09a21.53,21.53,0,0,1-.64,2.31,16.29,16.29,0,0,1-1,2.26,9.28,9.28,0,0,1-1.31,1.93,6.2,6.2,0,0,1-1.73,1.36,4.66,4.66,0,0,1-2.21.52,4.06,4.06,0,0,1-2.16-.56,5.12,5.12,0,0,1-1.57-1.52,9.29,9.29,0,0,1-1.09-2.22,17.38,17.38,0,0,1-.69-2.68,27.79,27.79,0,0,1-.35-2.89Q621.87,585.31,621.87,583.94Zm6-10.78a0.74,0.74,0,0,0-.2.51q-0.11.5-.21,1.3t-0.19,1.79q-0.09,1-.16,1.94T627,580.47q0,0.82,0,1.29,0,3.3.12,5.26a26,26,0,0,0,.31,3,3.47,3.47,0,0,0,.43,1.31,0.64,0.64,0,0,0,.48.3,1.41,1.41,0,0,0,1.22-.7,5.23,5.23,0,0,0,.7-1.76,15.22,15.22,0,0,0,.31-2.34q0.08-1.27.08-2.44a18.6,18.6,0,0,0-.12-1.93q-0.12-1.15-.34-2.39t-0.49-2.48q-0.28-1.23-.58-2.21a9.92,9.92,0,0,0-.62-1.58A0.9,0.9,0,0,0,627.86,573.16Zm5.46-24.5q-1.3,3.23-2,5.69t-1.12,4.37q-0.38,1.91-.54,3.36t-0.31,2.68q1.37-2.58,2.76-5.09t2.52-4.65q1.12-2.15,1.83-3.79a7,7,0,0,0,.71-2.49,3.45,3.45,0,0,0-.34-1.74,1,1,0,0,0-.92-0.55,2.11,2.11,0,0,0-1.57.55A4.87,4.87,0,0,0,633.32,548.65Z"/><path class="cls-1" d="M653.11,578.3a19.79,19.79,0,0,1-2,1.58,21.42,21.42,0,0,1-2.59,1.55,20,20,0,0,1-2.84,1.18,8.9,8.9,0,0,1-2.75.47,5.2,5.2,0,0,1-2-.33,3.27,3.27,0,0,1-1.29-.91,3.5,3.5,0,0,1-.71-1.43,7.52,7.52,0,0,1-.21-1.85,19.51,19.51,0,0,1,.33-3.29q0.33-1.88.8-3.89t1-4q0.53-2,.93-3.68a2,2,0,0,1,.63-1,4,4,0,0,1,1.07-.67,5.93,5.93,0,0,1,1.24-.38,6.18,6.18,0,0,1,1.16-.12,1.79,1.79,0,0,1,1.28.35,1.28,1.28,0,0,1,.34.93,6.59,6.59,0,0,1-.22,1.43q-0.22.93-.56,2.11L646,568.88q-0.38,1.36-.72,2.72t-0.56,2.65a13.83,13.83,0,0,0-.22,2.32,4.69,4.69,0,0,0,.22,1.61,0.89,0.89,0,0,0,.92.6,3.71,3.71,0,0,0,1.8-.56,16.06,16.06,0,0,0,2-1.36q1-.8,2-1.65t1.71-1.46v4.56Zm-10-23.09a3.78,3.78,0,0,1,1-2.39,4.07,4.07,0,0,1,1.35-1,5,5,0,0,1,2.1-.39,5.91,5.91,0,0,1,1.48.18,3.61,3.61,0,0,1,1.21.55,2.6,2.6,0,0,1,.82,1,3.17,3.17,0,0,1,.3,1.44,4.5,4.5,0,0,1-.25,1.48,3.43,3.43,0,0,1-.79,1.28,4,4,0,0,1-1.36.91,5,5,0,0,1-2,.35,4,4,0,0,1-2.92-.93A3.33,3.33,0,0,1,643.07,555.21Z"/><path class="cls-1" d="M651.52,578.39q0-1.48.18-3.42t0.45-4q0.27-2,.61-3.87t0.65-3.19a3.51,3.51,0,0,1,1-1.73,2.62,2.62,0,0,1,1.92-.7,1.84,1.84,0,0,1,1.68.74,3.64,3.64,0,0,1,.47,2,8.24,8.24,0,0,1-.07.91c0,0.38-.1.8-0.17,1.26s-0.14.93-.21,1.42l-0.21,1.35q-0.1.62-.17,1.08a5.24,5.24,0,0,0-.07.62H658l0.43-.8,0.67-1.27,0.82-1.52c0.29-.53.56-1,0.82-1.53s0.49-.92.7-1.29l0.47-.83a4.06,4.06,0,0,1,1.64-1.66,4.6,4.6,0,0,1,2-.45,2.07,2.07,0,0,1,1.79.94,4.47,4.47,0,0,1,.66,2.61,5.71,5.71,0,0,1-.1.83q-0.1.58-.26,1.39c-0.1.54-.22,1.13-0.35,1.77s-0.24,1.3-.35,2-0.19,1.34-.26,2a17.72,17.72,0,0,0-.1,1.82,6.4,6.4,0,0,0,.35,2.29,1.17,1.17,0,0,0,1.09.9,1.9,1.9,0,0,0,.78-0.2,7.85,7.85,0,0,0,.94-0.53,12.33,12.33,0,0,0,1-.75q0.53-.43,1-0.88,1.19-1.06,2.49-2.38l0.38,5-1.12.85-1.87,1.39a16.72,16.72,0,0,1-2,1.25,12.36,12.36,0,0,1-2.16.9,7.94,7.94,0,0,1-2.36.35q-1.24,0-2.08-1.79a12.69,12.69,0,0,1-.84-5.22,25.22,25.22,0,0,1,.18-2.91q0.18-1.56.45-3.36h-0.36l-5.88,11.68a2.89,2.89,0,0,1-1,1.26,2.48,2.48,0,0,1-1.3.34,2.35,2.35,0,0,1-2.35-1.45,5,5,0,0,1-.4-1.5A14.43,14.43,0,0,1,651.52,578.39Z"/><path class="cls-1" d="M679.93,583.08a8.42,8.42,0,0,1-3.7-.76,7.65,7.65,0,0,1-2.64-2.05,8.77,8.77,0,0,1-1.58-3,11.91,11.91,0,0,1-.53-3.56,15.79,15.79,0,0,1,1-5.41,14.43,14.43,0,0,1,1.27-2.57,10.27,10.27,0,0,1,1.79-2.16,8.21,8.21,0,0,1,2.29-1.48,7,7,0,0,1,2.82-.55,6.6,6.6,0,0,1,2.34.4,5.72,5.72,0,0,1,1.88,1.13,5.14,5.14,0,0,1,1.25,1.76,5.72,5.72,0,0,1,.45,2.31,6.28,6.28,0,0,1-.68,2.79,10.16,10.16,0,0,1-1.9,2.63,13.41,13.41,0,0,1-2.89,2.2,15.43,15.43,0,0,1-3.63,1.5,7.2,7.2,0,0,0,.66,1,3,3,0,0,0,.66.63,2.21,2.21,0,0,0,.71.31,3.38,3.38,0,0,0,.8.09,8.38,8.38,0,0,0,2.84-.54,18.61,18.61,0,0,0,2.91-1.35,24.5,24.5,0,0,0,2.67-1.76,22.68,22.68,0,0,0,2.13-1.81l2.9,3a29.6,29.6,0,0,1-4.2,3.62q-1,.67-2.08,1.33a18.83,18.83,0,0,1-2.34,1.16,16.4,16.4,0,0,1-2.54.81A11.87,11.87,0,0,1,679.93,583.08Zm-3-10.56a4.45,4.45,0,0,0,1.76-.42,7.89,7.89,0,0,0,1.78-1.07,7.54,7.54,0,0,0,1.38-1.42,2.52,2.52,0,0,0,.56-1.48,3.34,3.34,0,0,0-.37-1.66,1.07,1.07,0,0,0-.91-0.65,3.51,3.51,0,0,0-1.65.36,3.59,3.59,0,0,0-1.15.93,4.81,4.81,0,0,0-.74,1.3,8.89,8.89,0,0,0-.43,1.47,11.34,11.34,0,0,0-.19,1.44Q676.94,572,676.94,572.53Z"/><path class="cls-1" d="M715.35,578.68a38,38,0,0,1-3.14,2.2c-0.44.27-.89,0.54-1.37,0.8s-1,.49-1.41.7a11.47,11.47,0,0,1-1.36.49,4.45,4.45,0,0,1-1.22.19,4.8,4.8,0,0,1-.93-0.13,4.88,4.88,0,0,1-1.35-.55,6.26,6.26,0,0,1-1.46-1.2,6.92,6.92,0,0,1-1.27-2.09,22.11,22.11,0,0,1-1.76,1.54,13.64,13.64,0,0,1-1.93,1.27,11.76,11.76,0,0,1-2,.86,6.72,6.72,0,0,1-2.05.33,4.89,4.89,0,0,1-2.53-.63,5.47,5.47,0,0,1-1.77-1.67,7.63,7.63,0,0,1-1.06-2.37,10.73,10.73,0,0,1-.35-2.74,11.82,11.82,0,0,1,.37-2.91,13.36,13.36,0,0,1,1.08-2.85,14.37,14.37,0,0,1,1.72-2.61,13.13,13.13,0,0,1,5.08-3.76,10.87,10.87,0,0,1,3.21-.79,42.29,42.29,0,0,1,.52-5.68,43.92,43.92,0,0,1,1.19-5.35,33.48,33.48,0,0,1,1.74-4.69,20.33,20.33,0,0,1,2.19-3.73,10.47,10.47,0,0,1,2.54-2.46,5,5,0,0,1,2.79-.89,2.93,2.93,0,0,1,1.8.55,4.06,4.06,0,0,1,1.2,1.46,7.38,7.38,0,0,1,.66,2.11,15,15,0,0,1,.2,2.48q0,0.79-.07,1.62a33.59,33.59,0,0,1-1.08,6,55.13,55.13,0,0,1-1.84,5.49q-1.05,2.67-2.29,5.3t-2.4,5.46a7.71,7.71,0,0,0-.22.76q-0.11.45-.21,1t-0.17,1.08a8.78,8.78,0,0,0-.07,1.07,9.21,9.21,0,0,0,.08,1.24,4.6,4.6,0,0,0,.26,1,1.87,1.87,0,0,0,.48.73,1.09,1.09,0,0,0,.75.27,2.94,2.94,0,0,0,.93-0.17,7.22,7.22,0,0,0,1.07-.46q0.56-.29,1.13-0.66c0.38-.25.75-0.5,1.11-0.75q1.24-.9,2.58-2ZM699.9,566.1a9.4,9.4,0,0,0-2.64,1.9,12.18,12.18,0,0,0-1.93,2.55,12.88,12.88,0,0,0-1.18,2.76,9.11,9.11,0,0,0-.4,2.52,4,4,0,0,0,.1.9,2.08,2.08,0,0,0,.37.81,1.93,1.93,0,0,0,.76.58,3.12,3.12,0,0,0,1.28.22,1.72,1.72,0,0,0,.8-0.2,3.5,3.5,0,0,0,.75-0.53,5.91,5.91,0,0,0,.69-0.74,8.38,8.38,0,0,0,.6-0.86,15.49,15.49,0,0,0,1.14-2.34,7.62,7.62,0,0,1-.11-1c0-.46-0.05-1-0.07-1.53s0-1.14,0-1.74,0-1.15,0-1.64,0-.9,0-1.21A1.56,1.56,0,0,0,699.9,566.1Zm10.56-16.28q0.13-1.57.13-2.49a4.6,4.6,0,0,0-.21-1.68,0.67,0.67,0,0,0-.62-0.47,1.62,1.62,0,0,0-1.3.91,9.89,9.89,0,0,0-1,2.32,28.92,28.92,0,0,0-.79,3.12q-0.34,1.71-.56,3.3t-0.36,2.88c-0.09.85-.15,1.46-0.18,1.82q-0.09,1.1-.14,2.12c0,0.68-.06,1.3-0.08,1.87s0,1.05,0,1.47v1.19q1.28-2.92,2.36-5.82,0.45-1.23.91-2.59T709.4,555q0.38-1.37.66-2.7A22.93,22.93,0,0,0,710.45,549.82Z"/></svg>