<?xml version="1.0" encoding="utf-8"?>
<!-- Generator: Adobe Illustrator 19.0.0, SVG Export Plug-In . SVG Version: 6.00 Build 0)  -->
<svg version="1.1" id="Layer_1" xmlns="http://www.w3.org/2000/svg" xmlns:xlink="http://www.w3.org/1999/xlink" x="0px" y="0px"
	 viewBox="0 0 1280 800" style="enable-background:new 0 0 1280 800;" xml:space="preserve">
<style type="text/css">
	.st0{fill:#FFFFFF;}
</style>
<g id="XMLID_3_">
	<g id="XMLID_1_">
		<path id="XMLID_4_" class="st0" d="M38.4,102c8.1,3.5,34.3,3.2,50.2,3.2c0.5-2.8,0.9-7.2,4.2-6.6c1.5,0,2.8,0.4,2.8,1.1
			c0,0.6,1.2,1.1,2.7,0.8c2.4-0.3,2.5,0.4,2.8,4.9c0.3,6.7-3.6,11.4-8.7,10.2c-4.3-1-5.1-1.4-5.1-3.2c0-1.4-1-1.5-16-0.8
			c-2.5,0.1-4.2,0.7-3.3,1.1c1,0.7,1,2.9,0.1,9.1c-0.6,4.5-1,10.4-1,13.2c0.7,26.2,1.3,34.2,3.1,39c1.6,4.8,1.8,5.5,0,7
			c-2.3,2.5-5.3-0.1-7.8-0.1c-0.9-0.1-2.3-0.3-3.1-0.4c-2.4-0.3-2.5-2.5-4.6-53.6c-0.3-7.3-0.8-13.5-1-13.7
			c-1.4-1.1-13.6,0-16.9,1.5c-5.5,2.5-7.9,0.6-8.7-7c-0.6-6.3,1.8-8.6,4.9-10.1C34.5,97.7,39.7,101.9,38.4,102z"/>
		<path id="XMLID_6_" class="st0" d="M129.9,126.4c0.8-1,5.1-0.8,13.2,0.4c4,0.7,9.1,4.8,11.7,9.3c2.6,4.6,5.4,17.1,5.4,24
			c0,10.9-3.6,21.5-7.2,21.5c-1.2,0-2.5,0.6-2.9,1.1c-1.2,1.8-5.1,1.1-6-0.8c-0.8-1.8,2.1-5,5.5-6c1.8-0.6,2.3-16.3,0.9-25.8
			c-1-7.3-4.5-14.2-8.1-16c-1.2-0.7-4.3-1-6.9-1c-4.2,0-5.2,0.6-9,4.9c-3.9,4.3-4.5,5.9-5.5,14.6c-0.6,5.3-0.8,13.6-0.3,18.2
			c0.9,9.3,0.8,9.7-0.3,9.5c-0.3,0-1.3,1-2.2,2.1c-3,3.9-4.2,0.1-4.8-14.7c-0.9-16.8-2.7-46-0.9-58.5c0.5-0.8-0.1-1.8-1-2.1
			c-1.9-0.7-1.5-6.2,0.5-6.2c0.6,0,1-1,1-2.1c0-1.3,0.9-2.4,2.1-2.7c6.6-1.7,6.3-2.2,5.8,17.4l-0.3,18.1c1.8-0.8,6.3-3.1,6.4-4.5
			C127.2,126,129.4,127.8,129.9,126.4z"/>
		<path id="XMLID_8_" class="st0" d="M181.9,166.2c4.2,5.9,9.6,8.1,19.9,8.1c7.8,0,8.9-0.3,13.2-3.5c5.3-3.9,6.9-3.4,7.2,2.1
			c0.1,2.5-1,3.1-6.1,5.7c-7,3.6-26.8,3.8-34.2,0.1c-5.7-2.8-7-3.4-9.6-8.6c-4.2-8.3-4.2-19.9,0-30.6c3.4-8.7,7.6-12.6,16.8-16
			c6.9-2.4,17.1-1.8,21.4,1.1c1.5,1.3,5.1,5.2,7.9,9.1c5.9,8,6.1,11.5,1.1,16.1c-5,4.8-10.2,6-24.6,6
			C177.7,156.1,175.5,157.7,181.9,166.2z M189.6,131.5c-4.6,0.8-12.6,13.6-10,16c0.6,0.6,7.5,1.4,15.3,1.7
			c15.1,0.8,15.1,0.8,17.8-5.2c1.8-3.8-0.1-7.3-5.4-10.7C203.4,130.9,197.1,130.2,189.6,131.5z"/>
		<path id="XMLID_11_" class="st0" d="M325.2,146.2c-7.5,2.5-8.4,3.4-20.7,2.9l-10.6-0.3v12.8c0.2,17.1,0.2,18.2-0.8,17.4
			c-0.3-0.4-1.2,0.1-2.1,1.1c-1.4,1.7-1.6,1.5-4.4-0.4c-2.8-2-3-2.5-3.3-16.4c-0.6-18.9-0.6-23.3,0.3-36.7c0.8-11.5,1.3-14,3.1-12.9
			c0.6,0.3,1.4-0.3,1.7-1.4c1-2.9,9.7-6.9,16.6-7.2c10.2-0.6,20.5,0.3,24.7,2c4.4,1.8,15.3,11.5,14.4,17.7c0.1,2.7-0.3,5.2-0.9,5.5
			c-0.6,0.4-1,1.4-1,2.4C342.3,135.3,330.4,144.8,325.2,146.2z M311.1,113.2c-10.2,2.1-14.4,3.4-17.1,5.5c-2.6,1.8-2.6,2.8-2.3,10.8
			c0.3,4.9,0.8,9.1,1,9.5c3.6,0.6,25.5-0.6,32.2-0.8l5.3-4.5c4.8-4.3,5.1-4.8,4.2-9C332.4,114.4,325.8,109.9,311.1,113.2z"/>
		<path id="XMLID_14_" class="st0" d="M375.7,166.2c4.2,5.9,9.6,8.1,19.9,8.1c7.8,0,8.8-0.3,13.2-3.5c5.3-3.9,6.9-3.4,7.2,2.1
			c0.1,2.5-1,3.1-6.1,5.7c-7,3.6-26.8,3.8-34.2,0.1c-5.7-2.8-7-3.4-9.6-8.6c-4.2-8.3-4.2-19.9,0-30.6c3.4-8.7,7.6-12.6,16.8-16
			c6.9-2.4,17.1-1.8,21.4,1.1c1.5,1.3,5.1,5.2,7.9,9.1c5.9,8,6.1,11.5,1.1,16.1c-5,4.8-10.2,6-24.6,6
			C371.5,156.1,369.3,157.7,375.7,166.2z M383.4,131.5c-4.6,0.8-12.6,13.6-10,16c0.6,0.6,7.5,1.4,15.3,1.7
			c15.1,0.8,15.1,0.8,17.8-5.2c1.8-3.8-0.1-7.3-5.4-10.7C397.2,130.9,390.9,130.2,383.4,131.5z"/>
		<path id="XMLID_17_" class="st0" d="M449.8,124.7c2.6,1,5.7,2.9,7,4.6c2.1,2.7,2.1,3.4,0.8,5.2c-1.5,2-1.8,2-5.1-1
			c-4.4-3.9-8.5-3.2-11.8,1.8c-3,4.5-3.4,8.6-3.8,29.3c-0.3,15.3-0.8,17.2-2.7,18.7c-3.4,2.2-2.7-0.7-6-1c-1.9-0.3-2.4-1.3-2.2-4.8
			c0.1-6.5,0.6-30.6,0.9-40.5c3.6-3.5,11.2-11.1,14.4-12.8C444.3,122.6,444.6,122.8,449.8,124.7z"/>
		<path id="XMLID_19_" class="st0" d="M509.2,135.1c2.1,3.1-0.1,6.2-4.5,6.2c-3,0-3.4-0.4-3.1-3.6c0.5-4.8-3-6.9-11.1-6.9
			c-7.2,0-9.7,1.8-9.7,7.2c0,4.6,0.5,5,12.9,10.8c8.5,3.9,10.3,5.3,12.3,9c3,5.9,3.1,12.5,0.1,16.3c-2.4,2.8-10,6.5-19,8.6
			c-3.8,1-5.8,0.8-10-0.6c-8.2-2.5-9.7-4.6-9.4-14.3c0.1-3.9,3.6-8.1,6.6-8.1c1.9,0,2.3,1.4,1.9,7.4c-0.4,5.3,1.5,6.9,8.5,6.9
			c8.5,0,11.2-1,13.2-4.5c3.1-5.7,1.4-12.1-3.4-12.1c-0.9,0-2.1-0.4-2.4-0.8c0-1.1-13.5-3.6-13.6-4.8c0-0.4-1.5-1.3-3.4-2.1
			c-4.5-1.8-6.3-6.2-5.4-12.6c1.2-6.7,7.6-12.3,15.7-13.3c9.4-1,8.7-3.6,17.2,2.1c3,2.2,5.4,4.9,5.4,5.7S508.5,133.9,509.2,135.1z"
			/>
		<path id="XMLID_21_" class="st0" d="M526.5,170.2c-3.8-3.8-7.3-13.5-7.3-20.2c0-5.5,2.4-11.6,5.5-14.6c0.9-0.8,2.2-2.9,3.1-4.5
			c2-3.4,6.1-7,10.9-9.4c5.7-2.8,13.5-2.2,25.2,2.1c6.1,2.4,11.5,5,12.9,6.7c7.5,8.7,5.1,34.5-3.8,42.8c-3.4,3.2-16.2,7.3-22.6,7.3
			C544.8,180.4,530.7,174.4,526.5,170.2z M541,169.3c3.6,2.2,5.1,2.5,11.8,2.1c4.2-0.3,8.1-0.8,8.5-1.5c0.5-0.6,2.1-1.7,3.8-2.5
			c4.6-2.4,7.2-6.3,7.9-12.6c0.9-7.6-3-15.3-10.3-20.5c-6.6-4.5-4.8-3.4-14.5-2.5c-11.4,1.1-17.2,7.7-17.2,19.5
			C531,157,536.1,166.1,541,169.3z"/>
		<path id="XMLID_24_" class="st0" d="M630.1,170.7c1.5-10.9,1.1-21.5-1.2-28.2c-1.6-5-3.1-6.9-7-9.5c-5.7-3.9-10.5-4.2-15.9-1.1
			c-7,3.9-9.9,13.5-9,30.1c0.3,7.6,0.1,11.2-0.8,12.3c-0.9,0.8-1.2,2.4-0.8,3.2c0.5,1.3,0.3,1.4-1.5,0.6c-1.2-0.6-2.4-2.2-2.7-3.5
			c-1.4-5.6-1.1-25,0.3-30c4-12.6,11.4-21.5,23.5-22.6c0.9-0.1,6.3,3.2,7.6,2.4c2.4-0.8,9.6,7.9,12.4,14.7c2.4,6,2.4,7.9,1.8,20.8
			c-0.8,14.4-1.5,17.2-5.5,17.2C629.5,177.2,629.2,176.6,630.1,170.7z"/>
		<path id="XMLID_26_" class="st0" d="M680,132.4c-7.6-5.5-21.6-2.9-25.9,4.6c-0.9,1.8-2.3,2.5-4.4,2.2c-2.5-0.3-3.1-1-3.4-3.8
			c-0.5-4.1,4.5-11.8,9.1-14.3c4.5-2.4,17.8-1.3,24.7,2c4.2,2.1,6,3.9,8.7,9.3c3.2,6,3.6,7.6,4.2,22.6c0.6,18.5,0,17.4-3.9,25.8
			l-13.6-0.7c-14.8-0.7-17.5-1.3-23.4-6.2c-3.6-2.9-4.2-4.1-4.6-9.8c-0.5-5.7-0.2-6.7,2.8-10.1c7.5-8.4,19-11.8,33.6-10.2
			C683.9,138.1,684.5,135.3,680,132.4z M666.1,172c11.7,1.5,18.9-3.6,18.9-13.6c0-3.4-0.6-4.8-2.5-6c-4.2-2.8-11.5-2.2-17.7,1.4
			c-5.8,3.5-6.9,5-6.9,11.2C657.8,169.9,659.2,171.2,666.1,172z"/>
		<path id="XMLID_29_" class="st0" d="M711.2,105.1c2,6.6,4.6,57.1,3.5,66.8c-0.6,4.5-1.2,5.5-4.2,6.9c-2.5,1.3-3.9,1.4-4.8,0.6
			c-0.8-0.7-1.3-8-1.7-17.4c0.2-12.9-2.1-45.7-1.3-57.1C704.2,102.9,710.5,103,711.2,105.1z"/>
		<path id="XMLID_31_" class="st0" d="M817,146.2c-7.5,2.5-8.4,3.4-20.7,2.9l-10.6-0.3v12.8c0.2,17.1,0.2,18.2-0.8,17.4
			c-0.3-0.4-1.2,0.1-2.1,1.1c-1.3,1.7-1.7,1.5-4.3-0.4c-2.9-2-3-2.5-3.3-16.4c-0.6-18.9-0.6-23.3,0.3-36.7c0.8-11.5,1.3-14,3.1-12.9
			c0.6,0.3,1.4-0.3,1.7-1.4c1-2.9,9.7-6.9,16.6-7.2c10.2-0.6,20.5,0.3,24.7,2c4.3,1.8,15.3,11.5,14.4,17.7c0.1,2.7-0.3,5.2-0.9,5.5
			c-0.6,0.4-1,1.4-1,2.4C834.1,135.3,822.2,144.8,817,146.2z M802.9,113.2c-10.2,2.1-14.4,3.4-17.1,5.5c-2.5,1.8-2.5,2.8-2.3,10.8
			c0.3,4.9,0.8,9.1,1,9.5c3.6,0.6,25.5-0.6,32.2-0.8l5.2-4.5c4.8-4.3,5.1-4.8,4.2-9C824.2,114.4,817.6,109.9,802.9,113.2z"/>
		<path id="XMLID_34_" class="st0" d="M868.9,124.7c2.5,1,5.7,2.9,7,4.6c2.1,2.7,2.1,3.4,0.8,5.2c-1.5,2-1.8,2-5.1-1
			c-4.3-3.9-8.5-3.2-11.8,1.8c-3,4.5-3.5,8.6-3.8,29.3c-0.3,15.3-0.8,17.2-2.7,18.7c-3.4,2.2-2.7-0.7-6-1c-2-0.3-2.4-1.3-2.3-4.8
			c0.1-6.5,0.6-30.6,0.9-40.5c3.6-3.5,11.3-11.1,14.4-12.8C863.3,122.6,863.6,122.8,868.9,124.7z"/>
		<path id="XMLID_36_" class="st0" d="M893.9,170.2c-3.8-3.8-7.3-13.5-7.3-20.2c0-5.5,2.4-11.6,5.5-14.6c0.9-0.8,2.3-2.9,3.1-4.5
			c2-3.4,6.2-7,11-9.4c5.7-2.8,13.5-2.2,25.2,2.1c6.2,2.4,11.5,5,12.9,6.7c7.5,8.7,5.1,34.5-3.7,42.8c-3.5,3.2-16.2,7.3-22.6,7.3
			C912.2,180.4,898.1,174.4,893.9,170.2z M908.5,169.3c3.6,2.2,5.1,2.5,11.8,2.1c4.2-0.3,8.1-0.8,8.5-1.5c0.5-0.6,2.1-1.7,3.8-2.5
			c4.7-2.4,7.2-6.3,8-12.6c0.9-7.6-3-15.3-10.3-20.5c-6.6-4.5-4.8-3.4-14.5-2.5c-11.4,1.1-17.2,7.7-17.2,19.5
			C898.4,157,903.5,166.1,908.5,169.3z"/>
		<path id="XMLID_39_" class="st0" d="M964.4,204.7c-6.5-4.3-8.4-13.2-4.6-20.2c2.4-4.2,3.7-5.2,7.3-5.2c2.4,0,2.5,0.6,1.8,2.5
			c-0.5,1.4-1.7,3.8-2.9,5.2c-3.3,3.9-3,7.4,1.7,11.8c4.6,4.3,9.4,4.8,17.4,1.8l4.9-1.7c-0.6-11.6-1.6-34.4-2.2-42.9
			c-0.3-7.3,2.5-22.4,4.6-25.1c1.3-1.8,3.5-1.5,6.1,0.3c2,1.3,2,1.8,0.6,5.2c-1.8,3.9-2,27.2-0.3,48.2c0.9,10.5,0.8,11.9-1.8,16.8
			c-2.4,4.9-3.1,5.5-8.7,7.2c-7.6,2.1-19.9,2.2-19.9,0.3C968.5,208.2,966.7,206.2,964.4,204.7z M994.9,100.8
			c1.5,1.8,4.2-1.1,5.7-0.3c1.7,1,0.9,6.5-1.2,8.8c-3.1,3.6-5.7,4.1-9.1,1.3c-3-2.5-3.1-2.8-1.2-6.2c1-2,2.5-3.2,3.2-2.9
			C993.8,102.6,992.5,98.5,994.9,100.8z"/>
		<path id="XMLID_42_" class="st0" d="M1023.2,166.2c4.2,5.9,9.6,8.1,19.9,8.1c7.8,0,8.8-0.3,13.2-3.5c5.3-3.9,6.9-3.4,7.2,2.1
			c0.2,2.5-1,3.1-6.1,5.7c-7,3.6-26.8,3.8-34.2,0.1c-5.7-2.8-7-3.4-9.6-8.6c-4.2-8.3-4.2-19.9,0-30.6c3.5-8.7,7.7-12.6,16.8-16
			c6.9-2.4,17.1-1.8,21.4,1.1c1.5,1.3,5.1,5.2,7.9,9.1c5.8,8,6.1,11.5,1,16.1c-4.9,4.8-10.2,6-24.6,6
			C1019,156.1,1016.8,157.7,1023.2,166.2z M1030.9,131.5c-4.7,0.8-12.6,13.6-10,16c0.6,0.6,7.5,1.4,15.3,1.7
			c15.1,0.8,15.1,0.8,17.8-5.2c1.8-3.8-0.2-7.3-5.4-10.7C1044.7,130.9,1038.4,130.2,1030.9,131.5z"/>
		<path id="XMLID_45_" class="st0" d="M1126.9,143.5c-1.6,2-1.8,2-4.8-1.5c-2.4-2.8-3.4-3.2-4.6-2.4s-2.1,0.1-4-2.7
			c-3.2-4.8-5.7-5.5-11.8-3.9c-5.4,1.3-13.5,9-15.6,15c-1.6,4.8-0.9,14.2,1.5,18.5c2.1,4.2,7,6.9,14.4,7.9c5.4,0.7,5.7,0.6,9.8-3.5
			c2.3-2.4,4.8-5.5,5.5-7c1.9-3.8,4.9-3.9,6.6-0.6c3.3,6.6-4.5,17.7-14.4,20.6c-12.1,3.6-28.3-1.5-33.3-10.7
			c-3.6-6.5-3.3-24.4,0.3-31.4c3.3-6.5,9.6-11.8,17.2-14.6c3.5-1.3,6.6-2.7,7-3.1c0.9-0.8,11,0.3,14.7,1.5
			c2.6,0.8,13.3,12.3,13.3,14.2C1128.7,140.7,1127.8,142.3,1126.9,143.5z"/>
		<path id="XMLID_47_" class="st0" d="M1179.1,167.2c3.4,1.7,3,14.3-0.6,14.3c-0.8,0-2.4,1-3.6,2.2c-3,3.2-9.3,2.8-14.5-1
			c-9.7-6.9-10-7.3-10.6-28.6c-0.4-17.9-0.6-18.5-4.8-17.9c-3.1,0-7.2-0.3-7.2-4.3c0-4.3,2.8-6.7,7.6-6.7c2.7,0,3.9-0.4,3.6-1.4
			c-0.3-0.7-1-5.2-1.6-10.1c-0.9-8-0.8-9.3,1.2-12.5c1.8-2.7,3.1-3.6,5.1-3.4c2.4,0.3,2.4,1.1,2.7,12.3c0.3,15.4,0.2,15.4,6.9,14.6
			c5.3-0.7,5.5-0.4,7,2.9c2.3,5.2,0.6,7.2-6.8,8.3l-6.3,0.8c-0.2,12.2,2.8,29.9,6.6,37.2c1.5,2.4,7.2,4.8,9.5,0.8
			c1.2-1.4,2.2-3.6,2.2-4.9C1175.5,166.8,1176.5,166,1179.1,167.2z"/>
		<path id="XMLID_49_" class="st0" d="M1201.1,135.4c-1,3.8-3.6,4.6-7.8,2.8c-4.9-1.5-2.4-5.2-0.2-7.3
			C1197.2,128.1,1202.3,130.9,1201.1,135.4z M1198,184.2c-2.4,1.5-2.9,1.5-4.8-0.1c-2.5-2.2-2.7-5.6-0.1-9c0.9-1.3,2.4-2.4,3.3-2.4
			C1201,172.7,1202.3,181.4,1198,184.2z"/>
		<path id="XMLID_52_" class="st0" d="M201.6,282.6c2.3,2.8,2.6,4.1,4.6,16c1.5,9.1,4.4,16.3,12.3,31.7c3.6,7.2,6.6,13.5,6.6,14
			s1.4,1.3,3,1.7c3,0.7,3.4,1.4,2.2,4.2c-0.6,1.4-2.5,1.8-9.3,1.8c-10.2,0-13.2-1.8-8.5-5.2c3.3-2.4,3.1-2.9-3.3-15.6l-3.4-7
			c-12.4,0.7-26.4,1.7-37.5,2.5l-3,6.2c-4.3,9.3-4.6,12.8-1.4,14c6.5,2.7,2.9,5-7.5,5c-7.3,0-11.5-1.7-11.5-4.5
			c0-1.7,0.8-2.1,3.3-2.1c2.8,0,3.6-0.7,4.6-4.2c2.8-8,10.3-25,12.3-34.9c2.8-12.6,4.2-11.4,8.1-22c3.3-10,6.6-11.6,16.2-12.8
			c2.9-0.1,9.8,4.8,9.8,7C199.2,279.4,200.3,281.1,201.6,282.6z M184.7,292.5c-2.3,5.6-5.7,11.9-10.9,20.5c-2.6,4.1-2.7,4.6-0.9,5.3
			c3,1.1,22.3,0.7,26.2-0.6l3.6-1.3c-4.5-11.6-6.9-11.4-12.3-25c-1.2-2.5-2.5-4.6-3-4.6C187.1,286.9,185.9,289.4,184.7,292.5z"/>
		<path id="XMLID_55_" class="st0" d="M333,314.5c-7.5,2.5-8.4,3.4-20.7,2.9l-10.6-0.3v12.8c0.2,17.1,0.2,18.2-0.8,17.4
			c-0.3-0.4-1.2,0.1-2.1,1.1c-1.4,1.7-1.6,1.5-4.4-0.4c-2.8-2-3-2.5-3.3-16.4c-0.6-18.9-0.6-23.3,0.3-36.7c0.8-11.5,1.3-14,3.1-12.9
			c0.6,0.3,1.4-0.3,1.7-1.4c1-2.9,9.7-6.9,16.6-7.2c10.2-0.6,20.5,0.3,24.7,2c4.4,1.8,15.3,11.5,14.4,17.7c0.1,2.7-0.3,5.2-0.9,5.5
			c-0.6,0.4-1,1.4-1,2.4C350.1,303.5,338.3,313.1,333,314.5z M318.9,281.5c-10.2,2.1-14.4,3.4-17.1,5.5c-2.6,1.8-2.6,2.8-2.3,10.8
			c0.3,4.9,0.8,9.1,1,9.5c3.6,0.6,25.5-0.6,32.2-0.8l5.3-4.5c4.8-4.3,5.1-4.8,4.2-9C340.2,282.6,333.6,278.2,318.9,281.5z"/>
		<path id="XMLID_58_" class="st0" d="M384.9,293c2.6,1,5.7,2.9,7,4.6c2.1,2.7,2.1,3.4,0.8,5.2c-1.5,2-1.8,2-5.1-1
			c-4.4-3.9-8.5-3.2-11.8,1.8c-3,4.5-3.4,8.6-3.8,29.3c-0.3,15.3-0.8,17.2-2.7,18.7c-3.4,2.2-2.7-0.7-6-1c-1.9-0.3-2.4-1.3-2.2-4.8
			c0.1-6.5,0.6-30.6,0.9-40.5c3.6-3.5,11.2-11.1,14.4-12.8C379.4,290.9,379.7,291.1,384.9,293z"/>
		<path id="XMLID_60_" class="st0" d="M410,338.5c-3.8-3.8-7.3-13.5-7.3-20.2c0-5.5,2.4-11.6,5.5-14.6c0.9-0.8,2.2-2.9,3.1-4.5
			c1.9-3.4,6.1-7,10.9-9.4c5.7-2.8,13.5-2.2,25.2,2.1c6.1,2.4,11.5,5,12.9,6.7c7.5,8.7,5.1,34.5-3.8,42.8
			c-3.4,3.2-16.2,7.3-22.6,7.3C428.3,348.7,414.2,342.7,410,338.5z M424.5,337.6c3.6,2.2,5.1,2.5,11.8,2.1c4.2-0.3,8.1-0.8,8.5-1.5
			c0.4-0.6,2.1-1.7,3.7-2.5c4.6-2.4,7.2-6.3,7.9-12.6c0.9-7.6-3-15.3-10.3-20.5c-6.6-4.5-4.8-3.4-14.5-2.5
			c-11.4,1.1-17.2,7.7-17.2,19.5C414.5,325.3,419.6,334.4,424.5,337.6z"/>
		<path id="XMLID_63_" class="st0" d="M527.3,311.8c-1.6,2-1.8,2-4.8-1.5c-2.4-2.8-3.4-3.2-4.6-2.4c-1.2,0.8-2.1,0.1-4-2.7
			c-3.1-4.8-5.7-5.5-11.8-3.9c-5.4,1.3-13.5,9-15.6,15c-1.6,4.8-0.9,14.2,1.5,18.5c2.1,4.2,7,6.9,14.4,7.9c5.4,0.7,5.7,0.6,9.7-3.5
			c2.3-2.4,4.8-5.5,5.5-7c2-3.8,4.9-3.9,6.6-0.6c3.3,6.6-4.5,17.7-14.4,20.6c-12.1,3.6-28.3-1.5-33.3-10.7
			c-3.6-6.5-3.3-24.4,0.3-31.4c3.3-6.5,9.6-11.8,17.2-14.6c3.4-1.3,6.6-2.7,7-3.1c0.9-0.8,10.9,0.3,14.7,1.5
			c2.5,0.8,13.3,12.3,13.3,14.2C529.1,309,528.2,310.5,527.3,311.8z"/>
		<path id="XMLID_65_" class="st0" d="M550.8,334.5c4.2,5.9,9.6,8.1,19.9,8.1c7.8,0,8.9-0.3,13.2-3.5c5.3-3.9,6.9-3.4,7.2,2.1
			c0.1,2.5-1,3.1-6.1,5.7c-7,3.6-26.8,3.8-34.2,0.1c-5.7-2.8-7-3.4-9.6-8.6c-4.2-8.3-4.2-19.9,0-30.6c3.4-8.7,7.6-12.6,16.8-16
			c6.9-2.4,17.1-1.8,21.4,1.1c1.5,1.3,5.1,5.2,7.9,9.1c5.9,8,6.1,11.5,1.1,16.1c-5,4.8-10.2,6-24.6,6
			C546.6,324.4,544.4,326,550.8,334.5z M558.5,299.8c-4.6,0.8-12.6,13.6-10,16c0.6,0.6,7.5,1.4,15.3,1.7c15.1,0.8,15.1,0.8,17.8-5.2
			c1.8-3.8-0.1-7.3-5.4-10.7C572.3,299.2,566,298.5,558.5,299.8z"/>
		<path id="XMLID_68_" class="st0" d="M642.8,303.4c2.1,3.1-0.1,6.2-4.5,6.2c-3,0-3.4-0.4-3.1-3.6c0.5-4.8-3-6.9-11.1-6.9
			c-7.2,0-9.7,1.8-9.7,7.2c0,4.6,0.5,5,12.9,10.8c8.5,3.9,10.3,5.3,12.3,9c3,5.9,3.1,12.5,0.1,16.3c-2.4,2.8-10,6.5-19,8.6
			c-3.8,1-5.8,0.8-10-0.6c-8.2-2.5-9.7-4.6-9.4-14.3c0.1-3.9,3.6-8.1,6.6-8.1c1.9,0,2.3,1.4,1.9,7.4c-0.4,5.3,1.5,6.9,8.5,6.9
			c8.5,0,11.2-1,13.2-4.5c3.1-5.7,1.4-12.1-3.4-12.1c-0.9,0-2.1-0.4-2.4-0.8c0-1.1-13.5-3.6-13.6-4.8c0-0.4-1.5-1.3-3.4-2.1
			c-4.5-1.8-6.3-6.2-5.4-12.6c1.2-6.7,7.6-12.3,15.7-13.3c9.4-1,8.7-3.6,17.2,2.1c3,2.2,5.4,4.9,5.4,5.7
			C641.4,300.6,642,302.1,642.8,303.4z"/>
		<path id="XMLID_70_" class="st0" d="M694.4,303.4c2.1,3.1-0.2,6.2-4.5,6.2c-3,0-3.5-0.4-3.1-3.6c0.4-4.8-3-6.9-11.1-6.9
			c-7.2,0-9.8,1.8-9.8,7.2c0,4.6,0.5,5,12.9,10.8c8.5,3.9,10.3,5.3,12.3,9c3,5.9,3.1,12.5,0.1,16.3c-2.4,2.8-10,6.5-19,8.6
			c-3.8,1-5.8,0.8-10-0.6c-8.2-2.5-9.7-4.6-9.4-14.3c0.1-3.9,3.6-8.1,6.6-8.1c2,0,2.3,1.4,2,7.4c-0.5,5.3,1.5,6.9,8.5,6.9
			c8.5,0,11.2-1,13.2-4.5c3.1-5.7,1.3-12.1-3.5-12.1c-0.9,0-2.1-0.4-2.4-0.8c0-1.1-13.5-3.6-13.6-4.8c0-0.4-1.5-1.3-3.5-2.1
			c-4.5-1.8-6.3-6.2-5.4-12.6c1.2-6.7,7.6-12.3,15.7-13.3c9.4-1,8.7-3.6,17.2,2.1c3,2.2,5.4,4.9,5.4,5.7
			C693,300.6,693.6,302.1,694.4,303.4z"/>
		<path id="XMLID_72_" class="st0" d="M828.2,269c2.5,1.8,2.7,3.5,0.3,3.5c-0.9,0-1.8,0.4-1.8,1c0,0.4-5.1,1.3-11.4,1.5
			c-9.1,0.4-11.8,1-13,2.5c-1,1.3-1.5,6.2-1.7,14.2c0,22-1.9,49.6-3.6,52.9c-2.1,4.3-7.5,6.3-17.7,6.6c-11.7,0.3-18.6-2.8-22.3-10.4
			c-2.6-5.2-2.6-5.2-0.5-11.6c1.3-3.8,3.6-7.7,5.5-9.5c3.8-3.2,6.7-3.8,6.7-1.4c0,2.2,2.3,4.6-1,5.3c-3.9,0.8-6.1,9.5-4,14.6
			c1.4,3.1,10.8,6.6,15.9,5.7c6.5-1,10.2-2.8,11.1-5.6c1.5-7.2,1.7-48,0-62h-11.2c-9.2-0.1-11.7-0.3-13.8-2.1c-3-2.4-2-5.7,2.3-6.3
			c1.5-0.3,15.3-0.4,30.6-0.4C820.4,267.5,826.7,267.8,828.2,269z"/>
		<path id="XMLID_74_" class="st0" d="M846.5,338.5c-3.8-3.8-7.3-13.5-7.3-20.2c0-5.5,2.4-11.6,5.5-14.6c0.9-0.8,2.3-2.9,3.1-4.5
			c2-3.4,6.2-7,11-9.4c5.7-2.8,13.5-2.2,25.2,2.1c6.2,2.4,11.5,5,12.9,6.7c7.5,8.7,5.1,34.5-3.7,42.8c-3.5,3.2-16.2,7.3-22.6,7.3
			C864.8,348.7,850.7,342.7,846.5,338.5z M861,337.6c3.6,2.2,5.1,2.5,11.8,2.1c4.2-0.3,8.1-0.8,8.5-1.5c0.5-0.6,2.1-1.7,3.8-2.5
			c4.6-2.4,7.2-6.3,8-12.6c0.9-7.6-3-15.3-10.3-20.5c-6.6-4.5-4.8-3.4-14.5-2.5c-11.4,1.1-17.2,7.7-17.2,19.5
			C851,325.3,856.1,334.4,861,337.6z"/>
		<path id="XMLID_77_" class="st0" d="M957.2,300.2c3.3,7,3.5,10.8,0.8,25.9c-2.8,16.4-3.9,18.1-13,20.9
			c-14.5,4.5-24.7,0.8-29.8-10.9c-4.6-10.7-5.7-19.1-3.8-30.7c0.9-4.6,1.4-5.6,5-6.9c5.3-2.1,6.8-1.1,5.8,3.8
			c-0.8,4.5-0.9,22,0,27.5c0.5,4.2,3.6,10.9,5.5,12.1c10.9,1.7,15-1.8,21.1-11.6c4-7,4.9-13.2,3.3-22.3c-0.8-4.2-1-8.7-0.6-10
			C952.7,294.6,954.8,295.3,957.2,300.2z"/>
		<path id="XMLID_79_" class="st0" d="M992.7,293c2.5,1,5.7,2.9,7,4.6c2.1,2.7,2.1,3.4,0.8,5.2c-1.5,2-1.8,2-5.1-1
			c-4.3-3.9-8.5-3.2-11.8,1.8c-3,4.5-3.5,8.6-3.8,29.3c-0.3,15.3-0.8,17.2-2.7,18.7c-3.4,2.2-2.7-0.7-6-1c-2-0.3-2.4-1.3-2.3-4.8
			c0.1-6.5,0.6-30.6,0.9-40.5c3.6-3.5,11.3-11.1,14.4-12.8C987.2,290.9,987.5,291.1,992.7,293z"/>
		<path id="XMLID_81_" class="st0" d="M1050.2,339c1.5-10.9,1-21.5-1.2-28.2c-1.6-5-3.1-6.9-7-9.5c-5.7-3.9-10.5-4.2-15.9-1.1
			c-7,3.9-9.9,13.5-9,30.1c0.3,7.6,0.2,11.2-0.8,12.3c-0.9,0.8-1.2,2.4-0.8,3.2c0.5,1.3,0.3,1.4-1.5,0.6c-1.2-0.6-2.4-2.2-2.7-3.5
			c-1.3-5.6-1-25,0.3-30c4-12.6,11.4-21.5,23.5-22.6c0.9-0.1,6.3,3.2,7.6,2.4c2.4-0.8,9.6,7.9,12.4,14.7c2.4,6,2.4,7.9,1.8,20.8
			c-0.8,14.4-1.5,17.2-5.5,17.2C1049.6,345.5,1049.3,344.9,1050.2,339z"/>
		<path id="XMLID_83_" class="st0" d="M1100.1,300.7c-7.6-5.5-21.6-2.9-25.9,4.6c-0.9,1.8-2.3,2.5-4.4,2.2c-2.5-0.3-3.1-1-3.4-3.8
			c-0.5-4.1,4.5-11.8,9.1-14.3c4.5-2.4,17.8-1.3,24.7,2c4.2,2.1,6,3.9,8.7,9.3c3.2,6,3.6,7.6,4.2,22.6c0.6,18.5,0,17.4-3.9,25.8
			l-13.6-0.7c-14.8-0.7-17.5-1.3-23.4-6.2c-3.6-2.9-4.2-4.1-4.6-9.8c-0.5-5.7-0.2-6.7,2.8-10.1c7.5-8.4,19-11.8,33.6-10.2
			C1104,306.3,1104.6,303.5,1100.1,300.7z M1086.2,340.3c11.7,1.5,18.9-3.6,18.9-13.6c0-3.4-0.6-4.8-2.5-6
			c-4.2-2.8-11.5-2.2-17.7,1.4c-5.8,3.5-6.9,5-6.9,11.2C1077.9,338.2,1079.3,339.4,1086.2,340.3z"/>
		<path id="XMLID_86_" class="st0" d="M1131.3,273.4c2,6.6,4.6,57.1,3.5,66.8c-0.6,4.5-1.2,5.5-4.2,6.9c-2.5,1.3-3.9,1.4-4.8,0.6
			c-0.8-0.7-1.3-8-1.7-17.4c0.2-12.9-2.1-45.7-1.3-57.1C1124.3,271.1,1130.6,271.3,1131.3,273.4z"/>
		<path id="XMLID_88_" class="st0" d="M245.8,443.1c-1.2,0-2.6,0.3-3.2,0.7c-1.4,0.8-10.5-0.9-17.5-3.4c-7.3-2.5-9.4-2.2-14.1,2.4
			c-2.6,2.6-3.5,3.3-4.1,2.4c-0.9-1.4-0.9-2,0.4-4.2c1.3-2.2,5-5.7,6.8-6.3c2.6-0.8,9.4-0.1,18.8,2.4c7.2,2,14.3,1.7,17-0.7
			c2.4-2.2,3.6-2,3.6,0.4C253.5,439.6,249,443.1,245.8,443.1z"/>
		<path id="XMLID_90_" class="st0" d="M273.4,419.6c0.6-0.8,1.7-1.5,2.4-1.5c0.8,0,1.4-0.4,1.4-0.7c0-1.3,1.4-0.8,1.8,0.7
			c0.4,1.9-2.3,5.3-3.5,6.8l2.9,4.5c2.9,4.7,2.9,5.6-0.5,5.7c-2.1,0-6.1-2.4-7-4.4c-0.9-1.8-0.9-1.8-2-0.4c-1.6,2.1-0.4,3.2-3.4,4.3
			c-2,1-2.4,1-3.6-0.2c-1.7-1.8-1.5-3.5,0.4-5.2c2.1-2,1.9-3.4-0.6-4.6c-2.7-1.2-2.9-3.8-0.5-4.1c0.9-0.2,2.2,0.4,2.9,0.9
			c1.7,1.6,2.2,1.4,1.6-0.7c-0.2-0.9,0.1-2.9,0.8-4.4c1.1-2.4,1.4-2.6,2.8-1.9c1.2,0.6,1.6,1.5,1.6,3.6
			C270.9,421.3,271.9,421.8,273.4,419.6z"/>
		<path id="XMLID_92_" class="st0" d="M326,443.1c-1.2,0-2.6,0.3-3.2,0.7c-1.4,0.8-10.5-0.9-17.5-3.4c-7.3-2.5-9.4-2.2-14.1,2.4
			c-2.6,2.6-3.5,3.3-4.1,2.4c-0.9-1.4-0.9-2,0.4-4.2c1.3-2.2,5-5.7,6.8-6.3c2.6-0.8,9.4-0.1,18.8,2.4c7.2,2,14.3,1.7,17-0.7
			c2.4-2.2,3.6-2,3.6,0.4C333.7,439.6,329.2,443.1,326,443.1z"/>
		<path id="XMLID_94_" class="st0" d="M615.8,443.1c-1.2,0-2.6,0.3-3.2,0.7c-1.4,0.8-10.5-0.9-17.5-3.4c-7.3-2.5-9.4-2.2-14.1,2.4
			c-2.6,2.6-3.5,3.3-4.1,2.4c-0.9-1.4-0.9-2,0.4-4.2c1.3-2.2,5-5.7,6.8-6.3c2.6-0.8,9.4-0.1,18.8,2.4c7.2,2,14.3,1.7,17-0.7
			c2.4-2.2,3.6-2,3.6,0.4C623.5,439.6,619,443.1,615.8,443.1z"/>
		<path id="XMLID_96_" class="st0" d="M643.4,419.6c0.6-0.8,1.7-1.5,2.4-1.5c0.8,0,1.4-0.4,1.4-0.7c0-1.3,1.4-0.8,1.8,0.7
			c0.4,1.9-2.3,5.3-3.5,6.8l2.9,4.5c2.9,4.7,2.9,5.6-0.5,5.7c-2.1,0-6.1-2.4-7-4.4c-0.9-1.8-0.9-1.8-2-0.4c-1.6,2.1-0.4,3.2-3.4,4.3
			c-2,1-2.4,1-3.6-0.2c-1.7-1.8-1.5-3.5,0.4-5.2c2.1-2,1.9-3.4-0.6-4.6c-2.7-1.2-2.9-3.8-0.5-4.1c0.9-0.2,2.2,0.4,2.9,0.9
			c1.7,1.6,2.2,1.4,1.6-0.7c-0.2-0.9,0.1-2.9,0.8-4.4c1.1-2.4,1.4-2.6,2.8-1.9c1.2,0.6,1.6,1.5,1.6,3.6
			C640.9,421.3,641.9,421.8,643.4,419.6z"/>
		<path id="XMLID_98_" class="st0" d="M696,443.1c-1.2,0-2.6,0.3-3.2,0.7c-1.4,0.8-10.5-0.9-17.5-3.4c-7.3-2.5-9.4-2.2-14.1,2.4
			c-2.6,2.6-3.5,3.3-4.1,2.4c-0.9-1.4-0.9-2,0.4-4.2c1.3-2.2,5-5.7,6.8-6.3c2.6-0.8,9.4-0.1,18.8,2.4c7.2,2,14.3,1.7,17-0.7
			c2.4-2.2,3.6-2,3.6,0.4C703.7,439.6,699.2,443.1,696,443.1z"/>
		<path id="XMLID_100_" class="st0" d="M985.8,443.1c-1.2,0-2.6,0.3-3.2,0.7c-1.4,0.8-10.5-0.9-17.5-3.4c-7.3-2.5-9.4-2.2-14.1,2.4
			c-2.6,2.6-3.5,3.3-4.1,2.4c-0.9-1.4-0.9-2,0.4-4.2c1.3-2.2,5-5.7,6.8-6.3c2.6-0.8,9.4-0.1,18.8,2.4c7.2,2,14.3,1.7,17-0.7
			c2.4-2.2,3.6-2,3.6,0.4C993.5,439.6,989,443.1,985.8,443.1z"/>
		<path id="XMLID_102_" class="st0" d="M1013.4,419.6c0.6-0.8,1.7-1.5,2.4-1.5c0.8,0,1.4-0.4,1.4-0.7c0-1.3,1.4-0.8,1.8,0.7
			c0.4,1.9-2.3,5.3-3.5,6.8l2.9,4.5c2.9,4.7,2.9,5.6-0.5,5.7c-2.1,0-6.1-2.4-7-4.4c-0.9-1.8-0.9-1.8-2-0.4c-1.6,2.1-0.4,3.2-3.4,4.3
			c-2,1-2.4,1-3.6-0.2c-1.7-1.8-1.5-3.5,0.4-5.2c2.1-2,1.9-3.4-0.6-4.6c-2.7-1.2-2.9-3.8-0.5-4.1c0.9-0.2,2.2,0.4,2.9,0.9
			c1.7,1.6,2.2,1.4,1.6-0.7c-0.2-0.9,0.1-2.9,0.8-4.4c1.1-2.4,1.4-2.6,2.8-1.9c1.2,0.6,1.6,1.5,1.6,3.6
			C1010.9,421.3,1011.9,421.8,1013.4,419.6z"/>
		<path id="XMLID_104_" class="st0" d="M1066,443.1c-1.2,0-2.6,0.3-3.2,0.7c-1.4,0.8-10.5-0.9-17.5-3.4c-7.3-2.5-9.4-2.2-14.1,2.4
			c-2.6,2.6-3.5,3.3-4.1,2.4c-0.9-1.4-0.9-2,0.4-4.2c1.3-2.2,5-5.7,6.8-6.3c2.6-0.8,9.4-0.1,18.8,2.4c7.2,2,14.3,1.7,17-0.7
			c2.4-2.2,3.6-2,3.6,0.4C1073.7,439.6,1069.2,443.1,1066,443.1z"/>
		<path id="XMLID_106_" class="st0" d="M235.1,558.5c1.7,2.6,1,8.4-1.4,11c-1.9,2-5.7,3.7-6.9,3c-0.4-0.2-0.7-0.1-0.7,0.3
			c0.3,0.9-17.1,2.2-24.8,2c-0.3-3.8-0.7-6.6-1.8-11.4c-1-4.2-1.3-8.8-1.3-19.4c0.1-15.2,0.7-18.5,3.5-17.7c2.3,0.7,1.7-2,4.1-1.4
			c0.9,0.2,2.6,0,3.6-0.3c2.4-0.8,9.9-0.5,13.4,0.7c3.5,1.1,8,3.6,8,4.7c0.1,0.4,1.1,1.9,2.4,3.3c4.3,4.7,2.8,9-4.8,14.3
			c-3.1,2.2-4.2,3.4-3.3,3.4C226.9,550.8,233.4,555.8,235.1,558.5z M219.4,528.5c-3.9-0.6-10.2,1.2-12.4,3.5
			c-1.6,1.6-1.9,3.8-0.6,4.6c0.5,0.3,0.6,0.9,0.1,1.7c-0.7,1.4-1.3,5.8-1.5,8.2h5.7c9.4,0,17.3-3.5,18.2-7.9
			c0.2-1.2,0.8-2.3,1.1-2.3c0.7-0.4-7.4-7.9-8-7.4C221.4,528.8,220.3,528.7,219.4,528.5z M209.9,553.9c-1.7,0.3-3.4,0.4-3.7,0.2
			c-0.9-0.6-1.7,8.6-0.8,10.3c0.4,0.8,1.1,2.4,1.7,3.6c0.9,2.3,1.4,2.4,10.1,1c12.4-2.1,14.2-2.9,13.1-6.2c-1.6-4.3-2.9-5.9-6-7.4
			C220.5,553.7,214.7,553.1,209.9,553.9z"/>
		<path id="XMLID_110_" class="st0" d="M275.2,545.6c2.7,1.6,2.9,29.1,4.7,34.7c3.2,10.1,1.5,14.7-5,17.6c-3,1.3-4.6,1.4-13.6,1.2
			c-12.8-0.2-14.7-1-17.4-6.7c-2.4-4.9-2.4-6-0.1-8.6c2-2.5,4.5-2.1,3.9,0.6c-0.2,0.9,0.3,3.3,1.2,5.1c1.9,3.8,1.6,3.7,11.8,2.6
			c8.1-0.8,11.4-2.4,12.8-6.5c0.9-2.5,0.8-3.4-0.2-5.7c-1.1-2.2-2.3-7.3-3.3-9.1c-0.2,0-1.5,0.6-3.2,1.2c-6.6,2.6-14.2,0.8-17.6-4
			c-2.1-3-1.8-16.3,0.5-20.9c0.9-2,2.1-3.6,2.7-3.4c1.8,0.6,2.3,5,1,9.1c-1.5,4.8-1.5,7.1-0.1,10.2c1.5,3.5,4.6,5,9.6,5
			c6.1,0.1,7.3-1.3,7.5-8.3c0.1-2.9-0.1-6.5-0.4-7.9c-1.3-3.4,1.8-2.2,1.9-4.6C271.9,545.7,274.2,544.6,275.2,545.6z"/>
		<path id="XMLID_112_" class="st0" d="M361.1,536.2c-0.6-1.2-2.1-2.5-4.5-3.4c-3.3-1.2-4.4-1.3-11.6-0.6
			c-8.7,0.8-14.4,3.1-16.8,6.5c-1.8,2.6-2.9,13.4-2,18.7c1.2,5.9,2.9,9.1,6.3,11.6c2.5,1.8,3.8,2.1,8.1,2.1c4.5,0.1,6-0.4,11.9-3.1
			c7.8-3.6,9.3-5,9.9-8.5c0.4-2.4,0.3-2.6-2.1-3.5c-1.4-0.5-3.6-0.7-4.5-0.7c-1.7,0-1.8-0.4-1.8-3.5v-3.5c3.8,0.7,7.4,1,13.2,1.1
			c4.6,0.1,6.8,0.4,7.4,1.2c0.6,0.7,1,4.8,1.1,11.9c0.1,9.9-0.1,10.9-1.4,11.8c-2,1.2-5.1-1.7-5.5-5.1l-0.4-2.5
			c-1.1,4.5-6.7,8.2-11.9,9.7c-4.9,1.4-15.8,1.3-19.6,0.2c-6.4-2-12.2-7.7-14.8-14.7c-2.4-6.4-0.7-20.4,3.4-28
			c2.5-4.5,8.2-7.7,16.5-9.3c2.9-0.6,6.7-0.7,8.4-0.6c6.9,0.8,14,4.7,15.3,8.5c0.5,1.1,1.3,2.2,2,2.4c0.6,0.2,1.2,0.8,1.2,1.4
			C368.9,539.6,362.4,539.4,361.1,536.2z"/>
		<path id="XMLID_114_" class="st0" d="M394.8,539.9c0.5-0.7,3.4-0.6,8.8,0.3c2.7,0.5,6.1,3.2,7.8,6.2c1.7,3.1,3.6,11.4,3.6,16
			c0,7.3-2.4,14.3-4.8,14.3c-0.8,0-1.7,0.4-1.9,0.7c-0.8,1.2-3.4,0.7-4-0.6c-0.5-1.2,1.4-3.4,3.7-4c1.2-0.4,1.5-10.8,0.6-17.2
			c-0.7-4.9-3-9.4-5.4-10.7c-0.8-0.5-2.9-0.7-4.6-0.7c-2.8,0-3.5,0.4-6,3.3c-2.6,2.9-3,3.9-3.7,9.7c-0.4,3.6-0.5,9.1-0.2,12.2
			c0.6,6.2,0.5,6.5-0.2,6.4c-0.2,0-0.9,0.7-1.5,1.4c-2,2.6-2.8,0.1-3.2-9.8c-0.6-11.2-1.8-30.7-0.6-39c0.3-0.6-0.1-1.2-0.7-1.4
			c-1.3-0.5-1-4.1,0.3-4.1c0.4,0,0.7-0.7,0.7-1.4c0-0.8,0.6-1.6,1.4-1.8c4.4-1.1,4.2-1.5,3.9,11.6l-0.2,12.1c1.2-0.6,4.2-2.1,4.3-3
			C393,539.6,394.5,540.8,394.8,539.9z"/>
		<path id="XMLID_116_" class="st0" d="M443.5,543.9c-5.1-3.6-14.4-2-17.3,3.1c-0.6,1.2-1.5,1.7-2.9,1.5c-1.7-0.2-2.1-0.7-2.3-2.5
			c-0.3-2.7,3-7.9,6.1-9.5c3-1.6,11.9-0.8,16.5,1.3c2.8,1.4,4,2.6,5.8,6.2c2.1,4,2.4,5,2.8,15.1c0.4,12.3,0,11.6-2.6,17.2l-9.1-0.5
			c-9.9-0.5-11.7-0.8-15.6-4.1c-2.4-2-2.8-2.7-3.1-6.5c-0.3-3.8-0.1-4.5,1.9-6.7c5-5.6,12.7-7.9,22.4-6.8
			C446.1,547.6,446.5,545.8,443.5,543.9z M434.2,570.3c7.8,1,12.6-2.4,12.6-9.1c0-2.2-0.4-3.2-1.7-4c-2.8-1.9-7.7-1.5-11.8,0.9
			c-3.9,2.3-4.6,3.4-4.6,7.5C428.7,568.9,429.6,569.7,434.2,570.3z"/>
		<path id="XMLID_119_" class="st0" d="M486.2,545.7c1.4,2.1-0.1,4.1-3,4.1c-2,0-2.3-0.3-2.1-2.4c0.3-3.2-2-4.6-7.4-4.6
			c-4.8,0-6.5,1.2-6.5,4.8c0,3.1,0.3,3.4,8.6,7.2c5.7,2.6,6.9,3.6,8.2,6c2,3.9,2.1,8.3,0.1,10.8c-1.6,1.9-6.7,4.3-12.7,5.7
			c-2.5,0.7-3.9,0.6-6.7-0.4c-5.5-1.7-6.5-3.1-6.3-9.5c0.1-2.6,2.4-5.4,4.4-5.4c1.3,0,1.5,0.9,1.3,5c-0.3,3.6,1,4.6,5.7,4.6
			c5.7,0,7.5-0.7,8.8-3c2.1-3.8,0.9-8-2.3-8c-0.6,0-1.4-0.3-1.6-0.6c0-0.7-9-2.4-9.1-3.2c0-0.3-1-0.8-2.3-1.4
			c-3-1.2-4.2-4.1-3.6-8.4c0.8-4.5,5.1-8.2,10.5-8.9c6.3-0.7,5.8-2.4,11.5,1.4c2,1.5,3.6,3.3,3.6,3.8
			C485.3,543.8,485.7,544.8,486.2,545.7z"/>
		<path id="XMLID_121_" class="st0" d="M520.6,545.7c1.4,2.1-0.1,4.1-3,4.1c-2,0-2.3-0.3-2.1-2.4c0.3-3.2-2-4.6-7.4-4.6
			c-4.8,0-6.5,1.2-6.5,4.8c0,3.1,0.3,3.4,8.6,7.2c5.7,2.6,6.9,3.6,8.2,6c2,3.9,2.1,8.3,0.1,10.8c-1.6,1.9-6.7,4.3-12.7,5.7
			c-2.5,0.7-3.9,0.6-6.7-0.4c-5.5-1.7-6.5-3.1-6.3-9.5c0.1-2.6,2.4-5.4,4.4-5.4c1.3,0,1.5,0.9,1.3,5c-0.3,3.6,1,4.6,5.7,4.6
			c5.7,0,7.5-0.7,8.8-3c2.1-3.8,0.9-8-2.3-8c-0.6,0-1.4-0.3-1.6-0.6c0-0.7-9-2.4-9.1-3.2c0-0.3-1-0.8-2.3-1.4
			c-3-1.2-4.2-4.1-3.6-8.4c0.8-4.5,5.1-8.2,10.5-8.9c6.3-0.7,5.8-2.4,11.5,1.4c2,1.5,3.6,3.3,3.6,3.8
			C519.7,543.8,520.1,544.8,520.6,545.7z"/>
		<path id="XMLID_123_" class="st0" d="M549.7,543.9c-5.1-3.6-14.4-2-17.3,3.1c-0.6,1.2-1.5,1.7-2.9,1.5c-1.7-0.2-2.1-0.7-2.3-2.5
			c-0.3-2.7,3-7.9,6.1-9.5c3-1.6,11.9-0.8,16.5,1.3c2.8,1.4,4,2.6,5.8,6.2c2.1,4,2.4,5,2.8,15.1c0.4,12.3,0,11.6-2.6,17.2l-9.1-0.5
			c-9.9-0.5-11.7-0.8-15.6-4.1c-2.4-2-2.8-2.7-3.1-6.5c-0.3-3.8-0.1-4.5,1.9-6.7c5-5.6,12.7-7.9,22.4-6.8
			C552.3,547.6,552.7,545.8,549.7,543.9z M540.4,570.3c7.8,1,12.6-2.4,12.6-9.1c0-2.2-0.4-3.2-1.7-4c-2.8-1.9-7.7-1.5-11.8,0.9
			c-3.9,2.3-4.6,3.4-4.6,7.5C534.9,568.9,535.8,569.7,540.4,570.3z"/>
		<path id="XMLID_126_" class="st0" d="M591.1,569.4c1-7.3,0.7-14.3-0.8-18.8c-1.1-3.4-2.1-4.6-4.7-6.4c-3.8-2.6-7-2.8-10.6-0.7
			c-4.7,2.6-6.6,9-6,20.1c0.2,5,0.1,7.5-0.5,8.2c-0.6,0.6-0.8,1.6-0.5,2.2c0.3,0.8,0.2,0.9-1,0.4c-0.8-0.4-1.6-1.5-1.8-2.3
			c-0.9-3.7-0.7-16.6,0.2-20c2.7-8.4,7.6-14.3,15.7-15.1c0.6-0.1,4.2,2.2,5.1,1.6c1.6-0.6,6.4,5.2,8.3,9.8c1.6,4,1.6,5.2,1.2,13.8
			c-0.5,9.6-1,11.5-3.7,11.5C590.7,573.7,590.5,573.4,591.1,569.4z"/>
		<path id="XMLID_128_" class="st0" d="M658.8,550.8c0,5.7,0.1,21.8-0.4,24.4c-0.5,0.7-4.1,0.9-5.9,1c-0.8-8.1-1.5-17.1-1.4-26.4
			c-4.9,0.4-11.3-3.3-14-5.4c-0.5-0.6-1.1-3.1-1.3-5.7c-0.4-3.8,0-6.1,1.7-11.1c2.9-8,1.7-5.7,8.6-6.6c2.6-0.5,2.9-0.3,2.9,1
			c0,0.8-1.7,3.4-3.9,5.7c-4.2,4.4-5.4,7.4-4.5,11.7c0.7,3.6,3.4,5.3,10.1,6.2c14.2,1.9,21.9-1.1,21.9-8.6
			c0.6-1.8-7.2-14.7-6.8-16.1c0.6-1.4,1.6-1.1,4.1,1.1c4.2,3.7,5.8,7,7,14.3c0.6,3.2-1.5,8.4-4.4,10.6
			C669.8,548.9,663.1,551.3,658.8,550.8z"/>
		<path id="XMLID_130_" class="st0" d="M692.5,569.1c-2.5-2.5-4.9-9-4.9-13.5c0-3.6,1.6-7.8,3.7-9.7c0.6-0.6,1.5-2,2.1-3
			c1.3-2.2,4.1-4.7,7.3-6.3c3.8-1.9,9-1.5,16.8,1.4c4.1,1.6,7.7,3.4,8.6,4.5c5,5.8,3.4,23-2.5,28.5c-2.3,2.2-10.8,4.9-15.1,4.9
			C704.8,575.9,695.3,571.9,692.5,569.1z M702.3,568.5c2.4,1.5,3.4,1.7,7.9,1.4c2.8-0.2,5.4-0.6,5.7-1c0.3-0.4,1.4-1.1,2.5-1.7
			c3.1-1.6,4.8-4.2,5.3-8.4c0.6-5-2-10.2-6.9-13.7c-4.4-3-3.2-2.2-9.7-1.7c-7.6,0.7-11.5,5.1-11.5,13
			C695.5,560.3,698.9,566.3,702.3,568.5z"/>
		<path id="XMLID_133_" class="st0" d="M766.3,543.5c2.2,4.7,2.3,7.2,0.5,17.3c-1.9,10.9-2.6,12.1-8.7,13.9
			c-9.7,3-16.5,0.6-19.9-7.3c-3.1-7.1-3.8-12.7-2.5-20.5c0.6-3.1,0.9-3.7,3.3-4.6c3.5-1.4,4.5-0.7,3.9,2.5c-0.5,3-0.6,14.7,0,18.3
			c0.3,2.8,2.4,7.3,3.7,8c7.3,1.1,10-1.2,14.1-7.8c2.7-4.7,3.3-8.8,2.2-14.9c-0.5-2.8-0.7-5.8-0.4-6.6
			C763.3,539.8,764.7,540.3,766.3,543.5z"/>
		<path id="XMLID_135_" class="st0" d="M800.6,569.4c1-7.3,0.7-14.3-0.8-18.8c-1.1-3.4-2.1-4.6-4.7-6.4c-3.8-2.6-7-2.8-10.6-0.7
			c-4.7,2.6-6.6,9-6,20.1c0.2,5,0.1,7.5-0.5,8.2c-0.6,0.6-0.8,1.6-0.5,2.2c0.3,0.8,0.2,0.9-1,0.4c-0.8-0.4-1.6-1.5-1.8-2.3
			c-0.9-3.7-0.7-16.6,0.2-20c2.7-8.4,7.6-14.3,15.7-15.1c0.6-0.1,4.2,2.2,5.1,1.6c1.6-0.6,6.4,5.2,8.3,9.8c1.6,4,1.6,5.2,1.2,13.8
			c-0.5,9.6-1,11.5-3.7,11.5C800.2,573.7,800,573.4,800.6,569.4z"/>
		<path id="XMLID_137_" class="st0" d="M819.9,566.4c2.8,3.9,6.4,5.4,13.3,5.4c5.2,0,5.9-0.2,8.8-2.3c3.5-2.6,4.6-2.2,4.8,1.4
			c0.1,1.7-0.7,2.1-4.1,3.8c-4.7,2.4-17.9,2.5-22.8,0.1c-3.8-1.9-4.7-2.2-6.4-5.7c-2.8-5.5-2.8-13.3,0-20.4
			c2.3-5.8,5.1-8.4,11.2-10.7c4.6-1.6,11.4-1.2,14.3,0.7c1,0.8,3.4,3.5,5.3,6.1c3.9,5.3,4.1,7.7,0.7,10.8c-3.3,3.2-6.8,4-16.4,4
			C817.1,559.7,815.6,560.7,819.9,566.4z M825,543.2c-3.1,0.6-8.4,9.1-6.7,10.7c0.4,0.4,5,0.9,10.2,1.1c10.1,0.6,10.1,0.6,11.9-3.5
			c1.2-2.5-0.1-4.9-3.6-7.1C834.2,542.9,830,542.4,825,543.2z"/>
		<path id="XMLID_140_" class="st0" d="M881.2,545.7c1.4,2.1-0.1,4.1-3,4.1c-2,0-2.3-0.3-2.1-2.4c0.3-3.2-2-4.6-7.4-4.6
			c-4.8,0-6.5,1.2-6.5,4.8c0,3.1,0.3,3.4,8.6,7.2c5.7,2.6,6.9,3.6,8.2,6c2,3.9,2.1,8.3,0.1,10.8c-1.6,1.9-6.7,4.3-12.7,5.7
			c-2.5,0.7-3.9,0.6-6.7-0.4c-5.5-1.7-6.5-3.1-6.3-9.5c0.1-2.6,2.4-5.4,4.4-5.4c1.3,0,1.5,0.9,1.3,5c-0.3,3.6,1,4.6,5.7,4.6
			c5.7,0,7.5-0.7,8.8-3c2.1-3.8,0.9-8-2.3-8c-0.6,0-1.4-0.3-1.6-0.6c0-0.7-9-2.4-9.1-3.2c0-0.3-1-0.8-2.3-1.4
			c-3-1.2-4.2-4.1-3.6-8.4c0.8-4.5,5.1-8.2,10.5-8.9c6.3-0.7,5.8-2.4,11.5,1.4c2,1.5,3.6,3.3,3.6,3.8
			C880.3,543.8,880.7,544.8,881.2,545.7z"/>
		<path id="XMLID_142_" class="st0" d="M935.5,563.4c-9.2,0.2-10.5,0.1-12.1-1c-1.3-0.9-2.3-5.6-1.6-7.9c0.3-1,1-1,4.1-0.5
			c3.2,0.8,11.4,0.1,14.2,0.8c1.5,0.5,1.5-1.1,3.2-0.6c1.2,0.3,1.5,1.1,1.5,4.3C944.8,563.3,944.9,563.3,935.5,563.4z"/>
		<path id="XMLID_144_" class="st0" d="M990.7,521.9c0,0.4,0.3,10.8,0.5,23.4c0.6,33.7,0.6,34.3-2.5,34.3c-3.1,0-3.6-2.2-3.5-13.3
			c0.1-4.7,0.1-8.9,0.1-9.3c-0.8-13.1-1-32.7-0.2-34c0.6-1.1,1.6-1.7,3.2-1.7C989.6,521.4,990.7,521.6,990.7,521.9z"/>
		<path id="XMLID_146_" class="st0" d="M1021.5,522.7c6.8,1.5,10.5,5.8,13.3,15.8c2.8,9.7,3.8,17.8,2.5,21.1
			c-5.7,15.1-23,23.8-32.3,16.2c-4.3-3.6-7.7-14.6-7.5-23.8c0.1-4,2.4-10.8,5.1-15.3c1-1.7,2.1-4.2,2.7-5.6c1.7-4.6,3.4-6,9.2-7.4
			C1017.5,522.9,1020.6,522.5,1021.5,522.7z M1005.7,558.5c0.9,12.1,6,17.1,13.9,13.8c7.5-3.1,9.8-7.2,10.4-18.1
			c1.2-16.5-3.4-23.1-14.9-26.2C1010.8,528,1004.8,547.1,1005.7,558.5z"/>
		<path id="XMLID_149_" class="st0" d="M1080.8,558.5c1.7,2.6,1,8.4-1.4,11c-1.9,2-5.7,3.7-6.9,3c-0.4-0.2-0.7-0.1-0.7,0.3
			c0.3,0.9-17.1,2.2-24.8,2c-0.3-3.8-0.7-6.6-1.8-11.4c-1-4.2-1.3-8.8-1.3-19.4c0.1-15.2,0.7-18.5,3.5-17.7c2.3,0.7,1.7-2,4.1-1.4
			c0.9,0.2,2.6,0,3.6-0.3c2.4-0.8,9.9-0.5,13.4,0.7c3.5,1.1,8,3.6,8,4.7c0.1,0.4,1.1,1.9,2.4,3.3c4.3,4.7,2.8,9-4.8,14.3
			c-3.1,2.2-4.2,3.4-3.3,3.4C1072.6,550.8,1079.1,555.8,1080.8,558.5z M1065.1,528.5c-3.9-0.6-10.2,1.2-12.4,3.5
			c-1.6,1.6-1.9,3.8-0.6,4.6c0.5,0.3,0.6,0.9,0.1,1.7c-0.7,1.4-1.3,5.8-1.5,8.2h5.7c9.4,0,17.3-3.5,18.2-7.9
			c0.2-1.2,0.8-2.3,1.1-2.3c0.7-0.4-7.4-7.9-8-7.4C1067.1,528.8,1066,528.7,1065.1,528.5z M1055.6,553.9c-1.7,0.3-3.4,0.4-3.7,0.2
			c-0.9-0.6-1.7,8.6-0.8,10.3c0.4,0.8,1.1,2.4,1.7,3.6c0.9,2.3,1.4,2.4,10.1,1c12.4-2.1,14.2-2.9,13.1-6.2c-1.6-4.3-2.9-5.9-6-7.4
			C1066.2,553.7,1060.4,553.1,1055.6,553.9z"/>
		<path id="XMLID_153_" class="st0" d="M72.1,631.9c-0.6,0.6-19.7,0.6-20.5,1.1c-0.6,0.4-0.7,29.4-0.1,32.8c0.3,1.7,0.8,2.2,1.5,2.1
			c0.6-0.1,4.8-0.3,9.3-0.5c8.8-0.4,8.5-0.5,9.3,3.2c0.2,1.2-1.5,1.5-12.4,1.8c-5.8,0.2-13.1,0.6-16.4,0.9
			c-10.6,1-11.6,0.9-12.8-1.6c-1.9-3.8-1.4-4.1,8.2-4.1h8.4c-0.3-2.9-1.1-9.7-0.9-11.6c0.1-0.7,0.3-3.3,0.4-5.9
			c0.8-9.7,0.9-15.5,0.4-16.3c-0.4-0.6-1.4-0.7-3.7-0.5c-1.7,0.2-5.3,0.2-7.7,0.1c-4-0.4-4.7-0.6-4.8-1.8c-0.2-0.7,0-1.9,0.3-2.6
			c0.5-1.4,0.9-1.4,21.6-1.3l21.2,0.2C73.3,629.6,73.2,631.5,72.1,631.9z"/>
		<path id="XMLID_155_" class="st0" d="M100.9,666.6c0.9-6.2,0.6-12.2-0.7-16c-0.9-2.9-1.8-3.9-4-5.4c-3.2-2.2-6-2.4-9-0.6
			c-4,2.2-5.6,7.6-5.1,17.1c0.2,4.3,0.1,6.4-0.4,7c-0.5,0.5-0.7,1.4-0.4,1.8c0.3,0.7,0.2,0.8-0.9,0.3c-0.7-0.3-1.4-1.3-1.5-2
			c-0.8-3.2-0.6-14.1,0.2-17c2.3-7.2,6.5-12.2,13.3-12.8c0.5-0.1,3.6,1.8,4.3,1.4c1.4-0.5,5.4,4.5,7.1,8.3c1.4,3.4,1.4,4.5,1,11.8
			c-0.4,8.2-0.9,9.8-3.1,9.8C100.5,670.3,100.3,669.9,100.9,666.6z"/>
		<path id="XMLID_157_" class="st0" d="M133.5,664.6c2,1,1.7,8.1-0.3,8.1c-0.4,0-1.4,0.6-2,1.3c-1.7,1.8-5.3,1.6-8.2-0.6
			c-5.5-3.9-5.7-4.1-6-16.2c-0.3-10.2-0.3-10.5-2.7-10.2c-1.8,0-4.1-0.2-4.1-2.5c0-2.5,1.6-3.8,4.3-3.8c1.5,0,2.2-0.2,2-0.8
			c-0.2-0.4-0.6-2.9-0.9-5.7c-0.5-4.5-0.4-5.2,0.7-7.1c1-1.5,1.8-2.1,2.9-1.9c1.4,0.2,1.4,0.6,1.5,7c0.2,8.7,0.1,8.7,3.9,8.3
			c3-0.4,3.1-0.2,4,1.7c1.3,2.9,0.3,4.1-3.8,4.7l-3.6,0.5c-0.1,6.9,1.6,16.9,3.7,21.1c0.9,1.4,4.1,2.7,5.4,0.5
			c0.7-0.8,1.3-2.1,1.3-2.8C131.5,664.4,132.1,663.9,133.5,664.6z"/>
		<path id="XMLID_159_" class="st0" d="M147.2,664.1c2.4,3.3,5.4,4.6,11.3,4.6c4.4,0,5-0.2,7.5-2c3-2.2,3.9-1.9,4.1,1.2
			c0.1,1.4-0.6,1.7-3.5,3.3c-4,2.1-15.2,2.1-19.4,0.1c-3.2-1.6-4-1.9-5.4-4.8c-2.4-4.7-2.4-11.3,0-17.3c2-4.9,4.3-7.2,9.5-9.1
			c3.9-1.4,9.7-1,12.2,0.6c0.9,0.7,2.9,2.9,4.5,5.2c3.3,4.5,3.5,6.5,0.6,9.1c-2.8,2.7-5.8,3.4-13.9,3.4
			C144.8,658.3,143.5,659.2,147.2,664.1z M151.5,644.3c-2.6,0.5-7.1,7.7-5.7,9.1c0.3,0.3,4.3,0.8,8.7,1c8.6,0.5,8.6,0.5,10.1-2.9
			c1-2.1-0.1-4.1-3.1-6C159.3,644,155.8,643.6,151.5,644.3z"/>
		<path id="XMLID_162_" class="st0" d="M189.2,640.5c1.4,0.6,3.2,1.7,4,2.6c1.2,1.5,1.2,1.9,0.4,2.9c-0.9,1.1-1,1.1-2.9-0.6
			c-2.5-2.2-4.8-1.8-6.7,1c-1.7,2.5-2,4.8-2.1,16.6c-0.2,8.7-0.4,9.8-1.5,10.6c-2,1.3-1.5-0.4-3.4-0.6c-1.1-0.2-1.4-0.7-1.3-2.7
			c0.1-3.7,0.3-17.3,0.5-23c2-2,6.4-6.3,8.2-7.2C186,639.3,186.2,639.4,189.2,640.5z"/>
		<path id="XMLID_164_" class="st0" d="M221.7,666.6c0.9-6.2,0.6-12.2-0.7-16c-0.9-2.9-1.8-3.9-4-5.4c-3.2-2.2-6-2.4-9-0.6
			c-4,2.2-5.6,7.6-5.1,17.1c0.2,4.3,0.1,6.4-0.4,7c-0.5,0.5-0.7,1.4-0.4,1.8c0.3,0.7,0.2,0.8-0.9,0.3c-0.7-0.3-1.4-1.3-1.5-2
			c-0.8-3.2-0.6-14.1,0.2-17c2.3-7.2,6.5-12.2,13.3-12.8c0.5-0.1,3.6,1.8,4.3,1.4c1.4-0.5,5.4,4.5,7.1,8.3c1.4,3.4,1.4,4.5,1,11.8
			c-0.4,8.2-0.9,9.8-3.1,9.8C221.4,670.3,221.2,669.9,221.7,666.6z"/>
		<path id="XMLID_166_" class="st0" d="M250,644.9c-4.3-3.1-12.2-1.7-14.7,2.6c-0.5,1-1.3,1.4-2.5,1.3c-1.4-0.2-1.8-0.6-2-2.1
			c-0.3-2.3,2.6-6.7,5.2-8.1c2.5-1.4,10.1-0.7,14,1.1c2.4,1.2,3.4,2.2,4.9,5.2c1.8,3.4,2,4.3,2.4,12.8c0.3,10.5,0,9.9-2.2,14.6
			l-7.7-0.4c-8.4-0.4-9.9-0.7-13.3-3.5c-2-1.7-2.4-2.3-2.6-5.6c-0.3-3.3-0.1-3.8,1.6-5.7c4.3-4.8,10.8-6.7,19-5.8
			C252.2,648.1,252.6,646.5,250,644.9z M242.1,667.3c6.6,0.9,10.7-2.1,10.7-7.7c0-1.9-0.3-2.7-1.4-3.4c-2.4-1.6-6.5-1.3-10,0.8
			c-3.3,2-3.9,2.9-3.9,6.4C237.4,666.1,238.2,666.8,242.1,667.3z"/>
		<path id="XMLID_169_" class="st0" d="M286.2,664.6c2,1,1.7,8.1-0.3,8.1c-0.4,0-1.4,0.6-2,1.3c-1.7,1.8-5.3,1.6-8.2-0.6
			c-5.5-3.9-5.7-4.1-6-16.2c-0.3-10.2-0.3-10.5-2.7-10.2c-1.8,0-4.1-0.2-4.1-2.5c0-2.5,1.6-3.8,4.3-3.8c1.5,0,2.2-0.2,2-0.8
			c-0.2-0.4-0.6-2.9-0.9-5.7c-0.5-4.5-0.4-5.2,0.7-7.1c1-1.5,1.8-2.1,2.9-1.9c1.4,0.2,1.4,0.6,1.5,7c0.2,8.7,0.1,8.7,3.9,8.3
			c3-0.4,3.1-0.2,4,1.7c1.3,2.9,0.3,4.1-3.8,4.7l-3.6,0.5c-0.1,6.9,1.6,16.9,3.7,21.1c0.9,1.4,4.1,2.7,5.4,0.5
			c0.7-0.8,1.3-2.1,1.3-2.8C284.1,664.4,284.7,663.9,286.2,664.6z"/>
		<path id="XMLID_171_" class="st0" d="M299.2,657.5c-0.1,12.5-0.2,14.5-1.2,15.3c-1.4,1.4-2.6,1.4-2,0c0.3-0.7,0.1-0.9-0.7-0.6
			c-2.2,0.8-2.6-1.1-2.6-13.2c-0.1-9.7,0.2-12.2,1.1-14.1c1.3-2.9,1.9-2,4.3-1.7C299.2,643.3,299.2,644.3,299.2,657.5z M298.1,628.3
			c2.8,1.4,2.2,5.2-1.1,8.3c-1.1,1-1.2,1.1-2.6-0.2c-2.2-1.9-2.2-5.2,0-7.2C296.2,627.5,296.4,627.4,298.1,628.3z"/>
		<path id="XMLID_174_" class="st0" d="M309.2,666.3c-2.1-2.1-4.2-7.6-4.2-11.4c0-3.1,1.4-6.6,3.1-8.3c0.5-0.5,1.3-1.7,1.8-2.5
			c1.1-1.9,3.5-4,6.2-5.3c3.2-1.6,7.7-1.3,14.3,1.2c3.5,1.4,6.5,2.9,7.3,3.8c4.3,4.9,2.9,19.6-2.1,24.2c-2,1.8-9.2,4.1-12.8,4.1
			C319.6,672.1,311.6,668.7,309.2,666.3z M317.4,665.8c2,1.3,2.9,1.4,6.7,1.2c2.4-0.2,4.6-0.5,4.8-0.9c0.3-0.3,1.2-1,2.1-1.4
			c2.6-1.4,4.1-3.6,4.5-7.2c0.5-4.3-1.7-8.7-5.9-11.6c-3.7-2.5-2.7-1.9-8.2-1.4c-6.5,0.6-9.8,4.4-9.8,11
			C311.7,658.8,314.6,664,317.4,665.8z"/>
		<path id="XMLID_177_" class="st0" d="M367.9,666.6c0.9-6.2,0.6-12.2-0.7-16c-0.9-2.9-1.8-3.9-4-5.4c-3.2-2.2-6-2.4-9-0.6
			c-4,2.2-5.6,7.6-5.1,17.1c0.2,4.3,0.1,6.4-0.4,7c-0.5,0.5-0.7,1.4-0.4,1.8c0.3,0.7,0.2,0.8-0.9,0.3c-0.7-0.3-1.4-1.3-1.5-2
			c-0.8-3.2-0.6-14.1,0.2-17c2.3-7.2,6.5-12.2,13.3-12.8c0.5-0.1,3.6,1.8,4.3,1.4c1.4-0.5,5.4,4.5,7.1,8.3c1.4,3.4,1.4,4.5,1,11.8
			c-0.4,8.2-0.9,9.8-3.1,9.8C367.6,670.3,367.4,669.9,367.9,666.6z"/>
		<path id="XMLID_179_" class="st0" d="M396.2,644.9c-4.3-3.1-12.2-1.7-14.7,2.6c-0.5,1-1.3,1.4-2.5,1.3c-1.4-0.2-1.8-0.6-2-2.1
			c-0.3-2.3,2.6-6.7,5.2-8.1c2.5-1.4,10.1-0.7,14,1.1c2.4,1.2,3.4,2.2,4.9,5.2c1.8,3.4,2,4.3,2.4,12.8c0.3,10.5,0,9.9-2.2,14.6
			l-7.7-0.4c-8.4-0.4-9.9-0.7-13.3-3.5c-2-1.7-2.4-2.3-2.6-5.6c-0.3-3.3-0.1-3.8,1.6-5.7c4.3-4.8,10.8-6.7,19-5.8
			C398.4,648.1,398.8,646.5,396.2,644.9z M388.3,667.3c6.6,0.9,10.7-2.1,10.7-7.7c0-1.9-0.3-2.7-1.4-3.4c-2.4-1.6-6.5-1.3-10,0.8
			c-3.3,2-3.9,2.9-3.9,6.4C383.6,666.1,384.4,666.8,388.3,667.3z"/>
		<path id="XMLID_182_" class="st0" d="M413.9,629.4c1.1,3.7,2.6,32.3,2,37.8c-0.3,2.5-0.7,3.1-2.4,3.9c-1.4,0.7-2.2,0.8-2.7,0.3
			c-0.4-0.4-0.8-4.5-0.9-9.9c0.1-7.3-1.2-25.9-0.8-32.3C409.9,628.1,413.5,628.2,413.9,629.4z"/>
		<path id="XMLID_184_" class="st0" d="M491.1,660.2c0,2.8-2.8,6.8-6,8.6c-3.9,2.2-12.2,3.7-18.6,3c-4.3-0.5-10.9-2.9-10.9-4.1
			c0-0.4-0.3-0.6-0.9-0.6c-0.8,0-3.8-6.4-3.8-8.3c0-1.2,2.6-2.2,3.2-1.3c0.2,0.3,1,0.7,1.8,0.9c0.9,0.2,1.4,0.9,1.5,2.4
			c0.3,2.6,2,3.9,6.8,5.3c4.8,1.5,13.6,1.5,15.3,0.1c0.6-0.6,1.4-1,1.9-1c2.7-1.2,2.5-7.5,0-9.3c-2.3-1.7-7.9-3.9-11.6-4.5
			c-4.8-0.7-12.4-4.1-16.6-7.2c-3.2-2.5-4.3-5.6-2.9-8c2.8-4.8,5.5-6.7,11.2-7.7c11.4-2,21.3-0.3,23.6,7.3c1.1,3.2,0.4,4.8-2.1,4.7
			c-1.5,0-1.9-0.4-2.1-2.2c-0.9-5.2-3.4-6.6-11.3-6.6c-10.4,0.1-14.3,3-12.4,9.5c0.5,1.7,1.2,1.9,9,3.3c3.9,0.7,8.2,2.1,11.1,3.4
			c2.6,1.2,5.4,2.2,6.2,2.2c0.9,0,1.4,0.3,1.4,1C484.8,652.5,491.3,658.9,491.1,660.2z"/>
		<path id="XMLID_186_" class="st0" d="M526.4,651.2c-0.9,1.1-1,1.1-2.7-0.9c-1.4-1.6-2-1.8-2.6-1.4c-0.7,0.5-1.2,0.1-2.3-1.5
			c-1.8-2.7-3.2-3.1-6.7-2.2c-3.1,0.7-7.7,5.1-8.8,8.5c-0.9,2.7-0.5,8,0.9,10.5c1.2,2.4,4,3.9,8.2,4.5c3.1,0.4,3.2,0.3,5.5-2
			c1.3-1.4,2.7-3.1,3.1-4c1.1-2.1,2.8-2.2,3.7-0.3c1.9,3.7-2.6,10-8.2,11.7c-6.9,2.1-16.1-0.9-18.9-6c-2-3.7-1.9-13.8,0.2-17.8
			c1.9-3.7,5.4-6.7,9.8-8.3c2-0.7,3.7-1.5,4-1.7c0.5-0.5,6.2,0.2,8.3,0.9c1.4,0.5,7.6,7,7.6,8C527.5,649.6,527,650.5,526.4,651.2z"
			/>
		<path id="XMLID_188_" class="st0" d="M543.7,641.5c0.4-0.6,2.9-0.5,7.5,0.2c2.3,0.4,5.2,2.7,6.6,5.2c1.4,2.6,3.1,9.7,3.1,13.6
			c0,6.2-2,12.2-4.1,12.2c-0.7,0-1.4,0.3-1.6,0.6c-0.7,1-2.9,0.6-3.4-0.5c-0.4-1,1.2-2.9,3.1-3.4c1-0.3,1.3-9.2,0.5-14.6
			c-0.6-4.1-2.6-8-4.6-9.1c-0.7-0.4-2.5-0.6-3.9-0.6c-2.4,0-3,0.3-5.1,2.8c-2.2,2.5-2.6,3.3-3.1,8.3c-0.3,3-0.4,7.7-0.2,10.3
			c0.5,5.2,0.4,5.5-0.2,5.4c-0.2,0-0.8,0.6-1.3,1.2c-1.7,2.2-2.4,0.1-2.7-8.3c-0.5-9.5-1.5-26.1-0.5-33.1c0.3-0.5-0.1-1-0.6-1.2
			c-1.1-0.4-0.9-3.5,0.3-3.5c0.3,0,0.6-0.6,0.6-1.2c0-0.7,0.5-1.4,1.2-1.5c3.7-1,3.6-1.3,3.3,9.9l-0.2,10.3c1-0.5,3.6-1.7,3.7-2.5
			C542.2,641.2,543.4,642.3,543.7,641.5z"/>
		<path id="XMLID_190_" class="st0" d="M570.1,666.3c-2.1-2.1-4.2-7.6-4.2-11.4c0-3.1,1.4-6.6,3.1-8.3c0.5-0.5,1.3-1.7,1.8-2.5
			c1.1-1.9,3.5-4,6.2-5.3c3.2-1.6,7.7-1.3,14.3,1.2c3.5,1.4,6.5,2.9,7.3,3.8c4.3,4.9,2.9,19.6-2.1,24.2c-2,1.8-9.2,4.1-12.8,4.1
			C580.5,672.1,572.5,668.7,570.1,666.3z M578.4,665.8c2,1.3,2.9,1.4,6.7,1.2c2.4-0.2,4.6-0.5,4.8-0.9c0.3-0.3,1.2-1,2.1-1.4
			c2.6-1.4,4.1-3.6,4.5-7.2c0.5-4.3-1.7-8.7-5.9-11.6c-3.7-2.5-2.7-1.9-8.2-1.4c-6.5,0.6-9.8,4.4-9.8,11
			C572.7,658.8,575.6,664,578.4,665.8z"/>
		<path id="XMLID_193_" class="st0" d="M610.5,666.3c-2.1-2.1-4.2-7.6-4.2-11.4c0-3.1,1.4-6.6,3.1-8.3c0.5-0.5,1.3-1.7,1.8-2.5
			c1.1-1.9,3.5-4,6.2-5.3c3.2-1.6,7.7-1.3,14.3,1.2c3.5,1.4,6.5,2.9,7.3,3.8c4.3,4.9,2.9,19.6-2.1,24.2c-2,1.8-9.2,4.1-12.8,4.1
			C620.9,672.1,612.9,668.7,610.5,666.3z M618.8,665.8c2,1.3,2.9,1.4,6.7,1.2c2.4-0.2,4.6-0.5,4.8-0.9c0.3-0.3,1.2-1,2.1-1.4
			c2.6-1.4,4.1-3.6,4.5-7.2c0.5-4.3-1.7-8.7-5.9-11.6c-3.7-2.5-2.7-1.9-8.2-1.4c-6.5,0.6-9.8,4.4-9.8,11
			C613.1,658.8,615.9,664,618.8,665.8z"/>
		<path id="XMLID_196_" class="st0" d="M651.7,629.4c1.1,3.7,2.6,32.3,2,37.8c-0.3,2.5-0.7,3.1-2.4,3.9c-1.4,0.7-2.2,0.8-2.7,0.3
			c-0.4-0.4-0.8-4.5-0.9-9.9c0.1-7.3-1.2-25.9-0.8-32.3C647.7,628.1,651.3,628.2,651.7,629.4z"/>
		<path id="XMLID_198_" class="st0" d="M691.8,666.3c-2.1-2.1-4.2-7.6-4.2-11.4c0-3.1,1.4-6.6,3.1-8.3c0.5-0.5,1.3-1.7,1.8-2.5
			c1.1-1.9,3.5-4,6.2-5.3c3.2-1.6,7.7-1.3,14.3,1.2c3.5,1.4,6.5,2.9,7.3,3.8c4.3,4.9,2.9,19.6-2.1,24.2c-2,1.8-9.2,4.1-12.8,4.1
			C702.2,672.1,694.2,668.7,691.8,666.3z M700.1,665.8c2,1.3,2.9,1.4,6.7,1.2c2.4-0.2,4.6-0.5,4.8-0.9c0.3-0.3,1.2-1,2.1-1.4
			c2.6-1.4,4.1-3.6,4.5-7.2c0.5-4.3-1.7-8.7-5.9-11.6c-3.7-2.5-2.7-1.9-8.2-1.4c-6.5,0.6-9.8,4.4-9.8,11
			C694.4,658.8,697.3,664,700.1,665.8z"/>
		<path id="XMLID_201_" class="st0" d="M739,648.8l4.7,0.2c8,0.4,8.2,2.6,0.2,3.8l-4.7,0.7c0.2,4,0.5,14.7,1.3,16.4
			c0.8,0.9-0.2,5.4-1.1,5.7c-0.4,0.2-1.7-0.6-2.9-1.6c-2.4-2-2.2-1.6-2.2-13.8c0-5.4,1.2-6.5-3.2-7.2c-3.3-0.5-4-1.9-1.4-3.2
			c3.3-1.8,4.1,0.9,4-5.4c0-4.8,1.4-11,3.1-13.5c1-1.4,1.4-1.6,4.3-1.4c2.3,0.2,3.6,0.8,4.5,1.8c1.7,1.9,2.7,5.6,2,7.3
			c-0.8,2.1-2.4,1.1-3.2-2c-0.8-3.3-2.9-4.1-4.4-2.1C738.7,635.8,739.1,645,739,648.8z"/>
		<path id="XMLID_203_" class="st0" d="M789.9,632.3c0.9,0.6,1,1.4,0.5,5.7c-0.3,2.7-0.6,10.4-0.4,17c0.2,11.2,0.3,12.1,1.4,11.7
			c0.6-0.2,1.6-0.4,2.1-0.3c0.5,0.2,5.2,0.2,10.4,0.2c9.4,0.1,12.3,0.7,12.3,2.5c0,0.5-0.8,1.3-1.9,1.9c-1.8,1-3.1,1-12.2,0.6
			c-8.6-0.5-10.5-0.5-13,0.4c-1.6,0.5-3.1,0.8-3.3,0.6c-1.4-0.2-1.5-30-2-34.8c-0.3-2.9-0.2-5.4,0.3-6.8c0.9-2.7,1.5-1.8,3.5-1.2
			C789.3,630.5,788.4,631.4,789.9,632.3z"/>
		<path id="XMLID_205_" class="st0" d="M822.4,666.3c-2.1-2.1-4.2-7.6-4.2-11.4c0-3.1,1.4-6.6,3.1-8.3c0.5-0.5,1.3-1.7,1.8-2.5
			c1.1-1.9,3.5-4,6.2-5.3c3.2-1.6,7.7-1.3,14.3,1.2c3.5,1.4,6.5,2.9,7.3,3.8c4.3,4.9,2.9,19.6-2.1,24.2c-2,1.8-9.2,4.1-12.8,4.1
			C832.8,672.1,824.8,668.7,822.4,666.3z M830.7,665.8c2,1.3,2.9,1.4,6.7,1.2c2.4-0.2,4.6-0.5,4.8-0.9c0.3-0.3,1.2-1,2.1-1.4
			c2.6-1.4,4.1-3.6,4.5-7.2c0.5-4.3-1.7-8.7-5.9-11.6c-3.7-2.5-2.7-1.9-8.2-1.4c-6.5,0.6-9.8,4.4-9.8,11
			C825,658.8,827.8,664,830.7,665.8z"/>
		<path id="XMLID_208_" class="st0" d="M881.1,666.6c0.8-6.2,0.6-12.2-0.7-16c-0.9-2.9-1.8-3.9-4-5.4c-3.2-2.2-6-2.4-9-0.6
			c-4,2.2-5.6,7.6-5.1,17.1c0.2,4.3,0.1,6.4-0.4,7c-0.5,0.5-0.7,1.4-0.4,1.8c0.3,0.7,0.2,0.8-0.8,0.3c-0.7-0.3-1.4-1.3-1.5-2
			c-0.8-3.2-0.6-14.1,0.2-17c2.3-7.2,6.5-12.2,13.3-12.8c0.5-0.1,3.6,1.8,4.3,1.4c1.4-0.5,5.4,4.5,7.1,8.3c1.4,3.4,1.4,4.5,1,11.8
			c-0.4,8.2-0.8,9.8-3.1,9.8C880.8,670.3,880.6,669.9,881.1,666.6z"/>
		<path id="XMLID_210_" class="st0" d="M917.9,623.4c0.5,4.1,0.7,33.4,0.8,42.8c-2.6,4.1-4.8,5-13.9,5.8c-4.5,0.3-5.8,0.2-7.9-0.8
			c-4.1-1.8-7.1-7.3-6.5-11.8c0.3-2,1.2-7.4,1.4-7.9c1.4-4.2,6-8.8,10.1-10.3c2.6-1,3.6-1,6.6-0.3c2,0.5,3.8,1,4,1.4
			c1.7,2.5,2.2-2.3,1-8.3c-1-4.5,0.3-2.5,0.1-6.7c-0.2-2.6-0.1-3.2,1.4-3.7C917,622.5,917.4,622.6,917.9,623.4z M912.7,647.5
			c-2.2-2.1-7.4-2.2-11.2-0.3c-4.3,2.1-6.2,5.6-5.9,11c0.3,4.7,1.4,6.1,7.3,8.3c7.7,2.9,11.2-0.6,11.2-11.5
			C914.1,649.7,914,648.8,912.7,647.5z"/>
		<path id="XMLID_213_" class="st0" d="M928,666.3c-2.1-2.1-4.2-7.6-4.2-11.4c0-3.1,1.4-6.6,3.1-8.3c0.5-0.5,1.3-1.7,1.8-2.5
			c1.1-1.9,3.5-4,6.2-5.3c3.2-1.6,7.7-1.3,14.3,1.2c3.5,1.4,6.5,2.9,7.3,3.8c4.3,4.9,2.9,19.6-2.1,24.2c-2,1.8-9.2,4.1-12.8,4.1
			C938.3,672.1,930.4,668.7,928,666.3z M936.2,665.8c2,1.3,2.9,1.4,6.7,1.2c2.4-0.2,4.6-0.5,4.8-0.9c0.3-0.3,1.2-1,2.1-1.4
			c2.6-1.4,4.1-3.6,4.5-7.2c0.5-4.3-1.7-8.7-5.9-11.6c-3.7-2.5-2.7-1.9-8.2-1.4c-6.5,0.6-9.8,4.4-9.8,11
			C930.5,658.8,933.4,664,936.2,665.8z"/>
		<path id="XMLID_216_" class="st0" d="M986.7,666.6c0.8-6.2,0.6-12.2-0.7-16c-0.9-2.9-1.8-3.9-4-5.4c-3.2-2.2-6-2.4-9-0.6
			c-4,2.2-5.6,7.6-5.1,17.1c0.2,4.3,0.1,6.4-0.4,7c-0.5,0.5-0.7,1.4-0.4,1.8c0.3,0.7,0.2,0.8-0.8,0.3c-0.7-0.3-1.4-1.3-1.5-2
			c-0.8-3.2-0.6-14.1,0.2-17c2.3-7.2,6.5-12.2,13.3-12.8c0.5-0.1,3.6,1.8,4.3,1.4c1.4-0.5,5.4,4.5,7.1,8.3c1.4,3.4,1.4,4.5,1,11.8
			c-0.4,8.2-0.8,9.8-3.1,9.8C986.4,670.3,986.2,669.9,986.7,666.6z"/>
		<path id="XMLID_218_" class="st0" d="M1036.4,661.5c-7.8,0.2-8.9,0.1-10.3-0.9c-1.1-0.8-2-4.8-1.4-6.8c0.3-0.9,0.9-0.9,3.5-0.4
			c2.7,0.7,9.7,0.1,12.1,0.7c1.3,0.4,1.3-1,2.7-0.5c1,0.2,1.3,1,1.3,3.7C1044.3,661.4,1044.4,661.4,1036.4,661.5z"/>
		<path id="XMLID_220_" class="st0" d="M1133.8,669.4c-0.1,1.1-1.3,2.1-3.3,2.7c-2.5,0.6-3.9,0.5-9.4-1.3c-4.3-1.4-5.4-1.4-7.1-0.6
			c-3.1,1.6-10.1,3.1-14.5,3.1c-9-0.1-14.6-4.2-19.2-14.4c-1.8-4.1-2.1-5.4-2-10.3c0-6.2,0.7-8.8,4-14.4c2.3-4,4.9-6.1,9.8-7.9
			c3.4-1.4,6.3-1.4,11.8-0.2c4.8,1,10.5,4.4,13,7.5c3.2,4,5.6,18.6,4.4,26.4c-0.4,2.5-0.6,4.8-0.4,5.2c1.1,1.6,6.8,3.8,9.9,3.8
			C1132.4,669,1133.8,669.1,1133.8,669.4z M1086.8,637c-3.1,3.4-3.8,5.2-3.8,11.2c0,6.4,1.5,11.4,4.5,15l1.8,2.3
			c1.1-2.6,4.3-8.7,6-8.4c0.3,0,1.4-0.6,2.4-1.3c1.1-0.6,3.4-1.4,5.1-1.8c3.1-0.6,3.3-0.6,6.2,1.3c1.7,1.1,4,3,5.2,4.3
			c1.3,1.3,2.5,2.1,2.6,1.9c0.8-0.7,0.9-4.9,0.3-9.5c-1.1-7.7-1.4-9.5-2.4-13c-1-3.4-1.5-3.8-9.1-7.8c-1.7-0.9-3.7-1.6-4.5-1.5
			c-1.6,0.1-10.4,4.2-10.6,4.9c-0.2,0.3-0.6,0.6-1.1,0.6C1088.9,635.2,1087.9,635.9,1086.8,637z M1098,661.3c-3.3,2.6-2.2,6,2.4,7.5
			c2.8,0.9,3.1,0.9,7.3-0.8c2.4-1,4.6-1.7,4.7-1.8c0.3-0.2-2-2.2-4.4-3.9C1104.9,660.3,1099.8,659.8,1098,661.3z"/>
		<path id="XMLID_224_" class="st0" d="M1158.1,644.9c-4.3-3.1-12.2-1.7-14.7,2.6c-0.5,1-1.3,1.4-2.5,1.3c-1.4-0.2-1.8-0.6-2-2.1
			c-0.3-2.3,2.6-6.7,5.2-8.1c2.6-1.4,10.1-0.7,14,1.1c2.4,1.2,3.4,2.2,4.9,5.2c1.8,3.4,2,4.3,2.4,12.8c0.3,10.5,0,9.9-2.2,14.6
			l-7.7-0.4c-8.4-0.4-9.9-0.7-13.3-3.5c-2-1.7-2.4-2.3-2.6-5.6c-0.3-3.3-0.1-3.8,1.6-5.7c4.3-4.8,10.8-6.7,19-5.8
			C1160.3,648.1,1160.6,646.5,1158.1,644.9z M1150.2,667.3c6.6,0.9,10.7-2.1,10.7-7.7c0-1.9-0.3-2.7-1.4-3.4
			c-2.4-1.6-6.5-1.3-10,0.8c-3.3,2-3.9,2.9-3.9,6.4C1145.5,666.1,1146.3,666.8,1150.2,667.3z"/>
		<path id="XMLID_227_" class="st0" d="M1194.2,664.6c2,1,1.7,8.1-0.3,8.1c-0.4,0-1.4,0.6-2,1.3c-1.7,1.8-5.3,1.6-8.2-0.6
			c-5.5-3.9-5.7-4.1-6-16.2c-0.3-10.2-0.3-10.5-2.7-10.2c-1.8,0-4.1-0.2-4.1-2.5c0-2.5,1.6-3.8,4.3-3.8c1.5,0,2.2-0.2,2-0.8
			c-0.2-0.4-0.6-2.9-0.9-5.7c-0.5-4.5-0.4-5.2,0.7-7.1c1-1.5,1.8-2.1,2.9-1.9c1.4,0.2,1.4,0.6,1.5,7c0.2,8.7,0.1,8.7,3.9,8.3
			c3-0.4,3.1-0.2,4,1.7c1.3,2.9,0.3,4.1-3.8,4.7l-3.6,0.5c-0.1,6.9,1.6,16.9,3.7,21.1c0.8,1.4,4.1,2.7,5.4,0.5
			c0.7-0.8,1.3-2.1,1.3-2.8C1192.2,664.4,1192.7,663.9,1194.2,664.6z"/>
		<path id="XMLID_229_" class="st0" d="M1219.8,644.9c-4.3-3.1-12.2-1.7-14.7,2.6c-0.5,1-1.3,1.4-2.5,1.3c-1.4-0.2-1.8-0.6-2-2.1
			c-0.3-2.3,2.6-6.7,5.2-8.1c2.6-1.4,10.1-0.7,14,1.1c2.4,1.2,3.4,2.2,4.9,5.2c1.8,3.4,2,4.3,2.4,12.8c0.3,10.5,0,9.9-2.2,14.6
			l-7.7-0.4c-8.4-0.4-9.9-0.7-13.3-3.5c-2-1.7-2.4-2.3-2.6-5.6c-0.3-3.3-0.1-3.8,1.6-5.7c4.3-4.8,10.8-6.7,19-5.8
			C1222,648.1,1222.3,646.5,1219.8,644.9z M1211.9,667.3c6.6,0.9,10.7-2.1,10.7-7.7c0-1.9-0.3-2.7-1.4-3.4c-2.4-1.6-6.5-1.3-10,0.8
			c-3.3,2-3.9,2.9-3.9,6.4C1207.2,666.1,1208,666.8,1211.9,667.3z"/>
		<path id="XMLID_232_" class="st0" d="M1246,640.5c1.4,0.6,3.2,1.7,4,2.6c1.2,1.5,1.2,1.9,0.4,2.9c-0.8,1.1-1,1.1-2.9-0.6
			c-2.5-2.2-4.8-1.8-6.7,1c-1.7,2.5-2,4.8-2.1,16.6c-0.2,8.7-0.4,9.8-1.5,10.6c-2,1.3-1.5-0.4-3.4-0.6c-1.1-0.2-1.4-0.7-1.3-2.7
			c0.1-3.7,0.3-17.3,0.5-23c2-2,6.4-6.3,8.2-7.2C1242.8,639.3,1243,639.4,1246,640.5z"/>
	</g>
</g>
</svg>
